G04 #@! TF.GenerationSoftware,KiCad,Pcbnew,(5.1.8)-1*
G04 #@! TF.CreationDate,2021-01-06T21:59:08-05:00*
G04 #@! TF.ProjectId,Square Wave Generator,53717561-7265-4205-9761-76652047656e,rev?*
G04 #@! TF.SameCoordinates,Original*
G04 #@! TF.FileFunction,Copper,L1,Top*
G04 #@! TF.FilePolarity,Positive*
%FSLAX46Y46*%
G04 Gerber Fmt 4.6, Leading zero omitted, Abs format (unit mm)*
G04 Created by KiCad (PCBNEW (5.1.8)-1) date 2021-01-06 21:59:08*
%MOMM*%
%LPD*%
G01*
G04 APERTURE LIST*
G04 #@! TA.AperFunction,Profile*
%ADD10C,0.254000*%
G04 #@! TD*
G04 #@! TA.AperFunction,ComponentPad*
%ADD11R,2.000000X2.000000*%
G04 #@! TD*
G04 #@! TA.AperFunction,ComponentPad*
%ADD12C,2.000000*%
G04 #@! TD*
G04 #@! TA.AperFunction,ComponentPad*
%ADD13C,1.600000*%
G04 #@! TD*
G04 #@! TA.AperFunction,ComponentPad*
%ADD14O,1.600000X1.600000*%
G04 #@! TD*
G04 #@! TA.AperFunction,ComponentPad*
%ADD15R,1.600000X1.600000*%
G04 #@! TD*
G04 #@! TA.AperFunction,ComponentPad*
%ADD16R,3.000000X3.000000*%
G04 #@! TD*
G04 #@! TA.AperFunction,ComponentPad*
%ADD17C,3.000000*%
G04 #@! TD*
G04 #@! TA.AperFunction,ComponentPad*
%ADD18C,1.300000*%
G04 #@! TD*
G04 #@! TA.AperFunction,ComponentPad*
%ADD19C,2.250000*%
G04 #@! TD*
G04 #@! TA.AperFunction,ComponentPad*
%ADD20C,5.250000*%
G04 #@! TD*
G04 #@! TA.AperFunction,ComponentPad*
%ADD21O,2.200000X2.200000*%
G04 #@! TD*
G04 #@! TA.AperFunction,ComponentPad*
%ADD22R,2.200000X2.200000*%
G04 #@! TD*
G04 #@! TA.AperFunction,ViaPad*
%ADD23C,0.600000*%
G04 #@! TD*
G04 #@! TA.AperFunction,Conductor*
%ADD24C,0.762000*%
G04 #@! TD*
G04 #@! TA.AperFunction,Conductor*
%ADD25C,0.381000*%
G04 #@! TD*
G04 #@! TA.AperFunction,Conductor*
%ADD26C,0.127000*%
G04 #@! TD*
G04 #@! TA.AperFunction,Conductor*
%ADD27C,0.150000*%
G04 #@! TD*
G04 #@! TA.AperFunction,Conductor*
%ADD28C,0.025400*%
G04 #@! TD*
G04 APERTURE END LIST*
D10*
X120000000Y-123500000D02*
G75*
G02*
X116500000Y-127000000I-3500000J0D01*
G01*
X83500000Y-127000000D02*
G75*
G02*
X80000000Y-123500000I0J3500000D01*
G01*
X116500000Y-73000000D02*
G75*
G02*
X120000000Y-76500000I0J-3500000D01*
G01*
X80000000Y-76500000D02*
G75*
G02*
X83500000Y-73000000I3500000J0D01*
G01*
X83500000Y-127000000D02*
X116500000Y-127000000D01*
X120000000Y-76500000D02*
X120000000Y-123500000D01*
X83500000Y-73000000D02*
X116500000Y-73000000D01*
X80000000Y-76500000D02*
X80000000Y-123500000D01*
D11*
X85500000Y-102000000D03*
D12*
X85500000Y-97000000D03*
X90500000Y-99500000D03*
D13*
X114500000Y-97810000D03*
X109500000Y-97810000D03*
D14*
X103810000Y-94000000D03*
X96190000Y-101620000D03*
X103810000Y-96540000D03*
X96190000Y-99080000D03*
X103810000Y-99080000D03*
X96190000Y-96540000D03*
X103810000Y-101620000D03*
D15*
X96190000Y-94000000D03*
D16*
X109500000Y-84750000D03*
D17*
X90500000Y-84750000D03*
D18*
X106000000Y-76750000D03*
D19*
X101900000Y-76750000D03*
X110100000Y-76750000D03*
D18*
X108000000Y-76750000D03*
X104000000Y-76750000D03*
D20*
X108000000Y-116000000D03*
X92000000Y-116000000D03*
D21*
X89880000Y-76750000D03*
D22*
X97500000Y-76750000D03*
D13*
X85500000Y-94000000D03*
X90500000Y-94000000D03*
X114500000Y-101620000D03*
X109500000Y-101620000D03*
X114500000Y-94000000D03*
X109500000Y-94000000D03*
D23*
X81775000Y-78824999D03*
X81775000Y-87624999D03*
X81775000Y-96424999D03*
X81775000Y-105224999D03*
X81775000Y-114024999D03*
X84175000Y-120424999D03*
X85775000Y-74024999D03*
X86575000Y-82824999D03*
X86575000Y-91624999D03*
X86575000Y-109224999D03*
X87375000Y-99624999D03*
X88175000Y-125224999D03*
X91375000Y-78824999D03*
X91375000Y-87624999D03*
X92175000Y-95624999D03*
X92175000Y-119624999D03*
X92975000Y-103624999D03*
X93775000Y-111624999D03*
X95375000Y-74024999D03*
X96175000Y-82824999D03*
X96175000Y-124424999D03*
X96975000Y-90824999D03*
X97775000Y-116424999D03*
X98575000Y-98024999D03*
X98575000Y-106824999D03*
X101775000Y-86024999D03*
X101775000Y-121224999D03*
X102575000Y-111624999D03*
X103375000Y-74824999D03*
X104175000Y-103624999D03*
X104975000Y-91624999D03*
X106575000Y-125224999D03*
X107375000Y-79624999D03*
X107375000Y-98024999D03*
X108175000Y-108424999D03*
X109775000Y-87624999D03*
X109775000Y-119624999D03*
X111375000Y-74024999D03*
X112175000Y-94024999D03*
X112175000Y-102824999D03*
X112175000Y-113224999D03*
X113775000Y-82024999D03*
X116175000Y-107624999D03*
X116975000Y-89224999D03*
X116975000Y-98024999D03*
X116975000Y-117224999D03*
D24*
X109500000Y-97810000D02*
X109500000Y-94000000D01*
D25*
X96190000Y-101620000D02*
X97472000Y-100338000D01*
X106972000Y-100338000D02*
X109500000Y-97810000D01*
X97472000Y-100338000D02*
X106972000Y-100338000D01*
D24*
X106000000Y-93967000D02*
X106033000Y-94000000D01*
X106033000Y-94000000D02*
X109500000Y-94000000D01*
X103810000Y-94000000D02*
X106033000Y-94000000D01*
X106033000Y-76783000D02*
X106000000Y-76750000D01*
X106033000Y-94000000D02*
X106033000Y-76783000D01*
D25*
X103810000Y-101620000D02*
X109500000Y-101620000D01*
D24*
X89880000Y-84130000D02*
X89880000Y-76750000D01*
X90500000Y-84750000D02*
X89880000Y-84130000D01*
X104000000Y-77669238D02*
X104000000Y-76750000D01*
X102738738Y-78930500D02*
X104000000Y-77669238D01*
X99680500Y-78930500D02*
X102738738Y-78930500D01*
X97500000Y-76750000D02*
X99680500Y-78930500D01*
D25*
X96190000Y-96540000D02*
X90524500Y-96540000D01*
X90524500Y-96540000D02*
X90500000Y-96515500D01*
X90500000Y-96515500D02*
X90500000Y-94000000D01*
X90500000Y-99500000D02*
X90500000Y-96515500D01*
X101270000Y-96540000D02*
X103810000Y-99080000D01*
X96190000Y-96540000D02*
X101270000Y-96540000D01*
X92000000Y-102000500D02*
X92000500Y-102000000D01*
X85500000Y-102000000D02*
X92000500Y-102000000D01*
X94920500Y-99080000D02*
X96190000Y-99080000D01*
X92000500Y-102000000D02*
X94920500Y-99080000D01*
X92000000Y-116000000D02*
X92000000Y-102000500D01*
D26*
X117093851Y-73500840D02*
X117665081Y-73673305D01*
X118191935Y-73953439D01*
X118654341Y-74330568D01*
X119034690Y-74790331D01*
X119318493Y-75315215D01*
X119494941Y-75885225D01*
X119559496Y-76499420D01*
X119559500Y-76500670D01*
X119559501Y-123478443D01*
X119499159Y-124093853D01*
X119326695Y-124665081D01*
X119046564Y-125191930D01*
X118669434Y-125654339D01*
X118209669Y-126034690D01*
X117684788Y-126318492D01*
X117114775Y-126494941D01*
X116500580Y-126559496D01*
X116499330Y-126559500D01*
X83521547Y-126559500D01*
X82906147Y-126499159D01*
X82334919Y-126326695D01*
X81808070Y-126046564D01*
X81345661Y-125669434D01*
X80965310Y-125209669D01*
X80681508Y-124684788D01*
X80505059Y-124114775D01*
X80440504Y-123500580D01*
X80440500Y-123499330D01*
X80440500Y-123311537D01*
X81586500Y-123311537D01*
X81586500Y-123688463D01*
X81660034Y-124058147D01*
X81804278Y-124406382D01*
X82013687Y-124719785D01*
X82280215Y-124986313D01*
X82593618Y-125195722D01*
X82941853Y-125339966D01*
X83311537Y-125413500D01*
X83688463Y-125413500D01*
X84058147Y-125339966D01*
X84406382Y-125195722D01*
X84719785Y-124986313D01*
X84986313Y-124719785D01*
X85195722Y-124406382D01*
X85339966Y-124058147D01*
X85413500Y-123688463D01*
X85413500Y-123311537D01*
X114586500Y-123311537D01*
X114586500Y-123688463D01*
X114660034Y-124058147D01*
X114804278Y-124406382D01*
X115013687Y-124719785D01*
X115280215Y-124986313D01*
X115593618Y-125195722D01*
X115941853Y-125339966D01*
X116311537Y-125413500D01*
X116688463Y-125413500D01*
X117058147Y-125339966D01*
X117406382Y-125195722D01*
X117719785Y-124986313D01*
X117986313Y-124719785D01*
X118195722Y-124406382D01*
X118339966Y-124058147D01*
X118413500Y-123688463D01*
X118413500Y-123311537D01*
X118339966Y-122941853D01*
X118195722Y-122593618D01*
X117986313Y-122280215D01*
X117719785Y-122013687D01*
X117406382Y-121804278D01*
X117058147Y-121660034D01*
X116688463Y-121586500D01*
X116311537Y-121586500D01*
X115941853Y-121660034D01*
X115593618Y-121804278D01*
X115280215Y-122013687D01*
X115013687Y-122280215D01*
X114804278Y-122593618D01*
X114660034Y-122941853D01*
X114586500Y-123311537D01*
X85413500Y-123311537D01*
X85339966Y-122941853D01*
X85195722Y-122593618D01*
X84986313Y-122280215D01*
X84719785Y-122013687D01*
X84406382Y-121804278D01*
X84058147Y-121660034D01*
X83688463Y-121586500D01*
X83311537Y-121586500D01*
X82941853Y-121660034D01*
X82593618Y-121804278D01*
X82280215Y-122013687D01*
X82013687Y-122280215D01*
X81804278Y-122593618D01*
X81660034Y-122941853D01*
X81586500Y-123311537D01*
X80440500Y-123311537D01*
X80440500Y-101000000D01*
X84184984Y-101000000D01*
X84184984Y-103000000D01*
X84191037Y-103061457D01*
X84208963Y-103120551D01*
X84238074Y-103175014D01*
X84277250Y-103222750D01*
X84324986Y-103261926D01*
X84379449Y-103291037D01*
X84438543Y-103308963D01*
X84500000Y-103315016D01*
X86500000Y-103315016D01*
X86561457Y-103308963D01*
X86620551Y-103291037D01*
X86675014Y-103261926D01*
X86722750Y-103222750D01*
X86761926Y-103175014D01*
X86791037Y-103120551D01*
X86808963Y-103061457D01*
X86815016Y-103000000D01*
X86815016Y-102644112D01*
X86893166Y-102608094D01*
X86995017Y-102571153D01*
X87101637Y-102542182D01*
X87213463Y-102521248D01*
X87330956Y-102508503D01*
X87392376Y-102506356D01*
X87410574Y-102504000D01*
X91496001Y-102504000D01*
X91496000Y-110184340D01*
X91492810Y-110208147D01*
X91480123Y-110570116D01*
X91433266Y-111001095D01*
X91355468Y-111415804D01*
X91246891Y-111814636D01*
X91107590Y-112198072D01*
X90937461Y-112566684D01*
X90736274Y-112920982D01*
X90503718Y-113261343D01*
X90239366Y-113588107D01*
X89986045Y-113855747D01*
X89973141Y-113871193D01*
X89717518Y-114126816D01*
X89395935Y-114608098D01*
X89174425Y-115142871D01*
X89061500Y-115710583D01*
X89061500Y-116289417D01*
X89174425Y-116857129D01*
X89395935Y-117391902D01*
X89717518Y-117873184D01*
X90126816Y-118282482D01*
X90608098Y-118604065D01*
X91142871Y-118825575D01*
X91710583Y-118938500D01*
X92289417Y-118938500D01*
X92857129Y-118825575D01*
X93391902Y-118604065D01*
X93873184Y-118282482D01*
X93911129Y-118244537D01*
X106204476Y-118244537D01*
X106531362Y-118561571D01*
X107059320Y-118798868D01*
X107623427Y-118928606D01*
X108202005Y-118945800D01*
X108772820Y-118849788D01*
X109313937Y-118644260D01*
X109468638Y-118561571D01*
X109795524Y-118244537D01*
X108000000Y-116449013D01*
X106204476Y-118244537D01*
X93911129Y-118244537D01*
X94282482Y-117873184D01*
X94604065Y-117391902D01*
X94825575Y-116857129D01*
X94938500Y-116289417D01*
X94938500Y-116202005D01*
X105054200Y-116202005D01*
X105150212Y-116772820D01*
X105355740Y-117313937D01*
X105438429Y-117468638D01*
X105755463Y-117795524D01*
X107550987Y-116000000D01*
X108449013Y-116000000D01*
X110244537Y-117795524D01*
X110561571Y-117468638D01*
X110798868Y-116940680D01*
X110928606Y-116376573D01*
X110945800Y-115797995D01*
X110849788Y-115227180D01*
X110644260Y-114686063D01*
X110561571Y-114531362D01*
X110244537Y-114204476D01*
X108449013Y-116000000D01*
X107550987Y-116000000D01*
X105755463Y-114204476D01*
X105438429Y-114531362D01*
X105201132Y-115059320D01*
X105071394Y-115623427D01*
X105054200Y-116202005D01*
X94938500Y-116202005D01*
X94938500Y-115710583D01*
X94825575Y-115142871D01*
X94604065Y-114608098D01*
X94282482Y-114126816D01*
X94022742Y-113867076D01*
X94013954Y-113855747D01*
X93919036Y-113755463D01*
X106204476Y-113755463D01*
X108000000Y-115550987D01*
X109795524Y-113755463D01*
X109468638Y-113438429D01*
X108940680Y-113201132D01*
X108376573Y-113071394D01*
X107797995Y-113054200D01*
X107227180Y-113150212D01*
X106686063Y-113355740D01*
X106531362Y-113438429D01*
X106204476Y-113755463D01*
X93919036Y-113755463D01*
X93760633Y-113588107D01*
X93496281Y-113261343D01*
X93263725Y-112920982D01*
X93062538Y-112566684D01*
X92892409Y-112198072D01*
X92753108Y-111814636D01*
X92644531Y-111415804D01*
X92566733Y-111001095D01*
X92519876Y-110570117D01*
X92507190Y-110208149D01*
X92504000Y-110183524D01*
X92504000Y-102209263D01*
X95087047Y-99626216D01*
X95116557Y-99640324D01*
X95166092Y-99669054D01*
X95219022Y-99705064D01*
X95275013Y-99748694D01*
X95333731Y-99800171D01*
X95364011Y-99829624D01*
X95370159Y-99834886D01*
X95480185Y-99944912D01*
X95662560Y-100066771D01*
X95865204Y-100150709D01*
X96080330Y-100193500D01*
X96299670Y-100193500D01*
X96514796Y-100150709D01*
X96717440Y-100066771D01*
X96899815Y-99944912D01*
X97054912Y-99789815D01*
X97176771Y-99607440D01*
X97260709Y-99404796D01*
X97303500Y-99189670D01*
X97303500Y-98970330D01*
X97260709Y-98755204D01*
X97176771Y-98552560D01*
X97054912Y-98370185D01*
X96899815Y-98215088D01*
X96717440Y-98093229D01*
X96514796Y-98009291D01*
X96299670Y-97966500D01*
X96080330Y-97966500D01*
X95865204Y-98009291D01*
X95662560Y-98093229D01*
X95480185Y-98215088D01*
X95368386Y-98326887D01*
X95364015Y-98330374D01*
X95333741Y-98359820D01*
X95275013Y-98411306D01*
X95219022Y-98454936D01*
X95166092Y-98490946D01*
X95116557Y-98519676D01*
X95070656Y-98541621D01*
X95028426Y-98557443D01*
X94989736Y-98567877D01*
X94954071Y-98573692D01*
X94937084Y-98574622D01*
X94934681Y-98574959D01*
X94920500Y-98573562D01*
X94895746Y-98576000D01*
X94821699Y-98583293D01*
X94726695Y-98612112D01*
X94639138Y-98658912D01*
X94562394Y-98721894D01*
X94546610Y-98741127D01*
X91791737Y-101496000D01*
X87409972Y-101496000D01*
X87392381Y-101493644D01*
X87330956Y-101491496D01*
X87213463Y-101478751D01*
X87101637Y-101457817D01*
X86995017Y-101428846D01*
X86893166Y-101391905D01*
X86815016Y-101355887D01*
X86815016Y-101000000D01*
X86808963Y-100938543D01*
X86791037Y-100879449D01*
X86761926Y-100824986D01*
X86722750Y-100777250D01*
X86675014Y-100738074D01*
X86620551Y-100708963D01*
X86561457Y-100691037D01*
X86500000Y-100684984D01*
X84500000Y-100684984D01*
X84438543Y-100691037D01*
X84379449Y-100708963D01*
X84324986Y-100738074D01*
X84277250Y-100777250D01*
X84238074Y-100824986D01*
X84208963Y-100879449D01*
X84191037Y-100938543D01*
X84184984Y-101000000D01*
X80440500Y-101000000D01*
X80440500Y-99370632D01*
X89186500Y-99370632D01*
X89186500Y-99629368D01*
X89236978Y-99883134D01*
X89335992Y-100122175D01*
X89479738Y-100337307D01*
X89662693Y-100520262D01*
X89877825Y-100664008D01*
X90116866Y-100763022D01*
X90370632Y-100813500D01*
X90629368Y-100813500D01*
X90883134Y-100763022D01*
X91122175Y-100664008D01*
X91337307Y-100520262D01*
X91520262Y-100337307D01*
X91664008Y-100122175D01*
X91763022Y-99883134D01*
X91813500Y-99629368D01*
X91813500Y-99370632D01*
X91763022Y-99116866D01*
X91664008Y-98877825D01*
X91520262Y-98662693D01*
X91387960Y-98530391D01*
X91379301Y-98519226D01*
X91339287Y-98476943D01*
X91268340Y-98389198D01*
X91206417Y-98298491D01*
X91153115Y-98204518D01*
X91108098Y-98106843D01*
X91071153Y-98004982D01*
X91042182Y-97898362D01*
X91021248Y-97786536D01*
X91008503Y-97669043D01*
X91006356Y-97607624D01*
X91004000Y-97589426D01*
X91004000Y-97044000D01*
X94748146Y-97044000D01*
X94760525Y-97045657D01*
X94802010Y-97047105D01*
X94880933Y-97055656D01*
X94955513Y-97069602D01*
X95026167Y-97088781D01*
X95093375Y-97113134D01*
X95157690Y-97142753D01*
X95219629Y-97177864D01*
X95279582Y-97218773D01*
X95337908Y-97265921D01*
X95366120Y-97292615D01*
X95376852Y-97301579D01*
X95480185Y-97404912D01*
X95662560Y-97526771D01*
X95865204Y-97610709D01*
X96080330Y-97653500D01*
X96299670Y-97653500D01*
X96514796Y-97610709D01*
X96717440Y-97526771D01*
X96899815Y-97404912D01*
X97006005Y-97298722D01*
X97013884Y-97292612D01*
X97042101Y-97265912D01*
X97100409Y-97218780D01*
X97160370Y-97177864D01*
X97222301Y-97142758D01*
X97286622Y-97113136D01*
X97353828Y-97088782D01*
X97424486Y-97069602D01*
X97499066Y-97055656D01*
X97577989Y-97047105D01*
X97619475Y-97045657D01*
X97632277Y-97044000D01*
X101061237Y-97044000D01*
X102434078Y-98416842D01*
X102441657Y-98426763D01*
X102469957Y-98457110D01*
X102519726Y-98518974D01*
X102562604Y-98581575D01*
X102598993Y-98645079D01*
X102629304Y-98709840D01*
X102653837Y-98776260D01*
X102672803Y-98844865D01*
X102686274Y-98916215D01*
X102694178Y-98990780D01*
X102695251Y-99029607D01*
X102696500Y-99043520D01*
X102696500Y-99189670D01*
X102739291Y-99404796D01*
X102823229Y-99607440D01*
X102945088Y-99789815D01*
X102989273Y-99834000D01*
X97496754Y-99834000D01*
X97472000Y-99831562D01*
X97373198Y-99841293D01*
X97344379Y-99850035D01*
X97278195Y-99870112D01*
X97190638Y-99916912D01*
X97113894Y-99979894D01*
X97098110Y-99999127D01*
X96853162Y-100244075D01*
X96843244Y-100251651D01*
X96812888Y-100279958D01*
X96751025Y-100329726D01*
X96688419Y-100372607D01*
X96624922Y-100408992D01*
X96560154Y-100439306D01*
X96493739Y-100463837D01*
X96425134Y-100482803D01*
X96353784Y-100496274D01*
X96279219Y-100504178D01*
X96240393Y-100505251D01*
X96226479Y-100506500D01*
X96080330Y-100506500D01*
X95865204Y-100549291D01*
X95662560Y-100633229D01*
X95480185Y-100755088D01*
X95325088Y-100910185D01*
X95203229Y-101092560D01*
X95119291Y-101295204D01*
X95076500Y-101510330D01*
X95076500Y-101729670D01*
X95119291Y-101944796D01*
X95203229Y-102147440D01*
X95325088Y-102329815D01*
X95480185Y-102484912D01*
X95662560Y-102606771D01*
X95865204Y-102690709D01*
X96080330Y-102733500D01*
X96299670Y-102733500D01*
X96514796Y-102690709D01*
X96717440Y-102606771D01*
X96899815Y-102484912D01*
X97054912Y-102329815D01*
X97176771Y-102147440D01*
X97260709Y-101944796D01*
X97303500Y-101729670D01*
X97303500Y-101579485D01*
X97304750Y-101569600D01*
X97305822Y-101530768D01*
X97313725Y-101456215D01*
X97327196Y-101384866D01*
X97346164Y-101316255D01*
X97370694Y-101249842D01*
X97401002Y-101185086D01*
X97437395Y-101121575D01*
X97480273Y-101058974D01*
X97530036Y-100997118D01*
X97558343Y-100966763D01*
X97566224Y-100956539D01*
X97680763Y-100842000D01*
X103013273Y-100842000D01*
X102945088Y-100910185D01*
X102823229Y-101092560D01*
X102739291Y-101295204D01*
X102696500Y-101510330D01*
X102696500Y-101729670D01*
X102739291Y-101944796D01*
X102823229Y-102147440D01*
X102945088Y-102329815D01*
X103100185Y-102484912D01*
X103282560Y-102606771D01*
X103485204Y-102690709D01*
X103700330Y-102733500D01*
X103919670Y-102733500D01*
X104134796Y-102690709D01*
X104337440Y-102606771D01*
X104519815Y-102484912D01*
X104626005Y-102378722D01*
X104633884Y-102372612D01*
X104662101Y-102345912D01*
X104720409Y-102298780D01*
X104780370Y-102257864D01*
X104842301Y-102222758D01*
X104906622Y-102193136D01*
X104973828Y-102168782D01*
X105044486Y-102149602D01*
X105119066Y-102135656D01*
X105197989Y-102127105D01*
X105239475Y-102125657D01*
X105252277Y-102124000D01*
X108058146Y-102124000D01*
X108070525Y-102125657D01*
X108112010Y-102127105D01*
X108190933Y-102135656D01*
X108265513Y-102149602D01*
X108336167Y-102168781D01*
X108403375Y-102193134D01*
X108467690Y-102222753D01*
X108529629Y-102257864D01*
X108589582Y-102298773D01*
X108647908Y-102345921D01*
X108676120Y-102372615D01*
X108686852Y-102381579D01*
X108790185Y-102484912D01*
X108972560Y-102606771D01*
X109175204Y-102690709D01*
X109390330Y-102733500D01*
X109609670Y-102733500D01*
X109824796Y-102690709D01*
X110027440Y-102606771D01*
X110209815Y-102484912D01*
X110295443Y-102399284D01*
X113810519Y-102399284D01*
X113894767Y-102561065D01*
X114089988Y-102661058D01*
X114300967Y-102721044D01*
X114519595Y-102738717D01*
X114737469Y-102713399D01*
X114946218Y-102646062D01*
X115105233Y-102561065D01*
X115189481Y-102399284D01*
X114500000Y-101709803D01*
X113810519Y-102399284D01*
X110295443Y-102399284D01*
X110364912Y-102329815D01*
X110486771Y-102147440D01*
X110570709Y-101944796D01*
X110613500Y-101729670D01*
X110613500Y-101639595D01*
X113381283Y-101639595D01*
X113406601Y-101857469D01*
X113473938Y-102066218D01*
X113558935Y-102225233D01*
X113720716Y-102309481D01*
X114410197Y-101620000D01*
X114589803Y-101620000D01*
X115279284Y-102309481D01*
X115441065Y-102225233D01*
X115541058Y-102030012D01*
X115601044Y-101819033D01*
X115618717Y-101600405D01*
X115593399Y-101382531D01*
X115526062Y-101173782D01*
X115441065Y-101014767D01*
X115279284Y-100930519D01*
X114589803Y-101620000D01*
X114410197Y-101620000D01*
X113720716Y-100930519D01*
X113558935Y-101014767D01*
X113458942Y-101209988D01*
X113398956Y-101420967D01*
X113381283Y-101639595D01*
X110613500Y-101639595D01*
X110613500Y-101510330D01*
X110570709Y-101295204D01*
X110486771Y-101092560D01*
X110364912Y-100910185D01*
X110295443Y-100840716D01*
X113810519Y-100840716D01*
X114500000Y-101530197D01*
X115189481Y-100840716D01*
X115105233Y-100678935D01*
X114910012Y-100578942D01*
X114699033Y-100518956D01*
X114480405Y-100501283D01*
X114262531Y-100526601D01*
X114053782Y-100593938D01*
X113894767Y-100678935D01*
X113810519Y-100840716D01*
X110295443Y-100840716D01*
X110209815Y-100755088D01*
X110027440Y-100633229D01*
X109824796Y-100549291D01*
X109609670Y-100506500D01*
X109390330Y-100506500D01*
X109175204Y-100549291D01*
X108972560Y-100633229D01*
X108790185Y-100755088D01*
X108683995Y-100861278D01*
X108676123Y-100867382D01*
X108647901Y-100894085D01*
X108589582Y-100941227D01*
X108529629Y-100982136D01*
X108467690Y-101017247D01*
X108403375Y-101046866D01*
X108336167Y-101071219D01*
X108265513Y-101090398D01*
X108190933Y-101104344D01*
X108112011Y-101112895D01*
X108070518Y-101114344D01*
X108057723Y-101116000D01*
X105251851Y-101116000D01*
X105239482Y-101114344D01*
X105197988Y-101112895D01*
X105119066Y-101104344D01*
X105044486Y-101090398D01*
X104973828Y-101071218D01*
X104906622Y-101046864D01*
X104842301Y-101017242D01*
X104780370Y-100982136D01*
X104720409Y-100941220D01*
X104662101Y-100894088D01*
X104633880Y-100867385D01*
X104623150Y-100858423D01*
X104606727Y-100842000D01*
X106947246Y-100842000D01*
X106972000Y-100844438D01*
X107009791Y-100840716D01*
X107070801Y-100834707D01*
X107165805Y-100805888D01*
X107253362Y-100759088D01*
X107330106Y-100696106D01*
X107345890Y-100676873D01*
X108836842Y-99185922D01*
X108846763Y-99178343D01*
X108877118Y-99150036D01*
X108938974Y-99100273D01*
X109001575Y-99057395D01*
X109065086Y-99021002D01*
X109129842Y-98990694D01*
X109196255Y-98966164D01*
X109264866Y-98947196D01*
X109336215Y-98933725D01*
X109410768Y-98925822D01*
X109449600Y-98924750D01*
X109463522Y-98923500D01*
X109609670Y-98923500D01*
X109824796Y-98880709D01*
X110027440Y-98796771D01*
X110209815Y-98674912D01*
X110295443Y-98589284D01*
X113810519Y-98589284D01*
X113894767Y-98751065D01*
X114089988Y-98851058D01*
X114300967Y-98911044D01*
X114519595Y-98928717D01*
X114737469Y-98903399D01*
X114946218Y-98836062D01*
X115105233Y-98751065D01*
X115189481Y-98589284D01*
X114500000Y-97899803D01*
X113810519Y-98589284D01*
X110295443Y-98589284D01*
X110364912Y-98519815D01*
X110486771Y-98337440D01*
X110570709Y-98134796D01*
X110613500Y-97919670D01*
X110613500Y-97829595D01*
X113381283Y-97829595D01*
X113406601Y-98047469D01*
X113473938Y-98256218D01*
X113558935Y-98415233D01*
X113720716Y-98499481D01*
X114410197Y-97810000D01*
X114589803Y-97810000D01*
X115279284Y-98499481D01*
X115441065Y-98415233D01*
X115541058Y-98220012D01*
X115601044Y-98009033D01*
X115618717Y-97790405D01*
X115593399Y-97572531D01*
X115526062Y-97363782D01*
X115441065Y-97204767D01*
X115279284Y-97120519D01*
X114589803Y-97810000D01*
X114410197Y-97810000D01*
X113720716Y-97120519D01*
X113558935Y-97204767D01*
X113458942Y-97399988D01*
X113398956Y-97610967D01*
X113381283Y-97829595D01*
X110613500Y-97829595D01*
X110613500Y-97700330D01*
X110570709Y-97485204D01*
X110486771Y-97282560D01*
X110364912Y-97100185D01*
X110295443Y-97030716D01*
X113810519Y-97030716D01*
X114500000Y-97720197D01*
X115189481Y-97030716D01*
X115105233Y-96868935D01*
X114910012Y-96768942D01*
X114699033Y-96708956D01*
X114480405Y-96691283D01*
X114262531Y-96716601D01*
X114053782Y-96783938D01*
X113894767Y-96868935D01*
X113810519Y-97030716D01*
X110295443Y-97030716D01*
X110274475Y-97009748D01*
X110271680Y-97006110D01*
X110263898Y-96997811D01*
X110250284Y-96980532D01*
X110238430Y-96962439D01*
X110228011Y-96943036D01*
X110218827Y-96921723D01*
X110210856Y-96897950D01*
X110204208Y-96871209D01*
X110199103Y-96841113D01*
X110195814Y-96807365D01*
X110195243Y-96788990D01*
X110194500Y-96782904D01*
X110194500Y-95026733D01*
X110195244Y-95021010D01*
X110195816Y-95002619D01*
X110199103Y-94968888D01*
X110204208Y-94938791D01*
X110210855Y-94912054D01*
X110218830Y-94888268D01*
X110228010Y-94866966D01*
X110238435Y-94847553D01*
X110250286Y-94829465D01*
X110263892Y-94812195D01*
X110271673Y-94803898D01*
X110273955Y-94800772D01*
X110295443Y-94779284D01*
X113810519Y-94779284D01*
X113894767Y-94941065D01*
X114089988Y-95041058D01*
X114300967Y-95101044D01*
X114519595Y-95118717D01*
X114737469Y-95093399D01*
X114946218Y-95026062D01*
X115105233Y-94941065D01*
X115189481Y-94779284D01*
X114500000Y-94089803D01*
X113810519Y-94779284D01*
X110295443Y-94779284D01*
X110364912Y-94709815D01*
X110486771Y-94527440D01*
X110570709Y-94324796D01*
X110613500Y-94109670D01*
X110613500Y-94019595D01*
X113381283Y-94019595D01*
X113406601Y-94237469D01*
X113473938Y-94446218D01*
X113558935Y-94605233D01*
X113720716Y-94689481D01*
X114410197Y-94000000D01*
X114589803Y-94000000D01*
X115279284Y-94689481D01*
X115441065Y-94605233D01*
X115541058Y-94410012D01*
X115601044Y-94199033D01*
X115618717Y-93980405D01*
X115593399Y-93762531D01*
X115526062Y-93553782D01*
X115441065Y-93394767D01*
X115279284Y-93310519D01*
X114589803Y-94000000D01*
X114410197Y-94000000D01*
X113720716Y-93310519D01*
X113558935Y-93394767D01*
X113458942Y-93589988D01*
X113398956Y-93800967D01*
X113381283Y-94019595D01*
X110613500Y-94019595D01*
X110613500Y-93890330D01*
X110570709Y-93675204D01*
X110486771Y-93472560D01*
X110364912Y-93290185D01*
X110295443Y-93220716D01*
X113810519Y-93220716D01*
X114500000Y-93910197D01*
X115189481Y-93220716D01*
X115105233Y-93058935D01*
X114910012Y-92958942D01*
X114699033Y-92898956D01*
X114480405Y-92881283D01*
X114262531Y-92906601D01*
X114053782Y-92973938D01*
X113894767Y-93058935D01*
X113810519Y-93220716D01*
X110295443Y-93220716D01*
X110209815Y-93135088D01*
X110027440Y-93013229D01*
X109824796Y-92929291D01*
X109609670Y-92886500D01*
X109390330Y-92886500D01*
X109175204Y-92929291D01*
X108972560Y-93013229D01*
X108790185Y-93135088D01*
X108699748Y-93225525D01*
X108696110Y-93228320D01*
X108687818Y-93236096D01*
X108670532Y-93249715D01*
X108652439Y-93261569D01*
X108633036Y-93271988D01*
X108611723Y-93281172D01*
X108587950Y-93289143D01*
X108561209Y-93295791D01*
X108531112Y-93300896D01*
X108497367Y-93304184D01*
X108478978Y-93304757D01*
X108472894Y-93305500D01*
X106727500Y-93305500D01*
X106727500Y-86250000D01*
X107684983Y-86250000D01*
X107691036Y-86311457D01*
X107708962Y-86370552D01*
X107738073Y-86425014D01*
X107777249Y-86472751D01*
X107824986Y-86511927D01*
X107879448Y-86541038D01*
X107938543Y-86558964D01*
X108000000Y-86565017D01*
X109231125Y-86563500D01*
X109309500Y-86485125D01*
X109309500Y-84940500D01*
X109690500Y-84940500D01*
X109690500Y-86485125D01*
X109768875Y-86563500D01*
X111000000Y-86565017D01*
X111061457Y-86558964D01*
X111120552Y-86541038D01*
X111175014Y-86511927D01*
X111222751Y-86472751D01*
X111261927Y-86425014D01*
X111291038Y-86370552D01*
X111308964Y-86311457D01*
X111315017Y-86250000D01*
X111313500Y-85018875D01*
X111235125Y-84940500D01*
X109690500Y-84940500D01*
X109309500Y-84940500D01*
X107764875Y-84940500D01*
X107686500Y-85018875D01*
X107684983Y-86250000D01*
X106727500Y-86250000D01*
X106727500Y-84632943D01*
X115311500Y-84632943D01*
X115311500Y-84867057D01*
X115357173Y-85096673D01*
X115446765Y-85312966D01*
X115576831Y-85507625D01*
X115742375Y-85673169D01*
X115937034Y-85803235D01*
X116153327Y-85892827D01*
X116382943Y-85938500D01*
X116617057Y-85938500D01*
X116846673Y-85892827D01*
X117062966Y-85803235D01*
X117257625Y-85673169D01*
X117423169Y-85507625D01*
X117553235Y-85312966D01*
X117642827Y-85096673D01*
X117688500Y-84867057D01*
X117688500Y-84632943D01*
X117642827Y-84403327D01*
X117553235Y-84187034D01*
X117423169Y-83992375D01*
X117257625Y-83826831D01*
X117062966Y-83696765D01*
X116846673Y-83607173D01*
X116617057Y-83561500D01*
X116382943Y-83561500D01*
X116153327Y-83607173D01*
X115937034Y-83696765D01*
X115742375Y-83826831D01*
X115576831Y-83992375D01*
X115446765Y-84187034D01*
X115357173Y-84403327D01*
X115311500Y-84632943D01*
X106727500Y-84632943D01*
X106727500Y-83250000D01*
X107684983Y-83250000D01*
X107686500Y-84481125D01*
X107764875Y-84559500D01*
X109309500Y-84559500D01*
X109309500Y-83014875D01*
X109690500Y-83014875D01*
X109690500Y-84559500D01*
X111235125Y-84559500D01*
X111313500Y-84481125D01*
X111315017Y-83250000D01*
X111308964Y-83188543D01*
X111291038Y-83129448D01*
X111261927Y-83074986D01*
X111222751Y-83027249D01*
X111175014Y-82988073D01*
X111120552Y-82958962D01*
X111061457Y-82941036D01*
X111000000Y-82934983D01*
X109768875Y-82936500D01*
X109690500Y-83014875D01*
X109309500Y-83014875D01*
X109231125Y-82936500D01*
X108000000Y-82934983D01*
X107938543Y-82941036D01*
X107879448Y-82958962D01*
X107824986Y-82988073D01*
X107777249Y-83027249D01*
X107738073Y-83074986D01*
X107708962Y-83129448D01*
X107691036Y-83188543D01*
X107684983Y-83250000D01*
X106727500Y-83250000D01*
X106727500Y-77385094D01*
X106748399Y-77364195D01*
X106853843Y-77206388D01*
X106926473Y-77031043D01*
X106963500Y-76844896D01*
X106963500Y-76655104D01*
X107036500Y-76655104D01*
X107036500Y-76844896D01*
X107073527Y-77031043D01*
X107146157Y-77206388D01*
X107251601Y-77364195D01*
X107385805Y-77498399D01*
X107543612Y-77603843D01*
X107718957Y-77676473D01*
X107905104Y-77713500D01*
X108094896Y-77713500D01*
X108281043Y-77676473D01*
X108456388Y-77603843D01*
X108614195Y-77498399D01*
X108748399Y-77364195D01*
X108778640Y-77318936D01*
X108825218Y-77431385D01*
X108982644Y-77666990D01*
X109183010Y-77867356D01*
X109418615Y-78024782D01*
X109680405Y-78133219D01*
X109958320Y-78188500D01*
X110241680Y-78188500D01*
X110519595Y-78133219D01*
X110781385Y-78024782D01*
X111016990Y-77867356D01*
X111217356Y-77666990D01*
X111374782Y-77431385D01*
X111483219Y-77169595D01*
X111538500Y-76891680D01*
X111538500Y-76608320D01*
X111483219Y-76330405D01*
X111475404Y-76311537D01*
X114586500Y-76311537D01*
X114586500Y-76688463D01*
X114660034Y-77058147D01*
X114804278Y-77406382D01*
X115013687Y-77719785D01*
X115280215Y-77986313D01*
X115593618Y-78195722D01*
X115941853Y-78339966D01*
X116311537Y-78413500D01*
X116688463Y-78413500D01*
X117058147Y-78339966D01*
X117406382Y-78195722D01*
X117719785Y-77986313D01*
X117986313Y-77719785D01*
X118195722Y-77406382D01*
X118339966Y-77058147D01*
X118413500Y-76688463D01*
X118413500Y-76311537D01*
X118339966Y-75941853D01*
X118195722Y-75593618D01*
X117986313Y-75280215D01*
X117719785Y-75013687D01*
X117406382Y-74804278D01*
X117058147Y-74660034D01*
X116688463Y-74586500D01*
X116311537Y-74586500D01*
X115941853Y-74660034D01*
X115593618Y-74804278D01*
X115280215Y-75013687D01*
X115013687Y-75280215D01*
X114804278Y-75593618D01*
X114660034Y-75941853D01*
X114586500Y-76311537D01*
X111475404Y-76311537D01*
X111374782Y-76068615D01*
X111217356Y-75833010D01*
X111016990Y-75632644D01*
X110781385Y-75475218D01*
X110519595Y-75366781D01*
X110241680Y-75311500D01*
X109958320Y-75311500D01*
X109680405Y-75366781D01*
X109418615Y-75475218D01*
X109183010Y-75632644D01*
X108982644Y-75833010D01*
X108825218Y-76068615D01*
X108778640Y-76181064D01*
X108748399Y-76135805D01*
X108614195Y-76001601D01*
X108456388Y-75896157D01*
X108281043Y-75823527D01*
X108094896Y-75786500D01*
X107905104Y-75786500D01*
X107718957Y-75823527D01*
X107543612Y-75896157D01*
X107385805Y-76001601D01*
X107251601Y-76135805D01*
X107146157Y-76293612D01*
X107073527Y-76468957D01*
X107036500Y-76655104D01*
X106963500Y-76655104D01*
X106926473Y-76468957D01*
X106853843Y-76293612D01*
X106748399Y-76135805D01*
X106614195Y-76001601D01*
X106456388Y-75896157D01*
X106281043Y-75823527D01*
X106094896Y-75786500D01*
X105905104Y-75786500D01*
X105718957Y-75823527D01*
X105543612Y-75896157D01*
X105385805Y-76001601D01*
X105251601Y-76135805D01*
X105146157Y-76293612D01*
X105073527Y-76468957D01*
X105036500Y-76655104D01*
X105036500Y-76844896D01*
X105073527Y-77031043D01*
X105146157Y-77206388D01*
X105251601Y-77364195D01*
X105299205Y-77411799D01*
X105305253Y-77432867D01*
X105312320Y-77463131D01*
X105319641Y-77501354D01*
X105326834Y-77546939D01*
X105333642Y-77599275D01*
X105336772Y-77628547D01*
X105338501Y-77638154D01*
X105338500Y-93305500D01*
X104836736Y-93305500D01*
X104831022Y-93304757D01*
X104812632Y-93304184D01*
X104778890Y-93300897D01*
X104748791Y-93295791D01*
X104722054Y-93289144D01*
X104698268Y-93281169D01*
X104676966Y-93271989D01*
X104657553Y-93261564D01*
X104639465Y-93249713D01*
X104622189Y-93236102D01*
X104613898Y-93228327D01*
X104610772Y-93226045D01*
X104519815Y-93135088D01*
X104337440Y-93013229D01*
X104134796Y-92929291D01*
X103919670Y-92886500D01*
X103700330Y-92886500D01*
X103485204Y-92929291D01*
X103282560Y-93013229D01*
X103100185Y-93135088D01*
X102945088Y-93290185D01*
X102823229Y-93472560D01*
X102739291Y-93675204D01*
X102696500Y-93890330D01*
X102696500Y-94109670D01*
X102739291Y-94324796D01*
X102823229Y-94527440D01*
X102945088Y-94709815D01*
X103100185Y-94864912D01*
X103282560Y-94986771D01*
X103485204Y-95070709D01*
X103700330Y-95113500D01*
X103919670Y-95113500D01*
X104134796Y-95070709D01*
X104337440Y-94986771D01*
X104519815Y-94864912D01*
X104610255Y-94774472D01*
X104613898Y-94771673D01*
X104622195Y-94763892D01*
X104639465Y-94750286D01*
X104657553Y-94738435D01*
X104676966Y-94728010D01*
X104698268Y-94718830D01*
X104722054Y-94710855D01*
X104748791Y-94704208D01*
X104778888Y-94699103D01*
X104812619Y-94695816D01*
X104831010Y-94695244D01*
X104837103Y-94694500D01*
X105998885Y-94694500D01*
X106012247Y-94695816D01*
X106032999Y-94697860D01*
X106033000Y-94697860D01*
X106067115Y-94694500D01*
X108473274Y-94694500D01*
X108478990Y-94695243D01*
X108497365Y-94695814D01*
X108531113Y-94699103D01*
X108561209Y-94704208D01*
X108587950Y-94710856D01*
X108611723Y-94718827D01*
X108633036Y-94728011D01*
X108652439Y-94738430D01*
X108670532Y-94750284D01*
X108687811Y-94763898D01*
X108696110Y-94771680D01*
X108699232Y-94773959D01*
X108725528Y-94800255D01*
X108728327Y-94803898D01*
X108736102Y-94812189D01*
X108749713Y-94829465D01*
X108761564Y-94847553D01*
X108771989Y-94866966D01*
X108781169Y-94888268D01*
X108789144Y-94912054D01*
X108795791Y-94938791D01*
X108800897Y-94968890D01*
X108804184Y-95002632D01*
X108804757Y-95021022D01*
X108805501Y-95027112D01*
X108805500Y-96783261D01*
X108804757Y-96788978D01*
X108804184Y-96807367D01*
X108800896Y-96841112D01*
X108795791Y-96871209D01*
X108789143Y-96897950D01*
X108781172Y-96921723D01*
X108771988Y-96943036D01*
X108761569Y-96962439D01*
X108749715Y-96980532D01*
X108736096Y-96997818D01*
X108728320Y-97006110D01*
X108726041Y-97009232D01*
X108635088Y-97100185D01*
X108513229Y-97282560D01*
X108429291Y-97485204D01*
X108386500Y-97700330D01*
X108386500Y-97850517D01*
X108385251Y-97860393D01*
X108384178Y-97899219D01*
X108376274Y-97973784D01*
X108362803Y-98045134D01*
X108343837Y-98113739D01*
X108319306Y-98180154D01*
X108288992Y-98244922D01*
X108252607Y-98308419D01*
X108209726Y-98371025D01*
X108159958Y-98432888D01*
X108131651Y-98463244D01*
X108123776Y-98473460D01*
X106763237Y-99834000D01*
X104630727Y-99834000D01*
X104674912Y-99789815D01*
X104796771Y-99607440D01*
X104880709Y-99404796D01*
X104923500Y-99189670D01*
X104923500Y-98970330D01*
X104880709Y-98755204D01*
X104796771Y-98552560D01*
X104674912Y-98370185D01*
X104519815Y-98215088D01*
X104337440Y-98093229D01*
X104134796Y-98009291D01*
X103919670Y-97966500D01*
X103769483Y-97966500D01*
X103759607Y-97965251D01*
X103720780Y-97964178D01*
X103646215Y-97956274D01*
X103574865Y-97942803D01*
X103506260Y-97923837D01*
X103439840Y-97899304D01*
X103375079Y-97868993D01*
X103311575Y-97832604D01*
X103248974Y-97789726D01*
X103187110Y-97739957D01*
X103156763Y-97711657D01*
X103146542Y-97703778D01*
X101873094Y-96430330D01*
X102696500Y-96430330D01*
X102696500Y-96649670D01*
X102739291Y-96864796D01*
X102823229Y-97067440D01*
X102945088Y-97249815D01*
X103100185Y-97404912D01*
X103282560Y-97526771D01*
X103485204Y-97610709D01*
X103700330Y-97653500D01*
X103919670Y-97653500D01*
X104134796Y-97610709D01*
X104337440Y-97526771D01*
X104519815Y-97404912D01*
X104674912Y-97249815D01*
X104796771Y-97067440D01*
X104880709Y-96864796D01*
X104923500Y-96649670D01*
X104923500Y-96430330D01*
X104880709Y-96215204D01*
X104796771Y-96012560D01*
X104674912Y-95830185D01*
X104519815Y-95675088D01*
X104337440Y-95553229D01*
X104134796Y-95469291D01*
X103919670Y-95426500D01*
X103700330Y-95426500D01*
X103485204Y-95469291D01*
X103282560Y-95553229D01*
X103100185Y-95675088D01*
X102945088Y-95830185D01*
X102823229Y-96012560D01*
X102739291Y-96215204D01*
X102696500Y-96430330D01*
X101873094Y-96430330D01*
X101643890Y-96201127D01*
X101628106Y-96181894D01*
X101551362Y-96118912D01*
X101463805Y-96072112D01*
X101368801Y-96043293D01*
X101294754Y-96036000D01*
X101270000Y-96033562D01*
X101245246Y-96036000D01*
X97631851Y-96036000D01*
X97619482Y-96034344D01*
X97577988Y-96032895D01*
X97499066Y-96024344D01*
X97424486Y-96010398D01*
X97353828Y-95991218D01*
X97286622Y-95966864D01*
X97222301Y-95937242D01*
X97160370Y-95902136D01*
X97100409Y-95861220D01*
X97042101Y-95814088D01*
X97013880Y-95787385D01*
X97003150Y-95778423D01*
X96899815Y-95675088D01*
X96717440Y-95553229D01*
X96514796Y-95469291D01*
X96299670Y-95426500D01*
X96080330Y-95426500D01*
X95865204Y-95469291D01*
X95662560Y-95553229D01*
X95480185Y-95675088D01*
X95373995Y-95781278D01*
X95366123Y-95787382D01*
X95337901Y-95814085D01*
X95279582Y-95861227D01*
X95219629Y-95902136D01*
X95157690Y-95937247D01*
X95093375Y-95966866D01*
X95026167Y-95991219D01*
X94955513Y-96010398D01*
X94880933Y-96024344D01*
X94802011Y-96032895D01*
X94760518Y-96034344D01*
X94747723Y-96036000D01*
X91004000Y-96036000D01*
X91004000Y-95441854D01*
X91005657Y-95429475D01*
X91007105Y-95387989D01*
X91015656Y-95309066D01*
X91029602Y-95234486D01*
X91048782Y-95163828D01*
X91073136Y-95096622D01*
X91102758Y-95032301D01*
X91137864Y-94970370D01*
X91178780Y-94910409D01*
X91225912Y-94852101D01*
X91252612Y-94823884D01*
X91261580Y-94813147D01*
X91274727Y-94800000D01*
X95074983Y-94800000D01*
X95081036Y-94861457D01*
X95098962Y-94920552D01*
X95128073Y-94975014D01*
X95167249Y-95022751D01*
X95214986Y-95061927D01*
X95269448Y-95091038D01*
X95328543Y-95108964D01*
X95390000Y-95115017D01*
X96048125Y-95113500D01*
X96126500Y-95035125D01*
X96126500Y-94063500D01*
X96253500Y-94063500D01*
X96253500Y-95035125D01*
X96331875Y-95113500D01*
X96990000Y-95115017D01*
X97051457Y-95108964D01*
X97110552Y-95091038D01*
X97165014Y-95061927D01*
X97212751Y-95022751D01*
X97251927Y-94975014D01*
X97281038Y-94920552D01*
X97298964Y-94861457D01*
X97305017Y-94800000D01*
X97303500Y-94141875D01*
X97225125Y-94063500D01*
X96253500Y-94063500D01*
X96126500Y-94063500D01*
X95154875Y-94063500D01*
X95076500Y-94141875D01*
X95074983Y-94800000D01*
X91274727Y-94800000D01*
X91364912Y-94709815D01*
X91486771Y-94527440D01*
X91570709Y-94324796D01*
X91613500Y-94109670D01*
X91613500Y-93890330D01*
X91570709Y-93675204D01*
X91486771Y-93472560D01*
X91364912Y-93290185D01*
X91274727Y-93200000D01*
X95074983Y-93200000D01*
X95076500Y-93858125D01*
X95154875Y-93936500D01*
X96126500Y-93936500D01*
X96126500Y-92964875D01*
X96253500Y-92964875D01*
X96253500Y-93936500D01*
X97225125Y-93936500D01*
X97303500Y-93858125D01*
X97305017Y-93200000D01*
X97298964Y-93138543D01*
X97281038Y-93079448D01*
X97251927Y-93024986D01*
X97212751Y-92977249D01*
X97165014Y-92938073D01*
X97110552Y-92908962D01*
X97051457Y-92891036D01*
X96990000Y-92884983D01*
X96331875Y-92886500D01*
X96253500Y-92964875D01*
X96126500Y-92964875D01*
X96048125Y-92886500D01*
X95390000Y-92884983D01*
X95328543Y-92891036D01*
X95269448Y-92908962D01*
X95214986Y-92938073D01*
X95167249Y-92977249D01*
X95128073Y-93024986D01*
X95098962Y-93079448D01*
X95081036Y-93138543D01*
X95074983Y-93200000D01*
X91274727Y-93200000D01*
X91209815Y-93135088D01*
X91027440Y-93013229D01*
X90824796Y-92929291D01*
X90609670Y-92886500D01*
X90390330Y-92886500D01*
X90175204Y-92929291D01*
X89972560Y-93013229D01*
X89790185Y-93135088D01*
X89635088Y-93290185D01*
X89513229Y-93472560D01*
X89429291Y-93675204D01*
X89386500Y-93890330D01*
X89386500Y-94109670D01*
X89429291Y-94324796D01*
X89513229Y-94527440D01*
X89635088Y-94709815D01*
X89741280Y-94816007D01*
X89747385Y-94823880D01*
X89774088Y-94852101D01*
X89821220Y-94910409D01*
X89862136Y-94970370D01*
X89897242Y-95032301D01*
X89926864Y-95096622D01*
X89951218Y-95163828D01*
X89970398Y-95234486D01*
X89984344Y-95309066D01*
X89992895Y-95387988D01*
X89994344Y-95429482D01*
X89996000Y-95442280D01*
X89996000Y-96490746D01*
X89993562Y-96515500D01*
X89996001Y-96540264D01*
X89996001Y-97590023D01*
X89993644Y-97607619D01*
X89991496Y-97669043D01*
X89978751Y-97786536D01*
X89957817Y-97898362D01*
X89928846Y-98004982D01*
X89891901Y-98106843D01*
X89846884Y-98204518D01*
X89793582Y-98298491D01*
X89731659Y-98389198D01*
X89660706Y-98476950D01*
X89620697Y-98519229D01*
X89607989Y-98534442D01*
X89479738Y-98662693D01*
X89335992Y-98877825D01*
X89236978Y-99116866D01*
X89186500Y-99370632D01*
X80440500Y-99370632D01*
X80440500Y-96870632D01*
X84186500Y-96870632D01*
X84186500Y-97129368D01*
X84236978Y-97383134D01*
X84335992Y-97622175D01*
X84479738Y-97837307D01*
X84662693Y-98020262D01*
X84877825Y-98164008D01*
X85116866Y-98263022D01*
X85370632Y-98313500D01*
X85629368Y-98313500D01*
X85883134Y-98263022D01*
X86122175Y-98164008D01*
X86337307Y-98020262D01*
X86520262Y-97837307D01*
X86664008Y-97622175D01*
X86763022Y-97383134D01*
X86813500Y-97129368D01*
X86813500Y-96870632D01*
X86763022Y-96616866D01*
X86664008Y-96377825D01*
X86520262Y-96162693D01*
X86337307Y-95979738D01*
X86122175Y-95835992D01*
X85883134Y-95736978D01*
X85629368Y-95686500D01*
X85370632Y-95686500D01*
X85116866Y-95736978D01*
X84877825Y-95835992D01*
X84662693Y-95979738D01*
X84479738Y-96162693D01*
X84335992Y-96377825D01*
X84236978Y-96616866D01*
X84186500Y-96870632D01*
X80440500Y-96870632D01*
X80440500Y-94779284D01*
X84810519Y-94779284D01*
X84894767Y-94941065D01*
X85089988Y-95041058D01*
X85300967Y-95101044D01*
X85519595Y-95118717D01*
X85737469Y-95093399D01*
X85946218Y-95026062D01*
X86105233Y-94941065D01*
X86189481Y-94779284D01*
X85500000Y-94089803D01*
X84810519Y-94779284D01*
X80440500Y-94779284D01*
X80440500Y-94019595D01*
X84381283Y-94019595D01*
X84406601Y-94237469D01*
X84473938Y-94446218D01*
X84558935Y-94605233D01*
X84720716Y-94689481D01*
X85410197Y-94000000D01*
X85589803Y-94000000D01*
X86279284Y-94689481D01*
X86441065Y-94605233D01*
X86541058Y-94410012D01*
X86601044Y-94199033D01*
X86618717Y-93980405D01*
X86593399Y-93762531D01*
X86526062Y-93553782D01*
X86441065Y-93394767D01*
X86279284Y-93310519D01*
X85589803Y-94000000D01*
X85410197Y-94000000D01*
X84720716Y-93310519D01*
X84558935Y-93394767D01*
X84458942Y-93589988D01*
X84398956Y-93800967D01*
X84381283Y-94019595D01*
X80440500Y-94019595D01*
X80440500Y-93220716D01*
X84810519Y-93220716D01*
X85500000Y-93910197D01*
X86189481Y-93220716D01*
X86105233Y-93058935D01*
X85910012Y-92958942D01*
X85699033Y-92898956D01*
X85480405Y-92881283D01*
X85262531Y-92906601D01*
X85053782Y-92973938D01*
X84894767Y-93058935D01*
X84810519Y-93220716D01*
X80440500Y-93220716D01*
X80440500Y-84632943D01*
X82311500Y-84632943D01*
X82311500Y-84867057D01*
X82357173Y-85096673D01*
X82446765Y-85312966D01*
X82576831Y-85507625D01*
X82742375Y-85673169D01*
X82937034Y-85803235D01*
X83153327Y-85892827D01*
X83382943Y-85938500D01*
X83617057Y-85938500D01*
X83846673Y-85892827D01*
X84062966Y-85803235D01*
X84257625Y-85673169D01*
X84423169Y-85507625D01*
X84553235Y-85312966D01*
X84642827Y-85096673D01*
X84688500Y-84867057D01*
X84688500Y-84632943D01*
X84642827Y-84403327D01*
X84553235Y-84187034D01*
X84423169Y-83992375D01*
X84257625Y-83826831D01*
X84062966Y-83696765D01*
X83846673Y-83607173D01*
X83617057Y-83561500D01*
X83382943Y-83561500D01*
X83153327Y-83607173D01*
X82937034Y-83696765D01*
X82742375Y-83826831D01*
X82576831Y-83992375D01*
X82446765Y-84187034D01*
X82357173Y-84403327D01*
X82311500Y-84632943D01*
X80440500Y-84632943D01*
X80440500Y-76521547D01*
X80461091Y-76311537D01*
X81586500Y-76311537D01*
X81586500Y-76688463D01*
X81660034Y-77058147D01*
X81804278Y-77406382D01*
X82013687Y-77719785D01*
X82280215Y-77986313D01*
X82593618Y-78195722D01*
X82941853Y-78339966D01*
X83311537Y-78413500D01*
X83688463Y-78413500D01*
X84058147Y-78339966D01*
X84406382Y-78195722D01*
X84719785Y-77986313D01*
X84986313Y-77719785D01*
X85195722Y-77406382D01*
X85339966Y-77058147D01*
X85413500Y-76688463D01*
X85413500Y-76610782D01*
X88466500Y-76610782D01*
X88466500Y-76889218D01*
X88520820Y-77162303D01*
X88627373Y-77419543D01*
X88782063Y-77651054D01*
X88912778Y-77781769D01*
X88919207Y-77790062D01*
X88947721Y-77820206D01*
X88998134Y-77882633D01*
X89041955Y-77946951D01*
X89079595Y-78013489D01*
X89111376Y-78082674D01*
X89137519Y-78155031D01*
X89158088Y-78231062D01*
X89173041Y-78311332D01*
X89182194Y-78396170D01*
X89183744Y-78440744D01*
X89185501Y-78454331D01*
X89185500Y-83499823D01*
X89091362Y-83593961D01*
X88892897Y-83890986D01*
X88756192Y-84221021D01*
X88686500Y-84571386D01*
X88686500Y-84928614D01*
X88756192Y-85278979D01*
X88892897Y-85609014D01*
X89091362Y-85906039D01*
X89343961Y-86158638D01*
X89640986Y-86357103D01*
X89971021Y-86493808D01*
X90321386Y-86563500D01*
X90678614Y-86563500D01*
X91028979Y-86493808D01*
X91359014Y-86357103D01*
X91656039Y-86158638D01*
X91908638Y-85906039D01*
X92107103Y-85609014D01*
X92243808Y-85278979D01*
X92313500Y-84928614D01*
X92313500Y-84571386D01*
X92243808Y-84221021D01*
X92107103Y-83890986D01*
X91908638Y-83593961D01*
X91734912Y-83420235D01*
X91726101Y-83408902D01*
X91651260Y-83330005D01*
X91531289Y-83185570D01*
X91410016Y-83021145D01*
X91287877Y-82836710D01*
X91165231Y-82632310D01*
X91042416Y-82408106D01*
X90919633Y-82164148D01*
X90797077Y-81900559D01*
X90674882Y-81617408D01*
X90577068Y-81374213D01*
X90574500Y-81368654D01*
X90574500Y-78453873D01*
X90576256Y-78440739D01*
X90577805Y-78396170D01*
X90586958Y-78311330D01*
X90601911Y-78231062D01*
X90622480Y-78155031D01*
X90648623Y-78082674D01*
X90680404Y-78013489D01*
X90718044Y-77946951D01*
X90761865Y-77882633D01*
X90812278Y-77820206D01*
X90840790Y-77790065D01*
X90850223Y-77778768D01*
X90977937Y-77651054D01*
X91132627Y-77419543D01*
X91239180Y-77162303D01*
X91293500Y-76889218D01*
X91293500Y-76610782D01*
X91239180Y-76337697D01*
X91132627Y-76080457D01*
X90977937Y-75848946D01*
X90781054Y-75652063D01*
X90777967Y-75650000D01*
X96084984Y-75650000D01*
X96084984Y-77850000D01*
X96091037Y-77911457D01*
X96108963Y-77970551D01*
X96138074Y-78025014D01*
X96177250Y-78072750D01*
X96224986Y-78111926D01*
X96279449Y-78141037D01*
X96338543Y-78158963D01*
X96400000Y-78165016D01*
X97563207Y-78165016D01*
X97597527Y-78165970D01*
X97677313Y-78174464D01*
X97753779Y-78188957D01*
X97827441Y-78209390D01*
X97898854Y-78235846D01*
X97968485Y-78268516D01*
X98036812Y-78307746D01*
X98104121Y-78353915D01*
X98170599Y-78407445D01*
X98203208Y-78437863D01*
X98214058Y-78446228D01*
X99165287Y-79397458D01*
X99187038Y-79423962D01*
X99292790Y-79510749D01*
X99413441Y-79575239D01*
X99544354Y-79614951D01*
X99646385Y-79625000D01*
X99646387Y-79625000D01*
X99680500Y-79628360D01*
X99714612Y-79625000D01*
X102704626Y-79625000D01*
X102738738Y-79628360D01*
X102772850Y-79625000D01*
X102772853Y-79625000D01*
X102874884Y-79614951D01*
X103005797Y-79575239D01*
X103126448Y-79510749D01*
X103232200Y-79423962D01*
X103253955Y-79397453D01*
X104466963Y-78184446D01*
X104493461Y-78162700D01*
X104541516Y-78104145D01*
X104580249Y-78056949D01*
X104618005Y-77986313D01*
X104644739Y-77936297D01*
X104684451Y-77805384D01*
X104694500Y-77703353D01*
X104694500Y-77703351D01*
X104697860Y-77669238D01*
X104694500Y-77635126D01*
X104694500Y-77572372D01*
X104694846Y-77569258D01*
X104695161Y-77544022D01*
X104696988Y-77499105D01*
X104699833Y-77460740D01*
X104703423Y-77429452D01*
X104707283Y-77406019D01*
X104707492Y-77405102D01*
X104748399Y-77364195D01*
X104853843Y-77206388D01*
X104926473Y-77031043D01*
X104963500Y-76844896D01*
X104963500Y-76655104D01*
X104926473Y-76468957D01*
X104853843Y-76293612D01*
X104748399Y-76135805D01*
X104614195Y-76001601D01*
X104456388Y-75896157D01*
X104281043Y-75823527D01*
X104094896Y-75786500D01*
X103905104Y-75786500D01*
X103718957Y-75823527D01*
X103543612Y-75896157D01*
X103385805Y-76001601D01*
X103251601Y-76135805D01*
X103221360Y-76181064D01*
X103174782Y-76068615D01*
X103017356Y-75833010D01*
X102816990Y-75632644D01*
X102581385Y-75475218D01*
X102319595Y-75366781D01*
X102041680Y-75311500D01*
X101758320Y-75311500D01*
X101480405Y-75366781D01*
X101218615Y-75475218D01*
X100983010Y-75632644D01*
X100782644Y-75833010D01*
X100625218Y-76068615D01*
X100516781Y-76330405D01*
X100461500Y-76608320D01*
X100461500Y-76891680D01*
X100516781Y-77169595D01*
X100625218Y-77431385D01*
X100782644Y-77666990D01*
X100983010Y-77867356D01*
X101218615Y-78024782D01*
X101480405Y-78133219D01*
X101758320Y-78188500D01*
X102041680Y-78188500D01*
X102319595Y-78133219D01*
X102581385Y-78024782D01*
X102816990Y-77867356D01*
X103017356Y-77666990D01*
X103174782Y-77431385D01*
X103221360Y-77318936D01*
X103251601Y-77364195D01*
X103287237Y-77399831D01*
X102451068Y-78236000D01*
X99968171Y-78236000D01*
X99195911Y-77463740D01*
X99187863Y-77453208D01*
X99157445Y-77420599D01*
X99103915Y-77354121D01*
X99057746Y-77286812D01*
X99018516Y-77218485D01*
X98985846Y-77148854D01*
X98959390Y-77077441D01*
X98938957Y-77003779D01*
X98924464Y-76927313D01*
X98915970Y-76847527D01*
X98915016Y-76813207D01*
X98915016Y-75650000D01*
X98908963Y-75588543D01*
X98891037Y-75529449D01*
X98861926Y-75474986D01*
X98822750Y-75427250D01*
X98775014Y-75388074D01*
X98720551Y-75358963D01*
X98661457Y-75341037D01*
X98600000Y-75334984D01*
X96400000Y-75334984D01*
X96338543Y-75341037D01*
X96279449Y-75358963D01*
X96224986Y-75388074D01*
X96177250Y-75427250D01*
X96138074Y-75474986D01*
X96108963Y-75529449D01*
X96091037Y-75588543D01*
X96084984Y-75650000D01*
X90777967Y-75650000D01*
X90549543Y-75497373D01*
X90292303Y-75390820D01*
X90019218Y-75336500D01*
X89740782Y-75336500D01*
X89467697Y-75390820D01*
X89210457Y-75497373D01*
X88978946Y-75652063D01*
X88782063Y-75848946D01*
X88627373Y-76080457D01*
X88520820Y-76337697D01*
X88466500Y-76610782D01*
X85413500Y-76610782D01*
X85413500Y-76311537D01*
X85339966Y-75941853D01*
X85195722Y-75593618D01*
X84986313Y-75280215D01*
X84719785Y-75013687D01*
X84406382Y-74804278D01*
X84058147Y-74660034D01*
X83688463Y-74586500D01*
X83311537Y-74586500D01*
X82941853Y-74660034D01*
X82593618Y-74804278D01*
X82280215Y-75013687D01*
X82013687Y-75280215D01*
X81804278Y-75593618D01*
X81660034Y-75941853D01*
X81586500Y-76311537D01*
X80461091Y-76311537D01*
X80500840Y-75906149D01*
X80673305Y-75334919D01*
X80953439Y-74808065D01*
X81330568Y-74345659D01*
X81790331Y-73965310D01*
X82315215Y-73681507D01*
X82885225Y-73505059D01*
X83499420Y-73440504D01*
X83500670Y-73440500D01*
X116478453Y-73440500D01*
X117093851Y-73500840D01*
G04 #@! TA.AperFunction,Conductor*
D27*
G36*
X117093851Y-73500840D02*
G01*
X117665081Y-73673305D01*
X118191935Y-73953439D01*
X118654341Y-74330568D01*
X119034690Y-74790331D01*
X119318493Y-75315215D01*
X119494941Y-75885225D01*
X119559496Y-76499420D01*
X119559500Y-76500670D01*
X119559501Y-123478443D01*
X119499159Y-124093853D01*
X119326695Y-124665081D01*
X119046564Y-125191930D01*
X118669434Y-125654339D01*
X118209669Y-126034690D01*
X117684788Y-126318492D01*
X117114775Y-126494941D01*
X116500580Y-126559496D01*
X116499330Y-126559500D01*
X83521547Y-126559500D01*
X82906147Y-126499159D01*
X82334919Y-126326695D01*
X81808070Y-126046564D01*
X81345661Y-125669434D01*
X80965310Y-125209669D01*
X80681508Y-124684788D01*
X80505059Y-124114775D01*
X80440504Y-123500580D01*
X80440500Y-123499330D01*
X80440500Y-123311537D01*
X81586500Y-123311537D01*
X81586500Y-123688463D01*
X81660034Y-124058147D01*
X81804278Y-124406382D01*
X82013687Y-124719785D01*
X82280215Y-124986313D01*
X82593618Y-125195722D01*
X82941853Y-125339966D01*
X83311537Y-125413500D01*
X83688463Y-125413500D01*
X84058147Y-125339966D01*
X84406382Y-125195722D01*
X84719785Y-124986313D01*
X84986313Y-124719785D01*
X85195722Y-124406382D01*
X85339966Y-124058147D01*
X85413500Y-123688463D01*
X85413500Y-123311537D01*
X114586500Y-123311537D01*
X114586500Y-123688463D01*
X114660034Y-124058147D01*
X114804278Y-124406382D01*
X115013687Y-124719785D01*
X115280215Y-124986313D01*
X115593618Y-125195722D01*
X115941853Y-125339966D01*
X116311537Y-125413500D01*
X116688463Y-125413500D01*
X117058147Y-125339966D01*
X117406382Y-125195722D01*
X117719785Y-124986313D01*
X117986313Y-124719785D01*
X118195722Y-124406382D01*
X118339966Y-124058147D01*
X118413500Y-123688463D01*
X118413500Y-123311537D01*
X118339966Y-122941853D01*
X118195722Y-122593618D01*
X117986313Y-122280215D01*
X117719785Y-122013687D01*
X117406382Y-121804278D01*
X117058147Y-121660034D01*
X116688463Y-121586500D01*
X116311537Y-121586500D01*
X115941853Y-121660034D01*
X115593618Y-121804278D01*
X115280215Y-122013687D01*
X115013687Y-122280215D01*
X114804278Y-122593618D01*
X114660034Y-122941853D01*
X114586500Y-123311537D01*
X85413500Y-123311537D01*
X85339966Y-122941853D01*
X85195722Y-122593618D01*
X84986313Y-122280215D01*
X84719785Y-122013687D01*
X84406382Y-121804278D01*
X84058147Y-121660034D01*
X83688463Y-121586500D01*
X83311537Y-121586500D01*
X82941853Y-121660034D01*
X82593618Y-121804278D01*
X82280215Y-122013687D01*
X82013687Y-122280215D01*
X81804278Y-122593618D01*
X81660034Y-122941853D01*
X81586500Y-123311537D01*
X80440500Y-123311537D01*
X80440500Y-101000000D01*
X84184984Y-101000000D01*
X84184984Y-103000000D01*
X84191037Y-103061457D01*
X84208963Y-103120551D01*
X84238074Y-103175014D01*
X84277250Y-103222750D01*
X84324986Y-103261926D01*
X84379449Y-103291037D01*
X84438543Y-103308963D01*
X84500000Y-103315016D01*
X86500000Y-103315016D01*
X86561457Y-103308963D01*
X86620551Y-103291037D01*
X86675014Y-103261926D01*
X86722750Y-103222750D01*
X86761926Y-103175014D01*
X86791037Y-103120551D01*
X86808963Y-103061457D01*
X86815016Y-103000000D01*
X86815016Y-102644112D01*
X86893166Y-102608094D01*
X86995017Y-102571153D01*
X87101637Y-102542182D01*
X87213463Y-102521248D01*
X87330956Y-102508503D01*
X87392376Y-102506356D01*
X87410574Y-102504000D01*
X91496001Y-102504000D01*
X91496000Y-110184340D01*
X91492810Y-110208147D01*
X91480123Y-110570116D01*
X91433266Y-111001095D01*
X91355468Y-111415804D01*
X91246891Y-111814636D01*
X91107590Y-112198072D01*
X90937461Y-112566684D01*
X90736274Y-112920982D01*
X90503718Y-113261343D01*
X90239366Y-113588107D01*
X89986045Y-113855747D01*
X89973141Y-113871193D01*
X89717518Y-114126816D01*
X89395935Y-114608098D01*
X89174425Y-115142871D01*
X89061500Y-115710583D01*
X89061500Y-116289417D01*
X89174425Y-116857129D01*
X89395935Y-117391902D01*
X89717518Y-117873184D01*
X90126816Y-118282482D01*
X90608098Y-118604065D01*
X91142871Y-118825575D01*
X91710583Y-118938500D01*
X92289417Y-118938500D01*
X92857129Y-118825575D01*
X93391902Y-118604065D01*
X93873184Y-118282482D01*
X93911129Y-118244537D01*
X106204476Y-118244537D01*
X106531362Y-118561571D01*
X107059320Y-118798868D01*
X107623427Y-118928606D01*
X108202005Y-118945800D01*
X108772820Y-118849788D01*
X109313937Y-118644260D01*
X109468638Y-118561571D01*
X109795524Y-118244537D01*
X108000000Y-116449013D01*
X106204476Y-118244537D01*
X93911129Y-118244537D01*
X94282482Y-117873184D01*
X94604065Y-117391902D01*
X94825575Y-116857129D01*
X94938500Y-116289417D01*
X94938500Y-116202005D01*
X105054200Y-116202005D01*
X105150212Y-116772820D01*
X105355740Y-117313937D01*
X105438429Y-117468638D01*
X105755463Y-117795524D01*
X107550987Y-116000000D01*
X108449013Y-116000000D01*
X110244537Y-117795524D01*
X110561571Y-117468638D01*
X110798868Y-116940680D01*
X110928606Y-116376573D01*
X110945800Y-115797995D01*
X110849788Y-115227180D01*
X110644260Y-114686063D01*
X110561571Y-114531362D01*
X110244537Y-114204476D01*
X108449013Y-116000000D01*
X107550987Y-116000000D01*
X105755463Y-114204476D01*
X105438429Y-114531362D01*
X105201132Y-115059320D01*
X105071394Y-115623427D01*
X105054200Y-116202005D01*
X94938500Y-116202005D01*
X94938500Y-115710583D01*
X94825575Y-115142871D01*
X94604065Y-114608098D01*
X94282482Y-114126816D01*
X94022742Y-113867076D01*
X94013954Y-113855747D01*
X93919036Y-113755463D01*
X106204476Y-113755463D01*
X108000000Y-115550987D01*
X109795524Y-113755463D01*
X109468638Y-113438429D01*
X108940680Y-113201132D01*
X108376573Y-113071394D01*
X107797995Y-113054200D01*
X107227180Y-113150212D01*
X106686063Y-113355740D01*
X106531362Y-113438429D01*
X106204476Y-113755463D01*
X93919036Y-113755463D01*
X93760633Y-113588107D01*
X93496281Y-113261343D01*
X93263725Y-112920982D01*
X93062538Y-112566684D01*
X92892409Y-112198072D01*
X92753108Y-111814636D01*
X92644531Y-111415804D01*
X92566733Y-111001095D01*
X92519876Y-110570117D01*
X92507190Y-110208149D01*
X92504000Y-110183524D01*
X92504000Y-102209263D01*
X95087047Y-99626216D01*
X95116557Y-99640324D01*
X95166092Y-99669054D01*
X95219022Y-99705064D01*
X95275013Y-99748694D01*
X95333731Y-99800171D01*
X95364011Y-99829624D01*
X95370159Y-99834886D01*
X95480185Y-99944912D01*
X95662560Y-100066771D01*
X95865204Y-100150709D01*
X96080330Y-100193500D01*
X96299670Y-100193500D01*
X96514796Y-100150709D01*
X96717440Y-100066771D01*
X96899815Y-99944912D01*
X97054912Y-99789815D01*
X97176771Y-99607440D01*
X97260709Y-99404796D01*
X97303500Y-99189670D01*
X97303500Y-98970330D01*
X97260709Y-98755204D01*
X97176771Y-98552560D01*
X97054912Y-98370185D01*
X96899815Y-98215088D01*
X96717440Y-98093229D01*
X96514796Y-98009291D01*
X96299670Y-97966500D01*
X96080330Y-97966500D01*
X95865204Y-98009291D01*
X95662560Y-98093229D01*
X95480185Y-98215088D01*
X95368386Y-98326887D01*
X95364015Y-98330374D01*
X95333741Y-98359820D01*
X95275013Y-98411306D01*
X95219022Y-98454936D01*
X95166092Y-98490946D01*
X95116557Y-98519676D01*
X95070656Y-98541621D01*
X95028426Y-98557443D01*
X94989736Y-98567877D01*
X94954071Y-98573692D01*
X94937084Y-98574622D01*
X94934681Y-98574959D01*
X94920500Y-98573562D01*
X94895746Y-98576000D01*
X94821699Y-98583293D01*
X94726695Y-98612112D01*
X94639138Y-98658912D01*
X94562394Y-98721894D01*
X94546610Y-98741127D01*
X91791737Y-101496000D01*
X87409972Y-101496000D01*
X87392381Y-101493644D01*
X87330956Y-101491496D01*
X87213463Y-101478751D01*
X87101637Y-101457817D01*
X86995017Y-101428846D01*
X86893166Y-101391905D01*
X86815016Y-101355887D01*
X86815016Y-101000000D01*
X86808963Y-100938543D01*
X86791037Y-100879449D01*
X86761926Y-100824986D01*
X86722750Y-100777250D01*
X86675014Y-100738074D01*
X86620551Y-100708963D01*
X86561457Y-100691037D01*
X86500000Y-100684984D01*
X84500000Y-100684984D01*
X84438543Y-100691037D01*
X84379449Y-100708963D01*
X84324986Y-100738074D01*
X84277250Y-100777250D01*
X84238074Y-100824986D01*
X84208963Y-100879449D01*
X84191037Y-100938543D01*
X84184984Y-101000000D01*
X80440500Y-101000000D01*
X80440500Y-99370632D01*
X89186500Y-99370632D01*
X89186500Y-99629368D01*
X89236978Y-99883134D01*
X89335992Y-100122175D01*
X89479738Y-100337307D01*
X89662693Y-100520262D01*
X89877825Y-100664008D01*
X90116866Y-100763022D01*
X90370632Y-100813500D01*
X90629368Y-100813500D01*
X90883134Y-100763022D01*
X91122175Y-100664008D01*
X91337307Y-100520262D01*
X91520262Y-100337307D01*
X91664008Y-100122175D01*
X91763022Y-99883134D01*
X91813500Y-99629368D01*
X91813500Y-99370632D01*
X91763022Y-99116866D01*
X91664008Y-98877825D01*
X91520262Y-98662693D01*
X91387960Y-98530391D01*
X91379301Y-98519226D01*
X91339287Y-98476943D01*
X91268340Y-98389198D01*
X91206417Y-98298491D01*
X91153115Y-98204518D01*
X91108098Y-98106843D01*
X91071153Y-98004982D01*
X91042182Y-97898362D01*
X91021248Y-97786536D01*
X91008503Y-97669043D01*
X91006356Y-97607624D01*
X91004000Y-97589426D01*
X91004000Y-97044000D01*
X94748146Y-97044000D01*
X94760525Y-97045657D01*
X94802010Y-97047105D01*
X94880933Y-97055656D01*
X94955513Y-97069602D01*
X95026167Y-97088781D01*
X95093375Y-97113134D01*
X95157690Y-97142753D01*
X95219629Y-97177864D01*
X95279582Y-97218773D01*
X95337908Y-97265921D01*
X95366120Y-97292615D01*
X95376852Y-97301579D01*
X95480185Y-97404912D01*
X95662560Y-97526771D01*
X95865204Y-97610709D01*
X96080330Y-97653500D01*
X96299670Y-97653500D01*
X96514796Y-97610709D01*
X96717440Y-97526771D01*
X96899815Y-97404912D01*
X97006005Y-97298722D01*
X97013884Y-97292612D01*
X97042101Y-97265912D01*
X97100409Y-97218780D01*
X97160370Y-97177864D01*
X97222301Y-97142758D01*
X97286622Y-97113136D01*
X97353828Y-97088782D01*
X97424486Y-97069602D01*
X97499066Y-97055656D01*
X97577989Y-97047105D01*
X97619475Y-97045657D01*
X97632277Y-97044000D01*
X101061237Y-97044000D01*
X102434078Y-98416842D01*
X102441657Y-98426763D01*
X102469957Y-98457110D01*
X102519726Y-98518974D01*
X102562604Y-98581575D01*
X102598993Y-98645079D01*
X102629304Y-98709840D01*
X102653837Y-98776260D01*
X102672803Y-98844865D01*
X102686274Y-98916215D01*
X102694178Y-98990780D01*
X102695251Y-99029607D01*
X102696500Y-99043520D01*
X102696500Y-99189670D01*
X102739291Y-99404796D01*
X102823229Y-99607440D01*
X102945088Y-99789815D01*
X102989273Y-99834000D01*
X97496754Y-99834000D01*
X97472000Y-99831562D01*
X97373198Y-99841293D01*
X97344379Y-99850035D01*
X97278195Y-99870112D01*
X97190638Y-99916912D01*
X97113894Y-99979894D01*
X97098110Y-99999127D01*
X96853162Y-100244075D01*
X96843244Y-100251651D01*
X96812888Y-100279958D01*
X96751025Y-100329726D01*
X96688419Y-100372607D01*
X96624922Y-100408992D01*
X96560154Y-100439306D01*
X96493739Y-100463837D01*
X96425134Y-100482803D01*
X96353784Y-100496274D01*
X96279219Y-100504178D01*
X96240393Y-100505251D01*
X96226479Y-100506500D01*
X96080330Y-100506500D01*
X95865204Y-100549291D01*
X95662560Y-100633229D01*
X95480185Y-100755088D01*
X95325088Y-100910185D01*
X95203229Y-101092560D01*
X95119291Y-101295204D01*
X95076500Y-101510330D01*
X95076500Y-101729670D01*
X95119291Y-101944796D01*
X95203229Y-102147440D01*
X95325088Y-102329815D01*
X95480185Y-102484912D01*
X95662560Y-102606771D01*
X95865204Y-102690709D01*
X96080330Y-102733500D01*
X96299670Y-102733500D01*
X96514796Y-102690709D01*
X96717440Y-102606771D01*
X96899815Y-102484912D01*
X97054912Y-102329815D01*
X97176771Y-102147440D01*
X97260709Y-101944796D01*
X97303500Y-101729670D01*
X97303500Y-101579485D01*
X97304750Y-101569600D01*
X97305822Y-101530768D01*
X97313725Y-101456215D01*
X97327196Y-101384866D01*
X97346164Y-101316255D01*
X97370694Y-101249842D01*
X97401002Y-101185086D01*
X97437395Y-101121575D01*
X97480273Y-101058974D01*
X97530036Y-100997118D01*
X97558343Y-100966763D01*
X97566224Y-100956539D01*
X97680763Y-100842000D01*
X103013273Y-100842000D01*
X102945088Y-100910185D01*
X102823229Y-101092560D01*
X102739291Y-101295204D01*
X102696500Y-101510330D01*
X102696500Y-101729670D01*
X102739291Y-101944796D01*
X102823229Y-102147440D01*
X102945088Y-102329815D01*
X103100185Y-102484912D01*
X103282560Y-102606771D01*
X103485204Y-102690709D01*
X103700330Y-102733500D01*
X103919670Y-102733500D01*
X104134796Y-102690709D01*
X104337440Y-102606771D01*
X104519815Y-102484912D01*
X104626005Y-102378722D01*
X104633884Y-102372612D01*
X104662101Y-102345912D01*
X104720409Y-102298780D01*
X104780370Y-102257864D01*
X104842301Y-102222758D01*
X104906622Y-102193136D01*
X104973828Y-102168782D01*
X105044486Y-102149602D01*
X105119066Y-102135656D01*
X105197989Y-102127105D01*
X105239475Y-102125657D01*
X105252277Y-102124000D01*
X108058146Y-102124000D01*
X108070525Y-102125657D01*
X108112010Y-102127105D01*
X108190933Y-102135656D01*
X108265513Y-102149602D01*
X108336167Y-102168781D01*
X108403375Y-102193134D01*
X108467690Y-102222753D01*
X108529629Y-102257864D01*
X108589582Y-102298773D01*
X108647908Y-102345921D01*
X108676120Y-102372615D01*
X108686852Y-102381579D01*
X108790185Y-102484912D01*
X108972560Y-102606771D01*
X109175204Y-102690709D01*
X109390330Y-102733500D01*
X109609670Y-102733500D01*
X109824796Y-102690709D01*
X110027440Y-102606771D01*
X110209815Y-102484912D01*
X110295443Y-102399284D01*
X113810519Y-102399284D01*
X113894767Y-102561065D01*
X114089988Y-102661058D01*
X114300967Y-102721044D01*
X114519595Y-102738717D01*
X114737469Y-102713399D01*
X114946218Y-102646062D01*
X115105233Y-102561065D01*
X115189481Y-102399284D01*
X114500000Y-101709803D01*
X113810519Y-102399284D01*
X110295443Y-102399284D01*
X110364912Y-102329815D01*
X110486771Y-102147440D01*
X110570709Y-101944796D01*
X110613500Y-101729670D01*
X110613500Y-101639595D01*
X113381283Y-101639595D01*
X113406601Y-101857469D01*
X113473938Y-102066218D01*
X113558935Y-102225233D01*
X113720716Y-102309481D01*
X114410197Y-101620000D01*
X114589803Y-101620000D01*
X115279284Y-102309481D01*
X115441065Y-102225233D01*
X115541058Y-102030012D01*
X115601044Y-101819033D01*
X115618717Y-101600405D01*
X115593399Y-101382531D01*
X115526062Y-101173782D01*
X115441065Y-101014767D01*
X115279284Y-100930519D01*
X114589803Y-101620000D01*
X114410197Y-101620000D01*
X113720716Y-100930519D01*
X113558935Y-101014767D01*
X113458942Y-101209988D01*
X113398956Y-101420967D01*
X113381283Y-101639595D01*
X110613500Y-101639595D01*
X110613500Y-101510330D01*
X110570709Y-101295204D01*
X110486771Y-101092560D01*
X110364912Y-100910185D01*
X110295443Y-100840716D01*
X113810519Y-100840716D01*
X114500000Y-101530197D01*
X115189481Y-100840716D01*
X115105233Y-100678935D01*
X114910012Y-100578942D01*
X114699033Y-100518956D01*
X114480405Y-100501283D01*
X114262531Y-100526601D01*
X114053782Y-100593938D01*
X113894767Y-100678935D01*
X113810519Y-100840716D01*
X110295443Y-100840716D01*
X110209815Y-100755088D01*
X110027440Y-100633229D01*
X109824796Y-100549291D01*
X109609670Y-100506500D01*
X109390330Y-100506500D01*
X109175204Y-100549291D01*
X108972560Y-100633229D01*
X108790185Y-100755088D01*
X108683995Y-100861278D01*
X108676123Y-100867382D01*
X108647901Y-100894085D01*
X108589582Y-100941227D01*
X108529629Y-100982136D01*
X108467690Y-101017247D01*
X108403375Y-101046866D01*
X108336167Y-101071219D01*
X108265513Y-101090398D01*
X108190933Y-101104344D01*
X108112011Y-101112895D01*
X108070518Y-101114344D01*
X108057723Y-101116000D01*
X105251851Y-101116000D01*
X105239482Y-101114344D01*
X105197988Y-101112895D01*
X105119066Y-101104344D01*
X105044486Y-101090398D01*
X104973828Y-101071218D01*
X104906622Y-101046864D01*
X104842301Y-101017242D01*
X104780370Y-100982136D01*
X104720409Y-100941220D01*
X104662101Y-100894088D01*
X104633880Y-100867385D01*
X104623150Y-100858423D01*
X104606727Y-100842000D01*
X106947246Y-100842000D01*
X106972000Y-100844438D01*
X107009791Y-100840716D01*
X107070801Y-100834707D01*
X107165805Y-100805888D01*
X107253362Y-100759088D01*
X107330106Y-100696106D01*
X107345890Y-100676873D01*
X108836842Y-99185922D01*
X108846763Y-99178343D01*
X108877118Y-99150036D01*
X108938974Y-99100273D01*
X109001575Y-99057395D01*
X109065086Y-99021002D01*
X109129842Y-98990694D01*
X109196255Y-98966164D01*
X109264866Y-98947196D01*
X109336215Y-98933725D01*
X109410768Y-98925822D01*
X109449600Y-98924750D01*
X109463522Y-98923500D01*
X109609670Y-98923500D01*
X109824796Y-98880709D01*
X110027440Y-98796771D01*
X110209815Y-98674912D01*
X110295443Y-98589284D01*
X113810519Y-98589284D01*
X113894767Y-98751065D01*
X114089988Y-98851058D01*
X114300967Y-98911044D01*
X114519595Y-98928717D01*
X114737469Y-98903399D01*
X114946218Y-98836062D01*
X115105233Y-98751065D01*
X115189481Y-98589284D01*
X114500000Y-97899803D01*
X113810519Y-98589284D01*
X110295443Y-98589284D01*
X110364912Y-98519815D01*
X110486771Y-98337440D01*
X110570709Y-98134796D01*
X110613500Y-97919670D01*
X110613500Y-97829595D01*
X113381283Y-97829595D01*
X113406601Y-98047469D01*
X113473938Y-98256218D01*
X113558935Y-98415233D01*
X113720716Y-98499481D01*
X114410197Y-97810000D01*
X114589803Y-97810000D01*
X115279284Y-98499481D01*
X115441065Y-98415233D01*
X115541058Y-98220012D01*
X115601044Y-98009033D01*
X115618717Y-97790405D01*
X115593399Y-97572531D01*
X115526062Y-97363782D01*
X115441065Y-97204767D01*
X115279284Y-97120519D01*
X114589803Y-97810000D01*
X114410197Y-97810000D01*
X113720716Y-97120519D01*
X113558935Y-97204767D01*
X113458942Y-97399988D01*
X113398956Y-97610967D01*
X113381283Y-97829595D01*
X110613500Y-97829595D01*
X110613500Y-97700330D01*
X110570709Y-97485204D01*
X110486771Y-97282560D01*
X110364912Y-97100185D01*
X110295443Y-97030716D01*
X113810519Y-97030716D01*
X114500000Y-97720197D01*
X115189481Y-97030716D01*
X115105233Y-96868935D01*
X114910012Y-96768942D01*
X114699033Y-96708956D01*
X114480405Y-96691283D01*
X114262531Y-96716601D01*
X114053782Y-96783938D01*
X113894767Y-96868935D01*
X113810519Y-97030716D01*
X110295443Y-97030716D01*
X110274475Y-97009748D01*
X110271680Y-97006110D01*
X110263898Y-96997811D01*
X110250284Y-96980532D01*
X110238430Y-96962439D01*
X110228011Y-96943036D01*
X110218827Y-96921723D01*
X110210856Y-96897950D01*
X110204208Y-96871209D01*
X110199103Y-96841113D01*
X110195814Y-96807365D01*
X110195243Y-96788990D01*
X110194500Y-96782904D01*
X110194500Y-95026733D01*
X110195244Y-95021010D01*
X110195816Y-95002619D01*
X110199103Y-94968888D01*
X110204208Y-94938791D01*
X110210855Y-94912054D01*
X110218830Y-94888268D01*
X110228010Y-94866966D01*
X110238435Y-94847553D01*
X110250286Y-94829465D01*
X110263892Y-94812195D01*
X110271673Y-94803898D01*
X110273955Y-94800772D01*
X110295443Y-94779284D01*
X113810519Y-94779284D01*
X113894767Y-94941065D01*
X114089988Y-95041058D01*
X114300967Y-95101044D01*
X114519595Y-95118717D01*
X114737469Y-95093399D01*
X114946218Y-95026062D01*
X115105233Y-94941065D01*
X115189481Y-94779284D01*
X114500000Y-94089803D01*
X113810519Y-94779284D01*
X110295443Y-94779284D01*
X110364912Y-94709815D01*
X110486771Y-94527440D01*
X110570709Y-94324796D01*
X110613500Y-94109670D01*
X110613500Y-94019595D01*
X113381283Y-94019595D01*
X113406601Y-94237469D01*
X113473938Y-94446218D01*
X113558935Y-94605233D01*
X113720716Y-94689481D01*
X114410197Y-94000000D01*
X114589803Y-94000000D01*
X115279284Y-94689481D01*
X115441065Y-94605233D01*
X115541058Y-94410012D01*
X115601044Y-94199033D01*
X115618717Y-93980405D01*
X115593399Y-93762531D01*
X115526062Y-93553782D01*
X115441065Y-93394767D01*
X115279284Y-93310519D01*
X114589803Y-94000000D01*
X114410197Y-94000000D01*
X113720716Y-93310519D01*
X113558935Y-93394767D01*
X113458942Y-93589988D01*
X113398956Y-93800967D01*
X113381283Y-94019595D01*
X110613500Y-94019595D01*
X110613500Y-93890330D01*
X110570709Y-93675204D01*
X110486771Y-93472560D01*
X110364912Y-93290185D01*
X110295443Y-93220716D01*
X113810519Y-93220716D01*
X114500000Y-93910197D01*
X115189481Y-93220716D01*
X115105233Y-93058935D01*
X114910012Y-92958942D01*
X114699033Y-92898956D01*
X114480405Y-92881283D01*
X114262531Y-92906601D01*
X114053782Y-92973938D01*
X113894767Y-93058935D01*
X113810519Y-93220716D01*
X110295443Y-93220716D01*
X110209815Y-93135088D01*
X110027440Y-93013229D01*
X109824796Y-92929291D01*
X109609670Y-92886500D01*
X109390330Y-92886500D01*
X109175204Y-92929291D01*
X108972560Y-93013229D01*
X108790185Y-93135088D01*
X108699748Y-93225525D01*
X108696110Y-93228320D01*
X108687818Y-93236096D01*
X108670532Y-93249715D01*
X108652439Y-93261569D01*
X108633036Y-93271988D01*
X108611723Y-93281172D01*
X108587950Y-93289143D01*
X108561209Y-93295791D01*
X108531112Y-93300896D01*
X108497367Y-93304184D01*
X108478978Y-93304757D01*
X108472894Y-93305500D01*
X106727500Y-93305500D01*
X106727500Y-86250000D01*
X107684983Y-86250000D01*
X107691036Y-86311457D01*
X107708962Y-86370552D01*
X107738073Y-86425014D01*
X107777249Y-86472751D01*
X107824986Y-86511927D01*
X107879448Y-86541038D01*
X107938543Y-86558964D01*
X108000000Y-86565017D01*
X109231125Y-86563500D01*
X109309500Y-86485125D01*
X109309500Y-84940500D01*
X109690500Y-84940500D01*
X109690500Y-86485125D01*
X109768875Y-86563500D01*
X111000000Y-86565017D01*
X111061457Y-86558964D01*
X111120552Y-86541038D01*
X111175014Y-86511927D01*
X111222751Y-86472751D01*
X111261927Y-86425014D01*
X111291038Y-86370552D01*
X111308964Y-86311457D01*
X111315017Y-86250000D01*
X111313500Y-85018875D01*
X111235125Y-84940500D01*
X109690500Y-84940500D01*
X109309500Y-84940500D01*
X107764875Y-84940500D01*
X107686500Y-85018875D01*
X107684983Y-86250000D01*
X106727500Y-86250000D01*
X106727500Y-84632943D01*
X115311500Y-84632943D01*
X115311500Y-84867057D01*
X115357173Y-85096673D01*
X115446765Y-85312966D01*
X115576831Y-85507625D01*
X115742375Y-85673169D01*
X115937034Y-85803235D01*
X116153327Y-85892827D01*
X116382943Y-85938500D01*
X116617057Y-85938500D01*
X116846673Y-85892827D01*
X117062966Y-85803235D01*
X117257625Y-85673169D01*
X117423169Y-85507625D01*
X117553235Y-85312966D01*
X117642827Y-85096673D01*
X117688500Y-84867057D01*
X117688500Y-84632943D01*
X117642827Y-84403327D01*
X117553235Y-84187034D01*
X117423169Y-83992375D01*
X117257625Y-83826831D01*
X117062966Y-83696765D01*
X116846673Y-83607173D01*
X116617057Y-83561500D01*
X116382943Y-83561500D01*
X116153327Y-83607173D01*
X115937034Y-83696765D01*
X115742375Y-83826831D01*
X115576831Y-83992375D01*
X115446765Y-84187034D01*
X115357173Y-84403327D01*
X115311500Y-84632943D01*
X106727500Y-84632943D01*
X106727500Y-83250000D01*
X107684983Y-83250000D01*
X107686500Y-84481125D01*
X107764875Y-84559500D01*
X109309500Y-84559500D01*
X109309500Y-83014875D01*
X109690500Y-83014875D01*
X109690500Y-84559500D01*
X111235125Y-84559500D01*
X111313500Y-84481125D01*
X111315017Y-83250000D01*
X111308964Y-83188543D01*
X111291038Y-83129448D01*
X111261927Y-83074986D01*
X111222751Y-83027249D01*
X111175014Y-82988073D01*
X111120552Y-82958962D01*
X111061457Y-82941036D01*
X111000000Y-82934983D01*
X109768875Y-82936500D01*
X109690500Y-83014875D01*
X109309500Y-83014875D01*
X109231125Y-82936500D01*
X108000000Y-82934983D01*
X107938543Y-82941036D01*
X107879448Y-82958962D01*
X107824986Y-82988073D01*
X107777249Y-83027249D01*
X107738073Y-83074986D01*
X107708962Y-83129448D01*
X107691036Y-83188543D01*
X107684983Y-83250000D01*
X106727500Y-83250000D01*
X106727500Y-77385094D01*
X106748399Y-77364195D01*
X106853843Y-77206388D01*
X106926473Y-77031043D01*
X106963500Y-76844896D01*
X106963500Y-76655104D01*
X107036500Y-76655104D01*
X107036500Y-76844896D01*
X107073527Y-77031043D01*
X107146157Y-77206388D01*
X107251601Y-77364195D01*
X107385805Y-77498399D01*
X107543612Y-77603843D01*
X107718957Y-77676473D01*
X107905104Y-77713500D01*
X108094896Y-77713500D01*
X108281043Y-77676473D01*
X108456388Y-77603843D01*
X108614195Y-77498399D01*
X108748399Y-77364195D01*
X108778640Y-77318936D01*
X108825218Y-77431385D01*
X108982644Y-77666990D01*
X109183010Y-77867356D01*
X109418615Y-78024782D01*
X109680405Y-78133219D01*
X109958320Y-78188500D01*
X110241680Y-78188500D01*
X110519595Y-78133219D01*
X110781385Y-78024782D01*
X111016990Y-77867356D01*
X111217356Y-77666990D01*
X111374782Y-77431385D01*
X111483219Y-77169595D01*
X111538500Y-76891680D01*
X111538500Y-76608320D01*
X111483219Y-76330405D01*
X111475404Y-76311537D01*
X114586500Y-76311537D01*
X114586500Y-76688463D01*
X114660034Y-77058147D01*
X114804278Y-77406382D01*
X115013687Y-77719785D01*
X115280215Y-77986313D01*
X115593618Y-78195722D01*
X115941853Y-78339966D01*
X116311537Y-78413500D01*
X116688463Y-78413500D01*
X117058147Y-78339966D01*
X117406382Y-78195722D01*
X117719785Y-77986313D01*
X117986313Y-77719785D01*
X118195722Y-77406382D01*
X118339966Y-77058147D01*
X118413500Y-76688463D01*
X118413500Y-76311537D01*
X118339966Y-75941853D01*
X118195722Y-75593618D01*
X117986313Y-75280215D01*
X117719785Y-75013687D01*
X117406382Y-74804278D01*
X117058147Y-74660034D01*
X116688463Y-74586500D01*
X116311537Y-74586500D01*
X115941853Y-74660034D01*
X115593618Y-74804278D01*
X115280215Y-75013687D01*
X115013687Y-75280215D01*
X114804278Y-75593618D01*
X114660034Y-75941853D01*
X114586500Y-76311537D01*
X111475404Y-76311537D01*
X111374782Y-76068615D01*
X111217356Y-75833010D01*
X111016990Y-75632644D01*
X110781385Y-75475218D01*
X110519595Y-75366781D01*
X110241680Y-75311500D01*
X109958320Y-75311500D01*
X109680405Y-75366781D01*
X109418615Y-75475218D01*
X109183010Y-75632644D01*
X108982644Y-75833010D01*
X108825218Y-76068615D01*
X108778640Y-76181064D01*
X108748399Y-76135805D01*
X108614195Y-76001601D01*
X108456388Y-75896157D01*
X108281043Y-75823527D01*
X108094896Y-75786500D01*
X107905104Y-75786500D01*
X107718957Y-75823527D01*
X107543612Y-75896157D01*
X107385805Y-76001601D01*
X107251601Y-76135805D01*
X107146157Y-76293612D01*
X107073527Y-76468957D01*
X107036500Y-76655104D01*
X106963500Y-76655104D01*
X106926473Y-76468957D01*
X106853843Y-76293612D01*
X106748399Y-76135805D01*
X106614195Y-76001601D01*
X106456388Y-75896157D01*
X106281043Y-75823527D01*
X106094896Y-75786500D01*
X105905104Y-75786500D01*
X105718957Y-75823527D01*
X105543612Y-75896157D01*
X105385805Y-76001601D01*
X105251601Y-76135805D01*
X105146157Y-76293612D01*
X105073527Y-76468957D01*
X105036500Y-76655104D01*
X105036500Y-76844896D01*
X105073527Y-77031043D01*
X105146157Y-77206388D01*
X105251601Y-77364195D01*
X105299205Y-77411799D01*
X105305253Y-77432867D01*
X105312320Y-77463131D01*
X105319641Y-77501354D01*
X105326834Y-77546939D01*
X105333642Y-77599275D01*
X105336772Y-77628547D01*
X105338501Y-77638154D01*
X105338500Y-93305500D01*
X104836736Y-93305500D01*
X104831022Y-93304757D01*
X104812632Y-93304184D01*
X104778890Y-93300897D01*
X104748791Y-93295791D01*
X104722054Y-93289144D01*
X104698268Y-93281169D01*
X104676966Y-93271989D01*
X104657553Y-93261564D01*
X104639465Y-93249713D01*
X104622189Y-93236102D01*
X104613898Y-93228327D01*
X104610772Y-93226045D01*
X104519815Y-93135088D01*
X104337440Y-93013229D01*
X104134796Y-92929291D01*
X103919670Y-92886500D01*
X103700330Y-92886500D01*
X103485204Y-92929291D01*
X103282560Y-93013229D01*
X103100185Y-93135088D01*
X102945088Y-93290185D01*
X102823229Y-93472560D01*
X102739291Y-93675204D01*
X102696500Y-93890330D01*
X102696500Y-94109670D01*
X102739291Y-94324796D01*
X102823229Y-94527440D01*
X102945088Y-94709815D01*
X103100185Y-94864912D01*
X103282560Y-94986771D01*
X103485204Y-95070709D01*
X103700330Y-95113500D01*
X103919670Y-95113500D01*
X104134796Y-95070709D01*
X104337440Y-94986771D01*
X104519815Y-94864912D01*
X104610255Y-94774472D01*
X104613898Y-94771673D01*
X104622195Y-94763892D01*
X104639465Y-94750286D01*
X104657553Y-94738435D01*
X104676966Y-94728010D01*
X104698268Y-94718830D01*
X104722054Y-94710855D01*
X104748791Y-94704208D01*
X104778888Y-94699103D01*
X104812619Y-94695816D01*
X104831010Y-94695244D01*
X104837103Y-94694500D01*
X105998885Y-94694500D01*
X106012247Y-94695816D01*
X106032999Y-94697860D01*
X106033000Y-94697860D01*
X106067115Y-94694500D01*
X108473274Y-94694500D01*
X108478990Y-94695243D01*
X108497365Y-94695814D01*
X108531113Y-94699103D01*
X108561209Y-94704208D01*
X108587950Y-94710856D01*
X108611723Y-94718827D01*
X108633036Y-94728011D01*
X108652439Y-94738430D01*
X108670532Y-94750284D01*
X108687811Y-94763898D01*
X108696110Y-94771680D01*
X108699232Y-94773959D01*
X108725528Y-94800255D01*
X108728327Y-94803898D01*
X108736102Y-94812189D01*
X108749713Y-94829465D01*
X108761564Y-94847553D01*
X108771989Y-94866966D01*
X108781169Y-94888268D01*
X108789144Y-94912054D01*
X108795791Y-94938791D01*
X108800897Y-94968890D01*
X108804184Y-95002632D01*
X108804757Y-95021022D01*
X108805501Y-95027112D01*
X108805500Y-96783261D01*
X108804757Y-96788978D01*
X108804184Y-96807367D01*
X108800896Y-96841112D01*
X108795791Y-96871209D01*
X108789143Y-96897950D01*
X108781172Y-96921723D01*
X108771988Y-96943036D01*
X108761569Y-96962439D01*
X108749715Y-96980532D01*
X108736096Y-96997818D01*
X108728320Y-97006110D01*
X108726041Y-97009232D01*
X108635088Y-97100185D01*
X108513229Y-97282560D01*
X108429291Y-97485204D01*
X108386500Y-97700330D01*
X108386500Y-97850517D01*
X108385251Y-97860393D01*
X108384178Y-97899219D01*
X108376274Y-97973784D01*
X108362803Y-98045134D01*
X108343837Y-98113739D01*
X108319306Y-98180154D01*
X108288992Y-98244922D01*
X108252607Y-98308419D01*
X108209726Y-98371025D01*
X108159958Y-98432888D01*
X108131651Y-98463244D01*
X108123776Y-98473460D01*
X106763237Y-99834000D01*
X104630727Y-99834000D01*
X104674912Y-99789815D01*
X104796771Y-99607440D01*
X104880709Y-99404796D01*
X104923500Y-99189670D01*
X104923500Y-98970330D01*
X104880709Y-98755204D01*
X104796771Y-98552560D01*
X104674912Y-98370185D01*
X104519815Y-98215088D01*
X104337440Y-98093229D01*
X104134796Y-98009291D01*
X103919670Y-97966500D01*
X103769483Y-97966500D01*
X103759607Y-97965251D01*
X103720780Y-97964178D01*
X103646215Y-97956274D01*
X103574865Y-97942803D01*
X103506260Y-97923837D01*
X103439840Y-97899304D01*
X103375079Y-97868993D01*
X103311575Y-97832604D01*
X103248974Y-97789726D01*
X103187110Y-97739957D01*
X103156763Y-97711657D01*
X103146542Y-97703778D01*
X101873094Y-96430330D01*
X102696500Y-96430330D01*
X102696500Y-96649670D01*
X102739291Y-96864796D01*
X102823229Y-97067440D01*
X102945088Y-97249815D01*
X103100185Y-97404912D01*
X103282560Y-97526771D01*
X103485204Y-97610709D01*
X103700330Y-97653500D01*
X103919670Y-97653500D01*
X104134796Y-97610709D01*
X104337440Y-97526771D01*
X104519815Y-97404912D01*
X104674912Y-97249815D01*
X104796771Y-97067440D01*
X104880709Y-96864796D01*
X104923500Y-96649670D01*
X104923500Y-96430330D01*
X104880709Y-96215204D01*
X104796771Y-96012560D01*
X104674912Y-95830185D01*
X104519815Y-95675088D01*
X104337440Y-95553229D01*
X104134796Y-95469291D01*
X103919670Y-95426500D01*
X103700330Y-95426500D01*
X103485204Y-95469291D01*
X103282560Y-95553229D01*
X103100185Y-95675088D01*
X102945088Y-95830185D01*
X102823229Y-96012560D01*
X102739291Y-96215204D01*
X102696500Y-96430330D01*
X101873094Y-96430330D01*
X101643890Y-96201127D01*
X101628106Y-96181894D01*
X101551362Y-96118912D01*
X101463805Y-96072112D01*
X101368801Y-96043293D01*
X101294754Y-96036000D01*
X101270000Y-96033562D01*
X101245246Y-96036000D01*
X97631851Y-96036000D01*
X97619482Y-96034344D01*
X97577988Y-96032895D01*
X97499066Y-96024344D01*
X97424486Y-96010398D01*
X97353828Y-95991218D01*
X97286622Y-95966864D01*
X97222301Y-95937242D01*
X97160370Y-95902136D01*
X97100409Y-95861220D01*
X97042101Y-95814088D01*
X97013880Y-95787385D01*
X97003150Y-95778423D01*
X96899815Y-95675088D01*
X96717440Y-95553229D01*
X96514796Y-95469291D01*
X96299670Y-95426500D01*
X96080330Y-95426500D01*
X95865204Y-95469291D01*
X95662560Y-95553229D01*
X95480185Y-95675088D01*
X95373995Y-95781278D01*
X95366123Y-95787382D01*
X95337901Y-95814085D01*
X95279582Y-95861227D01*
X95219629Y-95902136D01*
X95157690Y-95937247D01*
X95093375Y-95966866D01*
X95026167Y-95991219D01*
X94955513Y-96010398D01*
X94880933Y-96024344D01*
X94802011Y-96032895D01*
X94760518Y-96034344D01*
X94747723Y-96036000D01*
X91004000Y-96036000D01*
X91004000Y-95441854D01*
X91005657Y-95429475D01*
X91007105Y-95387989D01*
X91015656Y-95309066D01*
X91029602Y-95234486D01*
X91048782Y-95163828D01*
X91073136Y-95096622D01*
X91102758Y-95032301D01*
X91137864Y-94970370D01*
X91178780Y-94910409D01*
X91225912Y-94852101D01*
X91252612Y-94823884D01*
X91261580Y-94813147D01*
X91274727Y-94800000D01*
X95074983Y-94800000D01*
X95081036Y-94861457D01*
X95098962Y-94920552D01*
X95128073Y-94975014D01*
X95167249Y-95022751D01*
X95214986Y-95061927D01*
X95269448Y-95091038D01*
X95328543Y-95108964D01*
X95390000Y-95115017D01*
X96048125Y-95113500D01*
X96126500Y-95035125D01*
X96126500Y-94063500D01*
X96253500Y-94063500D01*
X96253500Y-95035125D01*
X96331875Y-95113500D01*
X96990000Y-95115017D01*
X97051457Y-95108964D01*
X97110552Y-95091038D01*
X97165014Y-95061927D01*
X97212751Y-95022751D01*
X97251927Y-94975014D01*
X97281038Y-94920552D01*
X97298964Y-94861457D01*
X97305017Y-94800000D01*
X97303500Y-94141875D01*
X97225125Y-94063500D01*
X96253500Y-94063500D01*
X96126500Y-94063500D01*
X95154875Y-94063500D01*
X95076500Y-94141875D01*
X95074983Y-94800000D01*
X91274727Y-94800000D01*
X91364912Y-94709815D01*
X91486771Y-94527440D01*
X91570709Y-94324796D01*
X91613500Y-94109670D01*
X91613500Y-93890330D01*
X91570709Y-93675204D01*
X91486771Y-93472560D01*
X91364912Y-93290185D01*
X91274727Y-93200000D01*
X95074983Y-93200000D01*
X95076500Y-93858125D01*
X95154875Y-93936500D01*
X96126500Y-93936500D01*
X96126500Y-92964875D01*
X96253500Y-92964875D01*
X96253500Y-93936500D01*
X97225125Y-93936500D01*
X97303500Y-93858125D01*
X97305017Y-93200000D01*
X97298964Y-93138543D01*
X97281038Y-93079448D01*
X97251927Y-93024986D01*
X97212751Y-92977249D01*
X97165014Y-92938073D01*
X97110552Y-92908962D01*
X97051457Y-92891036D01*
X96990000Y-92884983D01*
X96331875Y-92886500D01*
X96253500Y-92964875D01*
X96126500Y-92964875D01*
X96048125Y-92886500D01*
X95390000Y-92884983D01*
X95328543Y-92891036D01*
X95269448Y-92908962D01*
X95214986Y-92938073D01*
X95167249Y-92977249D01*
X95128073Y-93024986D01*
X95098962Y-93079448D01*
X95081036Y-93138543D01*
X95074983Y-93200000D01*
X91274727Y-93200000D01*
X91209815Y-93135088D01*
X91027440Y-93013229D01*
X90824796Y-92929291D01*
X90609670Y-92886500D01*
X90390330Y-92886500D01*
X90175204Y-92929291D01*
X89972560Y-93013229D01*
X89790185Y-93135088D01*
X89635088Y-93290185D01*
X89513229Y-93472560D01*
X89429291Y-93675204D01*
X89386500Y-93890330D01*
X89386500Y-94109670D01*
X89429291Y-94324796D01*
X89513229Y-94527440D01*
X89635088Y-94709815D01*
X89741280Y-94816007D01*
X89747385Y-94823880D01*
X89774088Y-94852101D01*
X89821220Y-94910409D01*
X89862136Y-94970370D01*
X89897242Y-95032301D01*
X89926864Y-95096622D01*
X89951218Y-95163828D01*
X89970398Y-95234486D01*
X89984344Y-95309066D01*
X89992895Y-95387988D01*
X89994344Y-95429482D01*
X89996000Y-95442280D01*
X89996000Y-96490746D01*
X89993562Y-96515500D01*
X89996001Y-96540264D01*
X89996001Y-97590023D01*
X89993644Y-97607619D01*
X89991496Y-97669043D01*
X89978751Y-97786536D01*
X89957817Y-97898362D01*
X89928846Y-98004982D01*
X89891901Y-98106843D01*
X89846884Y-98204518D01*
X89793582Y-98298491D01*
X89731659Y-98389198D01*
X89660706Y-98476950D01*
X89620697Y-98519229D01*
X89607989Y-98534442D01*
X89479738Y-98662693D01*
X89335992Y-98877825D01*
X89236978Y-99116866D01*
X89186500Y-99370632D01*
X80440500Y-99370632D01*
X80440500Y-96870632D01*
X84186500Y-96870632D01*
X84186500Y-97129368D01*
X84236978Y-97383134D01*
X84335992Y-97622175D01*
X84479738Y-97837307D01*
X84662693Y-98020262D01*
X84877825Y-98164008D01*
X85116866Y-98263022D01*
X85370632Y-98313500D01*
X85629368Y-98313500D01*
X85883134Y-98263022D01*
X86122175Y-98164008D01*
X86337307Y-98020262D01*
X86520262Y-97837307D01*
X86664008Y-97622175D01*
X86763022Y-97383134D01*
X86813500Y-97129368D01*
X86813500Y-96870632D01*
X86763022Y-96616866D01*
X86664008Y-96377825D01*
X86520262Y-96162693D01*
X86337307Y-95979738D01*
X86122175Y-95835992D01*
X85883134Y-95736978D01*
X85629368Y-95686500D01*
X85370632Y-95686500D01*
X85116866Y-95736978D01*
X84877825Y-95835992D01*
X84662693Y-95979738D01*
X84479738Y-96162693D01*
X84335992Y-96377825D01*
X84236978Y-96616866D01*
X84186500Y-96870632D01*
X80440500Y-96870632D01*
X80440500Y-94779284D01*
X84810519Y-94779284D01*
X84894767Y-94941065D01*
X85089988Y-95041058D01*
X85300967Y-95101044D01*
X85519595Y-95118717D01*
X85737469Y-95093399D01*
X85946218Y-95026062D01*
X86105233Y-94941065D01*
X86189481Y-94779284D01*
X85500000Y-94089803D01*
X84810519Y-94779284D01*
X80440500Y-94779284D01*
X80440500Y-94019595D01*
X84381283Y-94019595D01*
X84406601Y-94237469D01*
X84473938Y-94446218D01*
X84558935Y-94605233D01*
X84720716Y-94689481D01*
X85410197Y-94000000D01*
X85589803Y-94000000D01*
X86279284Y-94689481D01*
X86441065Y-94605233D01*
X86541058Y-94410012D01*
X86601044Y-94199033D01*
X86618717Y-93980405D01*
X86593399Y-93762531D01*
X86526062Y-93553782D01*
X86441065Y-93394767D01*
X86279284Y-93310519D01*
X85589803Y-94000000D01*
X85410197Y-94000000D01*
X84720716Y-93310519D01*
X84558935Y-93394767D01*
X84458942Y-93589988D01*
X84398956Y-93800967D01*
X84381283Y-94019595D01*
X80440500Y-94019595D01*
X80440500Y-93220716D01*
X84810519Y-93220716D01*
X85500000Y-93910197D01*
X86189481Y-93220716D01*
X86105233Y-93058935D01*
X85910012Y-92958942D01*
X85699033Y-92898956D01*
X85480405Y-92881283D01*
X85262531Y-92906601D01*
X85053782Y-92973938D01*
X84894767Y-93058935D01*
X84810519Y-93220716D01*
X80440500Y-93220716D01*
X80440500Y-84632943D01*
X82311500Y-84632943D01*
X82311500Y-84867057D01*
X82357173Y-85096673D01*
X82446765Y-85312966D01*
X82576831Y-85507625D01*
X82742375Y-85673169D01*
X82937034Y-85803235D01*
X83153327Y-85892827D01*
X83382943Y-85938500D01*
X83617057Y-85938500D01*
X83846673Y-85892827D01*
X84062966Y-85803235D01*
X84257625Y-85673169D01*
X84423169Y-85507625D01*
X84553235Y-85312966D01*
X84642827Y-85096673D01*
X84688500Y-84867057D01*
X84688500Y-84632943D01*
X84642827Y-84403327D01*
X84553235Y-84187034D01*
X84423169Y-83992375D01*
X84257625Y-83826831D01*
X84062966Y-83696765D01*
X83846673Y-83607173D01*
X83617057Y-83561500D01*
X83382943Y-83561500D01*
X83153327Y-83607173D01*
X82937034Y-83696765D01*
X82742375Y-83826831D01*
X82576831Y-83992375D01*
X82446765Y-84187034D01*
X82357173Y-84403327D01*
X82311500Y-84632943D01*
X80440500Y-84632943D01*
X80440500Y-76521547D01*
X80461091Y-76311537D01*
X81586500Y-76311537D01*
X81586500Y-76688463D01*
X81660034Y-77058147D01*
X81804278Y-77406382D01*
X82013687Y-77719785D01*
X82280215Y-77986313D01*
X82593618Y-78195722D01*
X82941853Y-78339966D01*
X83311537Y-78413500D01*
X83688463Y-78413500D01*
X84058147Y-78339966D01*
X84406382Y-78195722D01*
X84719785Y-77986313D01*
X84986313Y-77719785D01*
X85195722Y-77406382D01*
X85339966Y-77058147D01*
X85413500Y-76688463D01*
X85413500Y-76610782D01*
X88466500Y-76610782D01*
X88466500Y-76889218D01*
X88520820Y-77162303D01*
X88627373Y-77419543D01*
X88782063Y-77651054D01*
X88912778Y-77781769D01*
X88919207Y-77790062D01*
X88947721Y-77820206D01*
X88998134Y-77882633D01*
X89041955Y-77946951D01*
X89079595Y-78013489D01*
X89111376Y-78082674D01*
X89137519Y-78155031D01*
X89158088Y-78231062D01*
X89173041Y-78311332D01*
X89182194Y-78396170D01*
X89183744Y-78440744D01*
X89185501Y-78454331D01*
X89185500Y-83499823D01*
X89091362Y-83593961D01*
X88892897Y-83890986D01*
X88756192Y-84221021D01*
X88686500Y-84571386D01*
X88686500Y-84928614D01*
X88756192Y-85278979D01*
X88892897Y-85609014D01*
X89091362Y-85906039D01*
X89343961Y-86158638D01*
X89640986Y-86357103D01*
X89971021Y-86493808D01*
X90321386Y-86563500D01*
X90678614Y-86563500D01*
X91028979Y-86493808D01*
X91359014Y-86357103D01*
X91656039Y-86158638D01*
X91908638Y-85906039D01*
X92107103Y-85609014D01*
X92243808Y-85278979D01*
X92313500Y-84928614D01*
X92313500Y-84571386D01*
X92243808Y-84221021D01*
X92107103Y-83890986D01*
X91908638Y-83593961D01*
X91734912Y-83420235D01*
X91726101Y-83408902D01*
X91651260Y-83330005D01*
X91531289Y-83185570D01*
X91410016Y-83021145D01*
X91287877Y-82836710D01*
X91165231Y-82632310D01*
X91042416Y-82408106D01*
X90919633Y-82164148D01*
X90797077Y-81900559D01*
X90674882Y-81617408D01*
X90577068Y-81374213D01*
X90574500Y-81368654D01*
X90574500Y-78453873D01*
X90576256Y-78440739D01*
X90577805Y-78396170D01*
X90586958Y-78311330D01*
X90601911Y-78231062D01*
X90622480Y-78155031D01*
X90648623Y-78082674D01*
X90680404Y-78013489D01*
X90718044Y-77946951D01*
X90761865Y-77882633D01*
X90812278Y-77820206D01*
X90840790Y-77790065D01*
X90850223Y-77778768D01*
X90977937Y-77651054D01*
X91132627Y-77419543D01*
X91239180Y-77162303D01*
X91293500Y-76889218D01*
X91293500Y-76610782D01*
X91239180Y-76337697D01*
X91132627Y-76080457D01*
X90977937Y-75848946D01*
X90781054Y-75652063D01*
X90777967Y-75650000D01*
X96084984Y-75650000D01*
X96084984Y-77850000D01*
X96091037Y-77911457D01*
X96108963Y-77970551D01*
X96138074Y-78025014D01*
X96177250Y-78072750D01*
X96224986Y-78111926D01*
X96279449Y-78141037D01*
X96338543Y-78158963D01*
X96400000Y-78165016D01*
X97563207Y-78165016D01*
X97597527Y-78165970D01*
X97677313Y-78174464D01*
X97753779Y-78188957D01*
X97827441Y-78209390D01*
X97898854Y-78235846D01*
X97968485Y-78268516D01*
X98036812Y-78307746D01*
X98104121Y-78353915D01*
X98170599Y-78407445D01*
X98203208Y-78437863D01*
X98214058Y-78446228D01*
X99165287Y-79397458D01*
X99187038Y-79423962D01*
X99292790Y-79510749D01*
X99413441Y-79575239D01*
X99544354Y-79614951D01*
X99646385Y-79625000D01*
X99646387Y-79625000D01*
X99680500Y-79628360D01*
X99714612Y-79625000D01*
X102704626Y-79625000D01*
X102738738Y-79628360D01*
X102772850Y-79625000D01*
X102772853Y-79625000D01*
X102874884Y-79614951D01*
X103005797Y-79575239D01*
X103126448Y-79510749D01*
X103232200Y-79423962D01*
X103253955Y-79397453D01*
X104466963Y-78184446D01*
X104493461Y-78162700D01*
X104541516Y-78104145D01*
X104580249Y-78056949D01*
X104618005Y-77986313D01*
X104644739Y-77936297D01*
X104684451Y-77805384D01*
X104694500Y-77703353D01*
X104694500Y-77703351D01*
X104697860Y-77669238D01*
X104694500Y-77635126D01*
X104694500Y-77572372D01*
X104694846Y-77569258D01*
X104695161Y-77544022D01*
X104696988Y-77499105D01*
X104699833Y-77460740D01*
X104703423Y-77429452D01*
X104707283Y-77406019D01*
X104707492Y-77405102D01*
X104748399Y-77364195D01*
X104853843Y-77206388D01*
X104926473Y-77031043D01*
X104963500Y-76844896D01*
X104963500Y-76655104D01*
X104926473Y-76468957D01*
X104853843Y-76293612D01*
X104748399Y-76135805D01*
X104614195Y-76001601D01*
X104456388Y-75896157D01*
X104281043Y-75823527D01*
X104094896Y-75786500D01*
X103905104Y-75786500D01*
X103718957Y-75823527D01*
X103543612Y-75896157D01*
X103385805Y-76001601D01*
X103251601Y-76135805D01*
X103221360Y-76181064D01*
X103174782Y-76068615D01*
X103017356Y-75833010D01*
X102816990Y-75632644D01*
X102581385Y-75475218D01*
X102319595Y-75366781D01*
X102041680Y-75311500D01*
X101758320Y-75311500D01*
X101480405Y-75366781D01*
X101218615Y-75475218D01*
X100983010Y-75632644D01*
X100782644Y-75833010D01*
X100625218Y-76068615D01*
X100516781Y-76330405D01*
X100461500Y-76608320D01*
X100461500Y-76891680D01*
X100516781Y-77169595D01*
X100625218Y-77431385D01*
X100782644Y-77666990D01*
X100983010Y-77867356D01*
X101218615Y-78024782D01*
X101480405Y-78133219D01*
X101758320Y-78188500D01*
X102041680Y-78188500D01*
X102319595Y-78133219D01*
X102581385Y-78024782D01*
X102816990Y-77867356D01*
X103017356Y-77666990D01*
X103174782Y-77431385D01*
X103221360Y-77318936D01*
X103251601Y-77364195D01*
X103287237Y-77399831D01*
X102451068Y-78236000D01*
X99968171Y-78236000D01*
X99195911Y-77463740D01*
X99187863Y-77453208D01*
X99157445Y-77420599D01*
X99103915Y-77354121D01*
X99057746Y-77286812D01*
X99018516Y-77218485D01*
X98985846Y-77148854D01*
X98959390Y-77077441D01*
X98938957Y-77003779D01*
X98924464Y-76927313D01*
X98915970Y-76847527D01*
X98915016Y-76813207D01*
X98915016Y-75650000D01*
X98908963Y-75588543D01*
X98891037Y-75529449D01*
X98861926Y-75474986D01*
X98822750Y-75427250D01*
X98775014Y-75388074D01*
X98720551Y-75358963D01*
X98661457Y-75341037D01*
X98600000Y-75334984D01*
X96400000Y-75334984D01*
X96338543Y-75341037D01*
X96279449Y-75358963D01*
X96224986Y-75388074D01*
X96177250Y-75427250D01*
X96138074Y-75474986D01*
X96108963Y-75529449D01*
X96091037Y-75588543D01*
X96084984Y-75650000D01*
X90777967Y-75650000D01*
X90549543Y-75497373D01*
X90292303Y-75390820D01*
X90019218Y-75336500D01*
X89740782Y-75336500D01*
X89467697Y-75390820D01*
X89210457Y-75497373D01*
X88978946Y-75652063D01*
X88782063Y-75848946D01*
X88627373Y-76080457D01*
X88520820Y-76337697D01*
X88466500Y-76610782D01*
X85413500Y-76610782D01*
X85413500Y-76311537D01*
X85339966Y-75941853D01*
X85195722Y-75593618D01*
X84986313Y-75280215D01*
X84719785Y-75013687D01*
X84406382Y-74804278D01*
X84058147Y-74660034D01*
X83688463Y-74586500D01*
X83311537Y-74586500D01*
X82941853Y-74660034D01*
X82593618Y-74804278D01*
X82280215Y-75013687D01*
X82013687Y-75280215D01*
X81804278Y-75593618D01*
X81660034Y-75941853D01*
X81586500Y-76311537D01*
X80461091Y-76311537D01*
X80500840Y-75906149D01*
X80673305Y-75334919D01*
X80953439Y-74808065D01*
X81330568Y-74345659D01*
X81790331Y-73965310D01*
X82315215Y-73681507D01*
X82885225Y-73505059D01*
X83499420Y-73440504D01*
X83500670Y-73440500D01*
X116478453Y-73440500D01*
X117093851Y-73500840D01*
G37*
G04 #@! TD.AperFunction*
D28*
X109869361Y-96804272D02*
X109869992Y-96824564D01*
X109870012Y-96824983D01*
X109870435Y-96831569D01*
X109870469Y-96831987D01*
X109875175Y-96880283D01*
X109875226Y-96880729D01*
X109876163Y-96887757D01*
X109876231Y-96888203D01*
X109883955Y-96933734D01*
X109884044Y-96934207D01*
X109885590Y-96941607D01*
X109885697Y-96942074D01*
X109896350Y-96984928D01*
X109896482Y-96985418D01*
X109898716Y-96993083D01*
X109898868Y-96993566D01*
X109912382Y-97033870D01*
X109912561Y-97034370D01*
X109915538Y-97042154D01*
X109915737Y-97042643D01*
X109932075Y-97080557D01*
X109932301Y-97081053D01*
X109936035Y-97088786D01*
X109936283Y-97089272D01*
X109955455Y-97124976D01*
X109955728Y-97125459D01*
X109960185Y-97132954D01*
X109960478Y-97133423D01*
X109982543Y-97167101D01*
X109982857Y-97167558D01*
X109987952Y-97174640D01*
X109988285Y-97175083D01*
X110013351Y-97206898D01*
X110013698Y-97207319D01*
X110019303Y-97213836D01*
X110019668Y-97214242D01*
X110030861Y-97226178D01*
X110034485Y-97257515D01*
X109576750Y-98051452D01*
X109529597Y-98091051D01*
X109470403Y-98091051D01*
X109423250Y-98051452D01*
X108965515Y-97257515D01*
X108969139Y-97226178D01*
X108980332Y-97214242D01*
X108980697Y-97213835D01*
X108986301Y-97207318D01*
X108986648Y-97206898D01*
X109011714Y-97175083D01*
X109012047Y-97174640D01*
X109017142Y-97167558D01*
X109017456Y-97167101D01*
X109039521Y-97133423D01*
X109039814Y-97132954D01*
X109044271Y-97125459D01*
X109044544Y-97124976D01*
X109063716Y-97089272D01*
X109063964Y-97088786D01*
X109067698Y-97081053D01*
X109067924Y-97080557D01*
X109084262Y-97042643D01*
X109084461Y-97042154D01*
X109087438Y-97034370D01*
X109087617Y-97033870D01*
X109101131Y-96993566D01*
X109101283Y-96993083D01*
X109103517Y-96985418D01*
X109103649Y-96984928D01*
X109114302Y-96942074D01*
X109114409Y-96941607D01*
X109115955Y-96934207D01*
X109116044Y-96933734D01*
X109123768Y-96888203D01*
X109123836Y-96887757D01*
X109124773Y-96880729D01*
X109124824Y-96880283D01*
X109129530Y-96831986D01*
X109129564Y-96831568D01*
X109129987Y-96824984D01*
X109130007Y-96824565D01*
X109130639Y-96804272D01*
X109152893Y-96782701D01*
X109847107Y-96782701D01*
X109869361Y-96804272D01*
G04 #@! TA.AperFunction,Conductor*
D27*
G36*
X109869361Y-96804272D02*
G01*
X109869992Y-96824564D01*
X109870012Y-96824983D01*
X109870435Y-96831569D01*
X109870469Y-96831987D01*
X109875175Y-96880283D01*
X109875226Y-96880729D01*
X109876163Y-96887757D01*
X109876231Y-96888203D01*
X109883955Y-96933734D01*
X109884044Y-96934207D01*
X109885590Y-96941607D01*
X109885697Y-96942074D01*
X109896350Y-96984928D01*
X109896482Y-96985418D01*
X109898716Y-96993083D01*
X109898868Y-96993566D01*
X109912382Y-97033870D01*
X109912561Y-97034370D01*
X109915538Y-97042154D01*
X109915737Y-97042643D01*
X109932075Y-97080557D01*
X109932301Y-97081053D01*
X109936035Y-97088786D01*
X109936283Y-97089272D01*
X109955455Y-97124976D01*
X109955728Y-97125459D01*
X109960185Y-97132954D01*
X109960478Y-97133423D01*
X109982543Y-97167101D01*
X109982857Y-97167558D01*
X109987952Y-97174640D01*
X109988285Y-97175083D01*
X110013351Y-97206898D01*
X110013698Y-97207319D01*
X110019303Y-97213836D01*
X110019668Y-97214242D01*
X110030861Y-97226178D01*
X110034485Y-97257515D01*
X109576750Y-98051452D01*
X109529597Y-98091051D01*
X109470403Y-98091051D01*
X109423250Y-98051452D01*
X108965515Y-97257515D01*
X108969139Y-97226178D01*
X108980332Y-97214242D01*
X108980697Y-97213835D01*
X108986301Y-97207318D01*
X108986648Y-97206898D01*
X109011714Y-97175083D01*
X109012047Y-97174640D01*
X109017142Y-97167558D01*
X109017456Y-97167101D01*
X109039521Y-97133423D01*
X109039814Y-97132954D01*
X109044271Y-97125459D01*
X109044544Y-97124976D01*
X109063716Y-97089272D01*
X109063964Y-97088786D01*
X109067698Y-97081053D01*
X109067924Y-97080557D01*
X109084262Y-97042643D01*
X109084461Y-97042154D01*
X109087438Y-97034370D01*
X109087617Y-97033870D01*
X109101131Y-96993566D01*
X109101283Y-96993083D01*
X109103517Y-96985418D01*
X109103649Y-96984928D01*
X109114302Y-96942074D01*
X109114409Y-96941607D01*
X109115955Y-96934207D01*
X109116044Y-96933734D01*
X109123768Y-96888203D01*
X109123836Y-96887757D01*
X109124773Y-96880729D01*
X109124824Y-96880283D01*
X109129530Y-96831986D01*
X109129564Y-96831568D01*
X109129987Y-96824984D01*
X109130007Y-96824565D01*
X109130639Y-96804272D01*
X109152893Y-96782701D01*
X109847107Y-96782701D01*
X109869361Y-96804272D01*
G37*
G04 #@! TD.AperFunction*
D28*
X109576750Y-93758548D02*
X110034485Y-94552485D01*
X110030861Y-94583821D01*
X110019669Y-94595756D01*
X110019305Y-94596162D01*
X110013698Y-94602681D01*
X110013350Y-94603103D01*
X109988284Y-94634919D01*
X109987950Y-94635362D01*
X109982857Y-94642442D01*
X109982544Y-94642898D01*
X109960478Y-94676575D01*
X109960184Y-94677045D01*
X109955727Y-94684542D01*
X109955455Y-94685024D01*
X109936283Y-94720728D01*
X109936036Y-94721213D01*
X109932302Y-94728945D01*
X109932075Y-94729442D01*
X109915737Y-94767355D01*
X109915538Y-94767845D01*
X109912561Y-94775631D01*
X109912382Y-94776130D01*
X109898868Y-94816435D01*
X109898716Y-94816918D01*
X109896482Y-94824582D01*
X109896350Y-94825072D01*
X109885697Y-94867925D01*
X109885590Y-94868392D01*
X109884044Y-94875793D01*
X109883955Y-94876266D01*
X109876231Y-94921797D01*
X109876163Y-94922242D01*
X109875226Y-94929269D01*
X109875175Y-94929716D01*
X109870469Y-94978012D01*
X109870435Y-94978430D01*
X109870012Y-94985016D01*
X109869992Y-94985435D01*
X109869361Y-95005728D01*
X109847107Y-95027299D01*
X109152893Y-95027299D01*
X109130639Y-95005728D01*
X109130007Y-94985434D01*
X109129987Y-94985015D01*
X109129564Y-94978431D01*
X109129530Y-94978013D01*
X109124824Y-94929716D01*
X109124773Y-94929269D01*
X109123836Y-94922242D01*
X109123768Y-94921797D01*
X109116044Y-94876266D01*
X109115955Y-94875793D01*
X109114409Y-94868392D01*
X109114302Y-94867925D01*
X109103649Y-94825072D01*
X109103517Y-94824582D01*
X109101283Y-94816918D01*
X109101131Y-94816435D01*
X109087617Y-94776130D01*
X109087438Y-94775631D01*
X109084461Y-94767845D01*
X109084262Y-94767355D01*
X109067924Y-94729442D01*
X109067697Y-94728945D01*
X109063963Y-94721213D01*
X109063716Y-94720728D01*
X109044544Y-94685024D01*
X109044272Y-94684542D01*
X109039815Y-94677045D01*
X109039521Y-94676575D01*
X109017455Y-94642898D01*
X109017142Y-94642442D01*
X109012049Y-94635362D01*
X109011715Y-94634919D01*
X108986649Y-94603103D01*
X108986302Y-94602681D01*
X108980696Y-94596162D01*
X108980331Y-94595756D01*
X108969139Y-94583821D01*
X108965515Y-94552485D01*
X109423250Y-93758548D01*
X109470403Y-93718949D01*
X109529597Y-93718949D01*
X109576750Y-93758548D01*
G04 #@! TA.AperFunction,Conductor*
D27*
G36*
X109576750Y-93758548D02*
G01*
X110034485Y-94552485D01*
X110030861Y-94583821D01*
X110019669Y-94595756D01*
X110019305Y-94596162D01*
X110013698Y-94602681D01*
X110013350Y-94603103D01*
X109988284Y-94634919D01*
X109987950Y-94635362D01*
X109982857Y-94642442D01*
X109982544Y-94642898D01*
X109960478Y-94676575D01*
X109960184Y-94677045D01*
X109955727Y-94684542D01*
X109955455Y-94685024D01*
X109936283Y-94720728D01*
X109936036Y-94721213D01*
X109932302Y-94728945D01*
X109932075Y-94729442D01*
X109915737Y-94767355D01*
X109915538Y-94767845D01*
X109912561Y-94775631D01*
X109912382Y-94776130D01*
X109898868Y-94816435D01*
X109898716Y-94816918D01*
X109896482Y-94824582D01*
X109896350Y-94825072D01*
X109885697Y-94867925D01*
X109885590Y-94868392D01*
X109884044Y-94875793D01*
X109883955Y-94876266D01*
X109876231Y-94921797D01*
X109876163Y-94922242D01*
X109875226Y-94929269D01*
X109875175Y-94929716D01*
X109870469Y-94978012D01*
X109870435Y-94978430D01*
X109870012Y-94985016D01*
X109869992Y-94985435D01*
X109869361Y-95005728D01*
X109847107Y-95027299D01*
X109152893Y-95027299D01*
X109130639Y-95005728D01*
X109130007Y-94985434D01*
X109129987Y-94985015D01*
X109129564Y-94978431D01*
X109129530Y-94978013D01*
X109124824Y-94929716D01*
X109124773Y-94929269D01*
X109123836Y-94922242D01*
X109123768Y-94921797D01*
X109116044Y-94876266D01*
X109115955Y-94875793D01*
X109114409Y-94868392D01*
X109114302Y-94867925D01*
X109103649Y-94825072D01*
X109103517Y-94824582D01*
X109101283Y-94816918D01*
X109101131Y-94816435D01*
X109087617Y-94776130D01*
X109087438Y-94775631D01*
X109084461Y-94767845D01*
X109084262Y-94767355D01*
X109067924Y-94729442D01*
X109067697Y-94728945D01*
X109063963Y-94721213D01*
X109063716Y-94720728D01*
X109044544Y-94685024D01*
X109044272Y-94684542D01*
X109039815Y-94677045D01*
X109039521Y-94676575D01*
X109017455Y-94642898D01*
X109017142Y-94642442D01*
X109012049Y-94635362D01*
X109011715Y-94634919D01*
X108986649Y-94603103D01*
X108986302Y-94602681D01*
X108980696Y-94596162D01*
X108980331Y-94595756D01*
X108969139Y-94583821D01*
X108965515Y-94552485D01*
X109423250Y-93758548D01*
X109470403Y-93718949D01*
X109529597Y-93718949D01*
X109576750Y-93758548D01*
G37*
G04 #@! TD.AperFunction*
D28*
X97125977Y-100492987D02*
X97317013Y-100684023D01*
X97330094Y-100714841D01*
X97318097Y-100746095D01*
X97286159Y-100780343D01*
X97285850Y-100780688D01*
X97281068Y-100786206D01*
X97280770Y-100786562D01*
X97220961Y-100860906D01*
X97220662Y-100861292D01*
X97216075Y-100867465D01*
X97215791Y-100867863D01*
X97163432Y-100944306D01*
X97163153Y-100944733D01*
X97158891Y-100951525D01*
X97158629Y-100951961D01*
X97113589Y-101030562D01*
X97113337Y-101031022D01*
X97109531Y-101038350D01*
X97109299Y-101038821D01*
X97071454Y-101119682D01*
X97071239Y-101120168D01*
X97068004Y-101127909D01*
X97067809Y-101128406D01*
X97037055Y-101211668D01*
X97036880Y-101212173D01*
X97034301Y-101220176D01*
X97034148Y-101220687D01*
X97010422Y-101306509D01*
X97010292Y-101307021D01*
X97008413Y-101315115D01*
X97008304Y-101315631D01*
X96991584Y-101404190D01*
X96991499Y-101404697D01*
X96990320Y-101412708D01*
X96990256Y-101413218D01*
X96980561Y-101504675D01*
X96980518Y-101505169D01*
X96979999Y-101512949D01*
X96979976Y-101513443D01*
X96978731Y-101558544D01*
X96966158Y-101593222D01*
X96935358Y-101613517D01*
X96073539Y-101845002D01*
X96012194Y-101839660D01*
X95970340Y-101797806D01*
X95964998Y-101736461D01*
X96196485Y-100874640D01*
X96216777Y-100843841D01*
X96251455Y-100831269D01*
X96296556Y-100830023D01*
X96297050Y-100830000D01*
X96304830Y-100829481D01*
X96305324Y-100829438D01*
X96396781Y-100819743D01*
X96397291Y-100819679D01*
X96405302Y-100818500D01*
X96405809Y-100818415D01*
X96494368Y-100801695D01*
X96494884Y-100801586D01*
X96502978Y-100799707D01*
X96503490Y-100799577D01*
X96589313Y-100775851D01*
X96589825Y-100775698D01*
X96597827Y-100773119D01*
X96598331Y-100772944D01*
X96681592Y-100742191D01*
X96682088Y-100741996D01*
X96689830Y-100738761D01*
X96690318Y-100738546D01*
X96771180Y-100700700D01*
X96771650Y-100700468D01*
X96778978Y-100696662D01*
X96779438Y-100696410D01*
X96858039Y-100651370D01*
X96858476Y-100651108D01*
X96865267Y-100646846D01*
X96865693Y-100646567D01*
X96942136Y-100594208D01*
X96942534Y-100593924D01*
X96948707Y-100589337D01*
X96949093Y-100589038D01*
X97023437Y-100529229D01*
X97023793Y-100528932D01*
X97029310Y-100524151D01*
X97029654Y-100523841D01*
X97063903Y-100491904D01*
X97095159Y-100479906D01*
X97125977Y-100492987D01*
G04 #@! TA.AperFunction,Conductor*
D27*
G36*
X97125977Y-100492987D02*
G01*
X97317013Y-100684023D01*
X97330094Y-100714841D01*
X97318097Y-100746095D01*
X97286159Y-100780343D01*
X97285850Y-100780688D01*
X97281068Y-100786206D01*
X97280770Y-100786562D01*
X97220961Y-100860906D01*
X97220662Y-100861292D01*
X97216075Y-100867465D01*
X97215791Y-100867863D01*
X97163432Y-100944306D01*
X97163153Y-100944733D01*
X97158891Y-100951525D01*
X97158629Y-100951961D01*
X97113589Y-101030562D01*
X97113337Y-101031022D01*
X97109531Y-101038350D01*
X97109299Y-101038821D01*
X97071454Y-101119682D01*
X97071239Y-101120168D01*
X97068004Y-101127909D01*
X97067809Y-101128406D01*
X97037055Y-101211668D01*
X97036880Y-101212173D01*
X97034301Y-101220176D01*
X97034148Y-101220687D01*
X97010422Y-101306509D01*
X97010292Y-101307021D01*
X97008413Y-101315115D01*
X97008304Y-101315631D01*
X96991584Y-101404190D01*
X96991499Y-101404697D01*
X96990320Y-101412708D01*
X96990256Y-101413218D01*
X96980561Y-101504675D01*
X96980518Y-101505169D01*
X96979999Y-101512949D01*
X96979976Y-101513443D01*
X96978731Y-101558544D01*
X96966158Y-101593222D01*
X96935358Y-101613517D01*
X96073539Y-101845002D01*
X96012194Y-101839660D01*
X95970340Y-101797806D01*
X95964998Y-101736461D01*
X96196485Y-100874640D01*
X96216777Y-100843841D01*
X96251455Y-100831269D01*
X96296556Y-100830023D01*
X96297050Y-100830000D01*
X96304830Y-100829481D01*
X96305324Y-100829438D01*
X96396781Y-100819743D01*
X96397291Y-100819679D01*
X96405302Y-100818500D01*
X96405809Y-100818415D01*
X96494368Y-100801695D01*
X96494884Y-100801586D01*
X96502978Y-100799707D01*
X96503490Y-100799577D01*
X96589313Y-100775851D01*
X96589825Y-100775698D01*
X96597827Y-100773119D01*
X96598331Y-100772944D01*
X96681592Y-100742191D01*
X96682088Y-100741996D01*
X96689830Y-100738761D01*
X96690318Y-100738546D01*
X96771180Y-100700700D01*
X96771650Y-100700468D01*
X96778978Y-100696662D01*
X96779438Y-100696410D01*
X96858039Y-100651370D01*
X96858476Y-100651108D01*
X96865267Y-100646846D01*
X96865693Y-100646567D01*
X96942136Y-100594208D01*
X96942534Y-100593924D01*
X96948707Y-100589337D01*
X96949093Y-100589038D01*
X97023437Y-100529229D01*
X97023793Y-100528932D01*
X97029310Y-100524151D01*
X97029654Y-100523841D01*
X97063903Y-100491904D01*
X97095159Y-100479906D01*
X97125977Y-100492987D01*
G37*
G04 #@! TD.AperFunction*
D28*
X109677806Y-97590340D02*
X109719660Y-97632194D01*
X109725002Y-97693539D01*
X109493517Y-98555358D01*
X109473222Y-98586158D01*
X109438544Y-98598731D01*
X109393443Y-98599976D01*
X109392949Y-98599999D01*
X109385169Y-98600518D01*
X109384675Y-98600561D01*
X109293218Y-98610256D01*
X109292708Y-98610320D01*
X109284697Y-98611499D01*
X109284190Y-98611584D01*
X109195631Y-98628304D01*
X109195115Y-98628413D01*
X109187021Y-98630292D01*
X109186509Y-98630422D01*
X109100687Y-98654148D01*
X109100176Y-98654301D01*
X109092173Y-98656880D01*
X109091668Y-98657055D01*
X109008406Y-98687809D01*
X109007909Y-98688004D01*
X109000168Y-98691239D01*
X108999682Y-98691454D01*
X108918821Y-98729299D01*
X108918350Y-98729531D01*
X108911022Y-98733337D01*
X108910562Y-98733589D01*
X108831961Y-98778629D01*
X108831525Y-98778891D01*
X108824733Y-98783153D01*
X108824306Y-98783432D01*
X108747863Y-98835791D01*
X108747465Y-98836075D01*
X108741292Y-98840662D01*
X108740906Y-98840961D01*
X108666562Y-98900770D01*
X108666206Y-98901068D01*
X108660688Y-98905850D01*
X108660343Y-98906159D01*
X108626095Y-98938097D01*
X108594841Y-98950094D01*
X108564023Y-98937013D01*
X108372987Y-98745977D01*
X108359906Y-98715159D01*
X108371904Y-98683903D01*
X108403841Y-98649654D01*
X108404151Y-98649310D01*
X108408932Y-98643793D01*
X108409229Y-98643437D01*
X108469038Y-98569093D01*
X108469337Y-98568707D01*
X108473924Y-98562534D01*
X108474208Y-98562136D01*
X108526567Y-98485693D01*
X108526846Y-98485267D01*
X108531108Y-98478476D01*
X108531370Y-98478039D01*
X108576410Y-98399438D01*
X108576662Y-98398978D01*
X108580468Y-98391650D01*
X108580700Y-98391180D01*
X108618546Y-98310318D01*
X108618761Y-98309830D01*
X108621996Y-98302088D01*
X108622191Y-98301592D01*
X108652944Y-98218331D01*
X108653119Y-98217827D01*
X108655698Y-98209825D01*
X108655851Y-98209313D01*
X108679577Y-98123490D01*
X108679707Y-98122978D01*
X108681586Y-98114884D01*
X108681695Y-98114368D01*
X108698415Y-98025809D01*
X108698500Y-98025302D01*
X108699679Y-98017291D01*
X108699743Y-98016781D01*
X108709438Y-97925324D01*
X108709481Y-97924830D01*
X108710000Y-97917050D01*
X108710023Y-97916556D01*
X108711269Y-97871455D01*
X108723841Y-97836777D01*
X108754640Y-97816485D01*
X109616461Y-97584998D01*
X109677806Y-97590340D01*
G04 #@! TA.AperFunction,Conductor*
D27*
G36*
X109677806Y-97590340D02*
G01*
X109719660Y-97632194D01*
X109725002Y-97693539D01*
X109493517Y-98555358D01*
X109473222Y-98586158D01*
X109438544Y-98598731D01*
X109393443Y-98599976D01*
X109392949Y-98599999D01*
X109385169Y-98600518D01*
X109384675Y-98600561D01*
X109293218Y-98610256D01*
X109292708Y-98610320D01*
X109284697Y-98611499D01*
X109284190Y-98611584D01*
X109195631Y-98628304D01*
X109195115Y-98628413D01*
X109187021Y-98630292D01*
X109186509Y-98630422D01*
X109100687Y-98654148D01*
X109100176Y-98654301D01*
X109092173Y-98656880D01*
X109091668Y-98657055D01*
X109008406Y-98687809D01*
X109007909Y-98688004D01*
X109000168Y-98691239D01*
X108999682Y-98691454D01*
X108918821Y-98729299D01*
X108918350Y-98729531D01*
X108911022Y-98733337D01*
X108910562Y-98733589D01*
X108831961Y-98778629D01*
X108831525Y-98778891D01*
X108824733Y-98783153D01*
X108824306Y-98783432D01*
X108747863Y-98835791D01*
X108747465Y-98836075D01*
X108741292Y-98840662D01*
X108740906Y-98840961D01*
X108666562Y-98900770D01*
X108666206Y-98901068D01*
X108660688Y-98905850D01*
X108660343Y-98906159D01*
X108626095Y-98938097D01*
X108594841Y-98950094D01*
X108564023Y-98937013D01*
X108372987Y-98745977D01*
X108359906Y-98715159D01*
X108371904Y-98683903D01*
X108403841Y-98649654D01*
X108404151Y-98649310D01*
X108408932Y-98643793D01*
X108409229Y-98643437D01*
X108469038Y-98569093D01*
X108469337Y-98568707D01*
X108473924Y-98562534D01*
X108474208Y-98562136D01*
X108526567Y-98485693D01*
X108526846Y-98485267D01*
X108531108Y-98478476D01*
X108531370Y-98478039D01*
X108576410Y-98399438D01*
X108576662Y-98398978D01*
X108580468Y-98391650D01*
X108580700Y-98391180D01*
X108618546Y-98310318D01*
X108618761Y-98309830D01*
X108621996Y-98302088D01*
X108622191Y-98301592D01*
X108652944Y-98218331D01*
X108653119Y-98217827D01*
X108655698Y-98209825D01*
X108655851Y-98209313D01*
X108679577Y-98123490D01*
X108679707Y-98122978D01*
X108681586Y-98114884D01*
X108681695Y-98114368D01*
X108698415Y-98025809D01*
X108698500Y-98025302D01*
X108699679Y-98017291D01*
X108699743Y-98016781D01*
X108709438Y-97925324D01*
X108709481Y-97924830D01*
X108710000Y-97917050D01*
X108710023Y-97916556D01*
X108711269Y-97871455D01*
X108723841Y-97836777D01*
X108754640Y-97816485D01*
X109616461Y-97584998D01*
X109677806Y-97590340D01*
G37*
G04 #@! TD.AperFunction*
D28*
X109741452Y-93923250D02*
X109781051Y-93970403D01*
X109781051Y-94029597D01*
X109741452Y-94076750D01*
X108947515Y-94534485D01*
X108916178Y-94530861D01*
X108904242Y-94519668D01*
X108903836Y-94519303D01*
X108897319Y-94513698D01*
X108896898Y-94513351D01*
X108865083Y-94488285D01*
X108864640Y-94487952D01*
X108857558Y-94482857D01*
X108857101Y-94482543D01*
X108823423Y-94460478D01*
X108822954Y-94460185D01*
X108815459Y-94455728D01*
X108814976Y-94455455D01*
X108779272Y-94436283D01*
X108778786Y-94436035D01*
X108771053Y-94432301D01*
X108770557Y-94432075D01*
X108732643Y-94415737D01*
X108732154Y-94415538D01*
X108724370Y-94412561D01*
X108723870Y-94412382D01*
X108683566Y-94398868D01*
X108683083Y-94398716D01*
X108675418Y-94396482D01*
X108674928Y-94396350D01*
X108632074Y-94385697D01*
X108631607Y-94385590D01*
X108624207Y-94384044D01*
X108623734Y-94383955D01*
X108578203Y-94376231D01*
X108577757Y-94376163D01*
X108570729Y-94375226D01*
X108570283Y-94375175D01*
X108521987Y-94370469D01*
X108521569Y-94370435D01*
X108514983Y-94370012D01*
X108514564Y-94369992D01*
X108494272Y-94369361D01*
X108472701Y-94347107D01*
X108472701Y-93652893D01*
X108494272Y-93630639D01*
X108514565Y-93630007D01*
X108514984Y-93629987D01*
X108521568Y-93629564D01*
X108521986Y-93629530D01*
X108570283Y-93624824D01*
X108570729Y-93624773D01*
X108577757Y-93623836D01*
X108578203Y-93623768D01*
X108623734Y-93616044D01*
X108624207Y-93615955D01*
X108631607Y-93614409D01*
X108632074Y-93614302D01*
X108674928Y-93603649D01*
X108675418Y-93603517D01*
X108683083Y-93601283D01*
X108683566Y-93601131D01*
X108723870Y-93587617D01*
X108724370Y-93587438D01*
X108732154Y-93584461D01*
X108732643Y-93584262D01*
X108770557Y-93567924D01*
X108771053Y-93567698D01*
X108778786Y-93563964D01*
X108779272Y-93563716D01*
X108814976Y-93544544D01*
X108815459Y-93544271D01*
X108822954Y-93539814D01*
X108823423Y-93539521D01*
X108857101Y-93517456D01*
X108857558Y-93517142D01*
X108864640Y-93512047D01*
X108865083Y-93511714D01*
X108896898Y-93486648D01*
X108897318Y-93486301D01*
X108903835Y-93480697D01*
X108904242Y-93480332D01*
X108916178Y-93469139D01*
X108947515Y-93465515D01*
X109741452Y-93923250D01*
G04 #@! TA.AperFunction,Conductor*
D27*
G36*
X109741452Y-93923250D02*
G01*
X109781051Y-93970403D01*
X109781051Y-94029597D01*
X109741452Y-94076750D01*
X108947515Y-94534485D01*
X108916178Y-94530861D01*
X108904242Y-94519668D01*
X108903836Y-94519303D01*
X108897319Y-94513698D01*
X108896898Y-94513351D01*
X108865083Y-94488285D01*
X108864640Y-94487952D01*
X108857558Y-94482857D01*
X108857101Y-94482543D01*
X108823423Y-94460478D01*
X108822954Y-94460185D01*
X108815459Y-94455728D01*
X108814976Y-94455455D01*
X108779272Y-94436283D01*
X108778786Y-94436035D01*
X108771053Y-94432301D01*
X108770557Y-94432075D01*
X108732643Y-94415737D01*
X108732154Y-94415538D01*
X108724370Y-94412561D01*
X108723870Y-94412382D01*
X108683566Y-94398868D01*
X108683083Y-94398716D01*
X108675418Y-94396482D01*
X108674928Y-94396350D01*
X108632074Y-94385697D01*
X108631607Y-94385590D01*
X108624207Y-94384044D01*
X108623734Y-94383955D01*
X108578203Y-94376231D01*
X108577757Y-94376163D01*
X108570729Y-94375226D01*
X108570283Y-94375175D01*
X108521987Y-94370469D01*
X108521569Y-94370435D01*
X108514983Y-94370012D01*
X108514564Y-94369992D01*
X108494272Y-94369361D01*
X108472701Y-94347107D01*
X108472701Y-93652893D01*
X108494272Y-93630639D01*
X108514565Y-93630007D01*
X108514984Y-93629987D01*
X108521568Y-93629564D01*
X108521986Y-93629530D01*
X108570283Y-93624824D01*
X108570729Y-93624773D01*
X108577757Y-93623836D01*
X108578203Y-93623768D01*
X108623734Y-93616044D01*
X108624207Y-93615955D01*
X108631607Y-93614409D01*
X108632074Y-93614302D01*
X108674928Y-93603649D01*
X108675418Y-93603517D01*
X108683083Y-93601283D01*
X108683566Y-93601131D01*
X108723870Y-93587617D01*
X108724370Y-93587438D01*
X108732154Y-93584461D01*
X108732643Y-93584262D01*
X108770557Y-93567924D01*
X108771053Y-93567698D01*
X108778786Y-93563964D01*
X108779272Y-93563716D01*
X108814976Y-93544544D01*
X108815459Y-93544271D01*
X108822954Y-93539814D01*
X108823423Y-93539521D01*
X108857101Y-93517456D01*
X108857558Y-93517142D01*
X108864640Y-93512047D01*
X108865083Y-93511714D01*
X108896898Y-93486648D01*
X108897318Y-93486301D01*
X108903835Y-93480697D01*
X108904242Y-93480332D01*
X108916178Y-93469139D01*
X108947515Y-93465515D01*
X109741452Y-93923250D01*
G37*
G04 #@! TD.AperFunction*
D28*
X104393821Y-93469139D02*
X104405756Y-93480331D01*
X104406162Y-93480696D01*
X104412681Y-93486302D01*
X104413103Y-93486649D01*
X104444919Y-93511715D01*
X104445362Y-93512049D01*
X104452442Y-93517142D01*
X104452898Y-93517455D01*
X104486575Y-93539521D01*
X104487045Y-93539815D01*
X104494542Y-93544272D01*
X104495024Y-93544544D01*
X104530728Y-93563716D01*
X104531213Y-93563963D01*
X104538945Y-93567697D01*
X104539442Y-93567924D01*
X104577355Y-93584262D01*
X104577845Y-93584461D01*
X104585631Y-93587438D01*
X104586130Y-93587617D01*
X104626435Y-93601131D01*
X104626918Y-93601283D01*
X104634582Y-93603517D01*
X104635072Y-93603649D01*
X104677925Y-93614302D01*
X104678392Y-93614409D01*
X104685793Y-93615955D01*
X104686266Y-93616044D01*
X104731797Y-93623768D01*
X104732242Y-93623836D01*
X104739269Y-93624773D01*
X104739716Y-93624824D01*
X104788013Y-93629530D01*
X104788431Y-93629564D01*
X104795015Y-93629987D01*
X104795434Y-93630007D01*
X104815728Y-93630639D01*
X104837299Y-93652893D01*
X104837299Y-94347107D01*
X104815728Y-94369361D01*
X104795435Y-94369992D01*
X104795016Y-94370012D01*
X104788430Y-94370435D01*
X104788012Y-94370469D01*
X104739716Y-94375175D01*
X104739269Y-94375226D01*
X104732242Y-94376163D01*
X104731797Y-94376231D01*
X104686266Y-94383955D01*
X104685793Y-94384044D01*
X104678392Y-94385590D01*
X104677925Y-94385697D01*
X104635072Y-94396350D01*
X104634582Y-94396482D01*
X104626918Y-94398716D01*
X104626435Y-94398868D01*
X104586130Y-94412382D01*
X104585631Y-94412561D01*
X104577845Y-94415538D01*
X104577355Y-94415737D01*
X104539442Y-94432075D01*
X104538945Y-94432302D01*
X104531213Y-94436036D01*
X104530728Y-94436283D01*
X104495024Y-94455455D01*
X104494542Y-94455727D01*
X104487045Y-94460184D01*
X104486575Y-94460478D01*
X104452898Y-94482544D01*
X104452442Y-94482857D01*
X104445362Y-94487950D01*
X104444919Y-94488284D01*
X104413103Y-94513350D01*
X104412681Y-94513698D01*
X104406162Y-94519305D01*
X104405756Y-94519669D01*
X104393821Y-94530861D01*
X104362485Y-94534485D01*
X103568548Y-94076750D01*
X103528949Y-94029597D01*
X103528949Y-93970403D01*
X103568548Y-93923250D01*
X104362485Y-93465515D01*
X104393821Y-93469139D01*
G04 #@! TA.AperFunction,Conductor*
D27*
G36*
X104393821Y-93469139D02*
G01*
X104405756Y-93480331D01*
X104406162Y-93480696D01*
X104412681Y-93486302D01*
X104413103Y-93486649D01*
X104444919Y-93511715D01*
X104445362Y-93512049D01*
X104452442Y-93517142D01*
X104452898Y-93517455D01*
X104486575Y-93539521D01*
X104487045Y-93539815D01*
X104494542Y-93544272D01*
X104495024Y-93544544D01*
X104530728Y-93563716D01*
X104531213Y-93563963D01*
X104538945Y-93567697D01*
X104539442Y-93567924D01*
X104577355Y-93584262D01*
X104577845Y-93584461D01*
X104585631Y-93587438D01*
X104586130Y-93587617D01*
X104626435Y-93601131D01*
X104626918Y-93601283D01*
X104634582Y-93603517D01*
X104635072Y-93603649D01*
X104677925Y-93614302D01*
X104678392Y-93614409D01*
X104685793Y-93615955D01*
X104686266Y-93616044D01*
X104731797Y-93623768D01*
X104732242Y-93623836D01*
X104739269Y-93624773D01*
X104739716Y-93624824D01*
X104788013Y-93629530D01*
X104788431Y-93629564D01*
X104795015Y-93629987D01*
X104795434Y-93630007D01*
X104815728Y-93630639D01*
X104837299Y-93652893D01*
X104837299Y-94347107D01*
X104815728Y-94369361D01*
X104795435Y-94369992D01*
X104795016Y-94370012D01*
X104788430Y-94370435D01*
X104788012Y-94370469D01*
X104739716Y-94375175D01*
X104739269Y-94375226D01*
X104732242Y-94376163D01*
X104731797Y-94376231D01*
X104686266Y-94383955D01*
X104685793Y-94384044D01*
X104678392Y-94385590D01*
X104677925Y-94385697D01*
X104635072Y-94396350D01*
X104634582Y-94396482D01*
X104626918Y-94398716D01*
X104626435Y-94398868D01*
X104586130Y-94412382D01*
X104585631Y-94412561D01*
X104577845Y-94415538D01*
X104577355Y-94415737D01*
X104539442Y-94432075D01*
X104538945Y-94432302D01*
X104531213Y-94436036D01*
X104530728Y-94436283D01*
X104495024Y-94455455D01*
X104494542Y-94455727D01*
X104487045Y-94460184D01*
X104486575Y-94460478D01*
X104452898Y-94482544D01*
X104452442Y-94482857D01*
X104445362Y-94487950D01*
X104444919Y-94488284D01*
X104413103Y-94513350D01*
X104412681Y-94513698D01*
X104406162Y-94519305D01*
X104405756Y-94519669D01*
X104393821Y-94530861D01*
X104362485Y-94534485D01*
X103568548Y-94076750D01*
X103528949Y-94029597D01*
X103528949Y-93970403D01*
X103568548Y-93923250D01*
X104362485Y-93465515D01*
X104393821Y-93469139D01*
G37*
G04 #@! TD.AperFunction*
D28*
X106076750Y-76583548D02*
X106436546Y-77207609D01*
X106435730Y-77218401D01*
X106426036Y-77233389D01*
X106425403Y-77234484D01*
X106421777Y-77241544D01*
X106421378Y-77242397D01*
X106415604Y-77256044D01*
X106415269Y-77256924D01*
X106409965Y-77272608D01*
X106409760Y-77273277D01*
X106406813Y-77283883D01*
X106406644Y-77284561D01*
X106401406Y-77308433D01*
X106401304Y-77308952D01*
X106399862Y-77317138D01*
X106399781Y-77317659D01*
X106395587Y-77349047D01*
X106395539Y-77349453D01*
X106394894Y-77355838D01*
X106394860Y-77356243D01*
X106392224Y-77394581D01*
X106392206Y-77394900D01*
X106391986Y-77399960D01*
X106391976Y-77400284D01*
X106391169Y-77445154D01*
X106391167Y-77445413D01*
X106391177Y-77449493D01*
X106391180Y-77449751D01*
X106392345Y-77500856D01*
X106392352Y-77501068D01*
X106392484Y-77504412D01*
X106392494Y-77504625D01*
X106395712Y-77561754D01*
X106395723Y-77561928D01*
X106395918Y-77564709D01*
X106395932Y-77564888D01*
X106398356Y-77593629D01*
X106393154Y-77608838D01*
X106378435Y-77615300D01*
X105689840Y-77615300D01*
X105660605Y-77589025D01*
X105657739Y-77562218D01*
X105657723Y-77562078D01*
X105657455Y-77559809D01*
X105657437Y-77559661D01*
X105649929Y-77501948D01*
X105649905Y-77501776D01*
X105649518Y-77499089D01*
X105649493Y-77498920D01*
X105641310Y-77447060D01*
X105641276Y-77446855D01*
X105640713Y-77443630D01*
X105640675Y-77443425D01*
X105631891Y-77397562D01*
X105631840Y-77397310D01*
X105631005Y-77393383D01*
X105630950Y-77393136D01*
X105621688Y-77353469D01*
X105621612Y-77353160D01*
X105620348Y-77348300D01*
X105620264Y-77347992D01*
X105610734Y-77314800D01*
X105610614Y-77314408D01*
X105608644Y-77308297D01*
X105608514Y-77307913D01*
X105599087Y-77281585D01*
X105598896Y-77281086D01*
X105595727Y-77273285D01*
X105595515Y-77272793D01*
X105586868Y-77253842D01*
X105586551Y-77253197D01*
X105581275Y-77243178D01*
X105580922Y-77242551D01*
X105574289Y-77231519D01*
X105573748Y-77230693D01*
X105564733Y-77218042D01*
X105564503Y-77217745D01*
X105563598Y-77207359D01*
X105923250Y-76583548D01*
X105970403Y-76543949D01*
X106029597Y-76543949D01*
X106076750Y-76583548D01*
G04 #@! TA.AperFunction,Conductor*
D27*
G36*
X106076750Y-76583548D02*
G01*
X106436546Y-77207609D01*
X106435730Y-77218401D01*
X106426036Y-77233389D01*
X106425403Y-77234484D01*
X106421777Y-77241544D01*
X106421378Y-77242397D01*
X106415604Y-77256044D01*
X106415269Y-77256924D01*
X106409965Y-77272608D01*
X106409760Y-77273277D01*
X106406813Y-77283883D01*
X106406644Y-77284561D01*
X106401406Y-77308433D01*
X106401304Y-77308952D01*
X106399862Y-77317138D01*
X106399781Y-77317659D01*
X106395587Y-77349047D01*
X106395539Y-77349453D01*
X106394894Y-77355838D01*
X106394860Y-77356243D01*
X106392224Y-77394581D01*
X106392206Y-77394900D01*
X106391986Y-77399960D01*
X106391976Y-77400284D01*
X106391169Y-77445154D01*
X106391167Y-77445413D01*
X106391177Y-77449493D01*
X106391180Y-77449751D01*
X106392345Y-77500856D01*
X106392352Y-77501068D01*
X106392484Y-77504412D01*
X106392494Y-77504625D01*
X106395712Y-77561754D01*
X106395723Y-77561928D01*
X106395918Y-77564709D01*
X106395932Y-77564888D01*
X106398356Y-77593629D01*
X106393154Y-77608838D01*
X106378435Y-77615300D01*
X105689840Y-77615300D01*
X105660605Y-77589025D01*
X105657739Y-77562218D01*
X105657723Y-77562078D01*
X105657455Y-77559809D01*
X105657437Y-77559661D01*
X105649929Y-77501948D01*
X105649905Y-77501776D01*
X105649518Y-77499089D01*
X105649493Y-77498920D01*
X105641310Y-77447060D01*
X105641276Y-77446855D01*
X105640713Y-77443630D01*
X105640675Y-77443425D01*
X105631891Y-77397562D01*
X105631840Y-77397310D01*
X105631005Y-77393383D01*
X105630950Y-77393136D01*
X105621688Y-77353469D01*
X105621612Y-77353160D01*
X105620348Y-77348300D01*
X105620264Y-77347992D01*
X105610734Y-77314800D01*
X105610614Y-77314408D01*
X105608644Y-77308297D01*
X105608514Y-77307913D01*
X105599087Y-77281585D01*
X105598896Y-77281086D01*
X105595727Y-77273285D01*
X105595515Y-77272793D01*
X105586868Y-77253842D01*
X105586551Y-77253197D01*
X105581275Y-77243178D01*
X105580922Y-77242551D01*
X105574289Y-77231519D01*
X105573748Y-77230693D01*
X105564733Y-77218042D01*
X105564503Y-77217745D01*
X105563598Y-77207359D01*
X105923250Y-76583548D01*
X105970403Y-76543949D01*
X106029597Y-76543949D01*
X106076750Y-76583548D01*
G37*
G04 #@! TD.AperFunction*
D28*
X104411171Y-101105737D02*
X104443946Y-101136749D01*
X104444313Y-101137082D01*
X104450180Y-101142215D01*
X104450558Y-101142534D01*
X104522081Y-101200349D01*
X104522488Y-101200664D01*
X104528988Y-101205496D01*
X104529407Y-101205794D01*
X104603851Y-101256592D01*
X104604293Y-101256881D01*
X104611344Y-101261274D01*
X104611797Y-101261543D01*
X104689259Y-101305453D01*
X104689730Y-101305707D01*
X104697213Y-101309542D01*
X104697692Y-101309775D01*
X104778313Y-101346904D01*
X104778804Y-101347118D01*
X104786566Y-101350304D01*
X104787061Y-101350495D01*
X104870999Y-101380912D01*
X104871496Y-101381081D01*
X104879369Y-101383571D01*
X104879872Y-101383718D01*
X104967300Y-101407450D01*
X104967795Y-101407574D01*
X104975611Y-101409362D01*
X104976109Y-101409466D01*
X105067184Y-101426497D01*
X105067665Y-101426577D01*
X105075274Y-101427699D01*
X105075759Y-101427761D01*
X105170621Y-101438038D01*
X105171084Y-101438080D01*
X105178365Y-101438600D01*
X105178827Y-101438624D01*
X105225627Y-101440259D01*
X105256212Y-101453876D01*
X105268754Y-101484918D01*
X105268754Y-101755082D01*
X105256212Y-101786124D01*
X105225626Y-101799742D01*
X105178827Y-101801376D01*
X105178365Y-101801400D01*
X105171084Y-101801920D01*
X105170621Y-101801962D01*
X105075759Y-101812239D01*
X105075274Y-101812301D01*
X105067665Y-101813423D01*
X105067184Y-101813503D01*
X104976109Y-101830534D01*
X104975611Y-101830638D01*
X104967795Y-101832426D01*
X104967300Y-101832550D01*
X104879872Y-101856282D01*
X104879369Y-101856429D01*
X104871496Y-101858919D01*
X104870999Y-101859088D01*
X104787061Y-101889505D01*
X104786566Y-101889696D01*
X104778804Y-101892882D01*
X104778313Y-101893096D01*
X104697692Y-101930225D01*
X104697213Y-101930458D01*
X104689730Y-101934293D01*
X104689259Y-101934547D01*
X104611797Y-101978457D01*
X104611344Y-101978726D01*
X104604293Y-101983119D01*
X104603851Y-101983408D01*
X104529407Y-102034206D01*
X104528988Y-102034504D01*
X104522488Y-102039336D01*
X104522081Y-102039651D01*
X104450558Y-102097466D01*
X104450180Y-102097785D01*
X104444313Y-102102918D01*
X104443946Y-102103251D01*
X104411171Y-102134264D01*
X104377764Y-102149893D01*
X104341633Y-102142464D01*
X103568548Y-101696750D01*
X103528949Y-101649597D01*
X103528949Y-101590403D01*
X103568548Y-101543250D01*
X104341633Y-101097536D01*
X104377764Y-101090107D01*
X104411171Y-101105737D01*
G04 #@! TA.AperFunction,Conductor*
D27*
G36*
X104411171Y-101105737D02*
G01*
X104443946Y-101136749D01*
X104444313Y-101137082D01*
X104450180Y-101142215D01*
X104450558Y-101142534D01*
X104522081Y-101200349D01*
X104522488Y-101200664D01*
X104528988Y-101205496D01*
X104529407Y-101205794D01*
X104603851Y-101256592D01*
X104604293Y-101256881D01*
X104611344Y-101261274D01*
X104611797Y-101261543D01*
X104689259Y-101305453D01*
X104689730Y-101305707D01*
X104697213Y-101309542D01*
X104697692Y-101309775D01*
X104778313Y-101346904D01*
X104778804Y-101347118D01*
X104786566Y-101350304D01*
X104787061Y-101350495D01*
X104870999Y-101380912D01*
X104871496Y-101381081D01*
X104879369Y-101383571D01*
X104879872Y-101383718D01*
X104967300Y-101407450D01*
X104967795Y-101407574D01*
X104975611Y-101409362D01*
X104976109Y-101409466D01*
X105067184Y-101426497D01*
X105067665Y-101426577D01*
X105075274Y-101427699D01*
X105075759Y-101427761D01*
X105170621Y-101438038D01*
X105171084Y-101438080D01*
X105178365Y-101438600D01*
X105178827Y-101438624D01*
X105225627Y-101440259D01*
X105256212Y-101453876D01*
X105268754Y-101484918D01*
X105268754Y-101755082D01*
X105256212Y-101786124D01*
X105225626Y-101799742D01*
X105178827Y-101801376D01*
X105178365Y-101801400D01*
X105171084Y-101801920D01*
X105170621Y-101801962D01*
X105075759Y-101812239D01*
X105075274Y-101812301D01*
X105067665Y-101813423D01*
X105067184Y-101813503D01*
X104976109Y-101830534D01*
X104975611Y-101830638D01*
X104967795Y-101832426D01*
X104967300Y-101832550D01*
X104879872Y-101856282D01*
X104879369Y-101856429D01*
X104871496Y-101858919D01*
X104870999Y-101859088D01*
X104787061Y-101889505D01*
X104786566Y-101889696D01*
X104778804Y-101892882D01*
X104778313Y-101893096D01*
X104697692Y-101930225D01*
X104697213Y-101930458D01*
X104689730Y-101934293D01*
X104689259Y-101934547D01*
X104611797Y-101978457D01*
X104611344Y-101978726D01*
X104604293Y-101983119D01*
X104603851Y-101983408D01*
X104529407Y-102034206D01*
X104528988Y-102034504D01*
X104522488Y-102039336D01*
X104522081Y-102039651D01*
X104450558Y-102097466D01*
X104450180Y-102097785D01*
X104444313Y-102102918D01*
X104443946Y-102103251D01*
X104411171Y-102134264D01*
X104377764Y-102149893D01*
X104341633Y-102142464D01*
X103568548Y-101696750D01*
X103528949Y-101649597D01*
X103528949Y-101590403D01*
X103568548Y-101543250D01*
X104341633Y-101097536D01*
X104377764Y-101090107D01*
X104411171Y-101105737D01*
G37*
G04 #@! TD.AperFunction*
D28*
X108968368Y-101097536D02*
X109741452Y-101543250D01*
X109781051Y-101590403D01*
X109781051Y-101649597D01*
X109741452Y-101696750D01*
X108968368Y-102142464D01*
X108932236Y-102149893D01*
X108898829Y-102134264D01*
X108866053Y-102103251D01*
X108865687Y-102102918D01*
X108859821Y-102097785D01*
X108859442Y-102097466D01*
X108787918Y-102039651D01*
X108787511Y-102039336D01*
X108781011Y-102034504D01*
X108780592Y-102034206D01*
X108706148Y-101983408D01*
X108705706Y-101983119D01*
X108698655Y-101978726D01*
X108698202Y-101978457D01*
X108620740Y-101934547D01*
X108620269Y-101934293D01*
X108612786Y-101930458D01*
X108612306Y-101930224D01*
X108531686Y-101893096D01*
X108531199Y-101892884D01*
X108523437Y-101889696D01*
X108522939Y-101889504D01*
X108439000Y-101859088D01*
X108438503Y-101858919D01*
X108430630Y-101856429D01*
X108430127Y-101856282D01*
X108342699Y-101832550D01*
X108342204Y-101832426D01*
X108334388Y-101830638D01*
X108333890Y-101830534D01*
X108242815Y-101813503D01*
X108242334Y-101813423D01*
X108234725Y-101812301D01*
X108234240Y-101812239D01*
X108139378Y-101801962D01*
X108138915Y-101801920D01*
X108131634Y-101801400D01*
X108131172Y-101801376D01*
X108084374Y-101799742D01*
X108053788Y-101786124D01*
X108041246Y-101755082D01*
X108041246Y-101484918D01*
X108053788Y-101453876D01*
X108084373Y-101440259D01*
X108131172Y-101438624D01*
X108131634Y-101438600D01*
X108138915Y-101438080D01*
X108139378Y-101438038D01*
X108234240Y-101427761D01*
X108234725Y-101427699D01*
X108242334Y-101426577D01*
X108242815Y-101426497D01*
X108333890Y-101409466D01*
X108334388Y-101409362D01*
X108342204Y-101407574D01*
X108342699Y-101407450D01*
X108430127Y-101383718D01*
X108430630Y-101383571D01*
X108438503Y-101381081D01*
X108439000Y-101380912D01*
X108522939Y-101350496D01*
X108523437Y-101350304D01*
X108531199Y-101347116D01*
X108531686Y-101346904D01*
X108612306Y-101309776D01*
X108612786Y-101309542D01*
X108620269Y-101305707D01*
X108620740Y-101305453D01*
X108698202Y-101261543D01*
X108698655Y-101261274D01*
X108705706Y-101256881D01*
X108706148Y-101256592D01*
X108780592Y-101205794D01*
X108781011Y-101205496D01*
X108787511Y-101200664D01*
X108787918Y-101200349D01*
X108859442Y-101142534D01*
X108859821Y-101142215D01*
X108865687Y-101137082D01*
X108866053Y-101136749D01*
X108898829Y-101105737D01*
X108932236Y-101090107D01*
X108968368Y-101097536D01*
G04 #@! TA.AperFunction,Conductor*
D27*
G36*
X108968368Y-101097536D02*
G01*
X109741452Y-101543250D01*
X109781051Y-101590403D01*
X109781051Y-101649597D01*
X109741452Y-101696750D01*
X108968368Y-102142464D01*
X108932236Y-102149893D01*
X108898829Y-102134264D01*
X108866053Y-102103251D01*
X108865687Y-102102918D01*
X108859821Y-102097785D01*
X108859442Y-102097466D01*
X108787918Y-102039651D01*
X108787511Y-102039336D01*
X108781011Y-102034504D01*
X108780592Y-102034206D01*
X108706148Y-101983408D01*
X108705706Y-101983119D01*
X108698655Y-101978726D01*
X108698202Y-101978457D01*
X108620740Y-101934547D01*
X108620269Y-101934293D01*
X108612786Y-101930458D01*
X108612306Y-101930224D01*
X108531686Y-101893096D01*
X108531199Y-101892884D01*
X108523437Y-101889696D01*
X108522939Y-101889504D01*
X108439000Y-101859088D01*
X108438503Y-101858919D01*
X108430630Y-101856429D01*
X108430127Y-101856282D01*
X108342699Y-101832550D01*
X108342204Y-101832426D01*
X108334388Y-101830638D01*
X108333890Y-101830534D01*
X108242815Y-101813503D01*
X108242334Y-101813423D01*
X108234725Y-101812301D01*
X108234240Y-101812239D01*
X108139378Y-101801962D01*
X108138915Y-101801920D01*
X108131634Y-101801400D01*
X108131172Y-101801376D01*
X108084374Y-101799742D01*
X108053788Y-101786124D01*
X108041246Y-101755082D01*
X108041246Y-101484918D01*
X108053788Y-101453876D01*
X108084373Y-101440259D01*
X108131172Y-101438624D01*
X108131634Y-101438600D01*
X108138915Y-101438080D01*
X108139378Y-101438038D01*
X108234240Y-101427761D01*
X108234725Y-101427699D01*
X108242334Y-101426577D01*
X108242815Y-101426497D01*
X108333890Y-101409466D01*
X108334388Y-101409362D01*
X108342204Y-101407574D01*
X108342699Y-101407450D01*
X108430127Y-101383718D01*
X108430630Y-101383571D01*
X108438503Y-101381081D01*
X108439000Y-101380912D01*
X108522939Y-101350496D01*
X108523437Y-101350304D01*
X108531199Y-101347116D01*
X108531686Y-101346904D01*
X108612306Y-101309776D01*
X108612786Y-101309542D01*
X108620269Y-101305707D01*
X108620740Y-101305453D01*
X108698202Y-101261543D01*
X108698655Y-101261274D01*
X108705706Y-101256881D01*
X108706148Y-101256592D01*
X108780592Y-101205794D01*
X108781011Y-101205496D01*
X108787511Y-101200664D01*
X108787918Y-101200349D01*
X108859442Y-101142534D01*
X108859821Y-101142215D01*
X108865687Y-101137082D01*
X108866053Y-101136749D01*
X108898829Y-101105737D01*
X108932236Y-101090107D01*
X108968368Y-101097536D01*
G37*
G04 #@! TD.AperFunction*
D28*
X90241984Y-81456657D02*
X90275138Y-81497698D01*
X90373239Y-81741607D01*
X90373300Y-81741754D01*
X90374262Y-81744062D01*
X90374323Y-81744208D01*
X90498747Y-82032524D01*
X90498818Y-82032684D01*
X90499955Y-82035222D01*
X90500029Y-82035384D01*
X90625238Y-82304680D01*
X90625321Y-82304856D01*
X90626674Y-82307653D01*
X90626763Y-82307833D01*
X90752711Y-82558079D01*
X90752813Y-82558278D01*
X90754435Y-82561364D01*
X90754539Y-82561556D01*
X90881167Y-82792719D01*
X90881289Y-82792937D01*
X90883244Y-82796345D01*
X90883370Y-82796560D01*
X91010604Y-83008607D01*
X91010752Y-83008847D01*
X91013125Y-83012610D01*
X91013278Y-83012848D01*
X91141024Y-83205749D01*
X91141205Y-83206015D01*
X91144102Y-83210158D01*
X91144289Y-83210418D01*
X91272427Y-83384152D01*
X91272648Y-83384443D01*
X91276201Y-83388981D01*
X91276432Y-83389267D01*
X91404815Y-83543828D01*
X91405086Y-83544144D01*
X91409459Y-83549070D01*
X91409743Y-83549379D01*
X91488027Y-83631907D01*
X91512117Y-83683276D01*
X91500705Y-83738861D01*
X90576750Y-85341452D01*
X90529597Y-85381051D01*
X90470403Y-85381051D01*
X90423250Y-85341452D01*
X89497401Y-83735576D01*
X89485754Y-83682147D01*
X89507154Y-83631827D01*
X89574909Y-83553073D01*
X89575586Y-83552214D01*
X89585638Y-83538263D01*
X89586238Y-83537350D01*
X89672654Y-83392629D01*
X89673159Y-83391697D01*
X89680485Y-83376716D01*
X89680910Y-83375745D01*
X89744433Y-83212621D01*
X89744752Y-83211700D01*
X89749205Y-83197022D01*
X89749452Y-83196079D01*
X89789894Y-83013350D01*
X89790051Y-83012505D01*
X89792075Y-82999118D01*
X89792175Y-82998263D01*
X89808928Y-82795191D01*
X89808967Y-82794454D01*
X89809248Y-82782826D01*
X89809245Y-82782086D01*
X89801621Y-82558420D01*
X89801584Y-82557796D01*
X89800764Y-82547982D01*
X89800697Y-82547360D01*
X89768128Y-82303170D01*
X89768047Y-82302649D01*
X89766610Y-82294480D01*
X89766508Y-82293964D01*
X89708594Y-82029469D01*
X89708492Y-82029036D01*
X89706759Y-82022264D01*
X89706641Y-82021836D01*
X89623129Y-81737291D01*
X89623018Y-81736934D01*
X89621185Y-81731308D01*
X89621063Y-81730951D01*
X89559671Y-81559932D01*
X89558235Y-81503422D01*
X89589519Y-81458952D01*
X89643190Y-81441211D01*
X90191533Y-81441211D01*
X90241984Y-81456657D01*
G04 #@! TA.AperFunction,Conductor*
D27*
G36*
X90241984Y-81456657D02*
G01*
X90275138Y-81497698D01*
X90373239Y-81741607D01*
X90373300Y-81741754D01*
X90374262Y-81744062D01*
X90374323Y-81744208D01*
X90498747Y-82032524D01*
X90498818Y-82032684D01*
X90499955Y-82035222D01*
X90500029Y-82035384D01*
X90625238Y-82304680D01*
X90625321Y-82304856D01*
X90626674Y-82307653D01*
X90626763Y-82307833D01*
X90752711Y-82558079D01*
X90752813Y-82558278D01*
X90754435Y-82561364D01*
X90754539Y-82561556D01*
X90881167Y-82792719D01*
X90881289Y-82792937D01*
X90883244Y-82796345D01*
X90883370Y-82796560D01*
X91010604Y-83008607D01*
X91010752Y-83008847D01*
X91013125Y-83012610D01*
X91013278Y-83012848D01*
X91141024Y-83205749D01*
X91141205Y-83206015D01*
X91144102Y-83210158D01*
X91144289Y-83210418D01*
X91272427Y-83384152D01*
X91272648Y-83384443D01*
X91276201Y-83388981D01*
X91276432Y-83389267D01*
X91404815Y-83543828D01*
X91405086Y-83544144D01*
X91409459Y-83549070D01*
X91409743Y-83549379D01*
X91488027Y-83631907D01*
X91512117Y-83683276D01*
X91500705Y-83738861D01*
X90576750Y-85341452D01*
X90529597Y-85381051D01*
X90470403Y-85381051D01*
X90423250Y-85341452D01*
X89497401Y-83735576D01*
X89485754Y-83682147D01*
X89507154Y-83631827D01*
X89574909Y-83553073D01*
X89575586Y-83552214D01*
X89585638Y-83538263D01*
X89586238Y-83537350D01*
X89672654Y-83392629D01*
X89673159Y-83391697D01*
X89680485Y-83376716D01*
X89680910Y-83375745D01*
X89744433Y-83212621D01*
X89744752Y-83211700D01*
X89749205Y-83197022D01*
X89749452Y-83196079D01*
X89789894Y-83013350D01*
X89790051Y-83012505D01*
X89792075Y-82999118D01*
X89792175Y-82998263D01*
X89808928Y-82795191D01*
X89808967Y-82794454D01*
X89809248Y-82782826D01*
X89809245Y-82782086D01*
X89801621Y-82558420D01*
X89801584Y-82557796D01*
X89800764Y-82547982D01*
X89800697Y-82547360D01*
X89768128Y-82303170D01*
X89768047Y-82302649D01*
X89766610Y-82294480D01*
X89766508Y-82293964D01*
X89708594Y-82029469D01*
X89708492Y-82029036D01*
X89706759Y-82022264D01*
X89706641Y-82021836D01*
X89623129Y-81737291D01*
X89623018Y-81736934D01*
X89621185Y-81731308D01*
X89621063Y-81730951D01*
X89559671Y-81559932D01*
X89558235Y-81503422D01*
X89589519Y-81458952D01*
X89643190Y-81441211D01*
X90191533Y-81441211D01*
X90241984Y-81456657D01*
G37*
G04 #@! TD.AperFunction*
D28*
X89956750Y-76358548D02*
X90611113Y-77493533D01*
X90619004Y-77531905D01*
X90602410Y-77567386D01*
X90569554Y-77602119D01*
X90569219Y-77602487D01*
X90564067Y-77608379D01*
X90563747Y-77608760D01*
X90502632Y-77684439D01*
X90502317Y-77684847D01*
X90497474Y-77691369D01*
X90497174Y-77691789D01*
X90443459Y-77770630D01*
X90443171Y-77771073D01*
X90438774Y-77778142D01*
X90438504Y-77778597D01*
X90392059Y-77860700D01*
X90391806Y-77861170D01*
X90387974Y-77868663D01*
X90387740Y-77869145D01*
X90348461Y-77954652D01*
X90348250Y-77955139D01*
X90345070Y-77962903D01*
X90344878Y-77963402D01*
X90312697Y-78052472D01*
X90312529Y-78052968D01*
X90310049Y-78060834D01*
X90309902Y-78061336D01*
X90284795Y-78154142D01*
X90284672Y-78154637D01*
X90282894Y-78162438D01*
X90282791Y-78162934D01*
X90264777Y-78259635D01*
X90264697Y-78260114D01*
X90263582Y-78267701D01*
X90263520Y-78268186D01*
X90252652Y-78368914D01*
X90252611Y-78369375D01*
X90252095Y-78376630D01*
X90252071Y-78377090D01*
X90250339Y-78426942D01*
X90235766Y-78459683D01*
X90202540Y-78473109D01*
X89557460Y-78473109D01*
X89524234Y-78459684D01*
X89509661Y-78426942D01*
X89507928Y-78377089D01*
X89507904Y-78376629D01*
X89507388Y-78369376D01*
X89507347Y-78368915D01*
X89496479Y-78268186D01*
X89496417Y-78267701D01*
X89495302Y-78260114D01*
X89495222Y-78259635D01*
X89477208Y-78162934D01*
X89477105Y-78162438D01*
X89475327Y-78154637D01*
X89475204Y-78154142D01*
X89450097Y-78061336D01*
X89449950Y-78060834D01*
X89447470Y-78052968D01*
X89447302Y-78052472D01*
X89415121Y-77963402D01*
X89414929Y-77962903D01*
X89411749Y-77955139D01*
X89411538Y-77954652D01*
X89372259Y-77869145D01*
X89372025Y-77868663D01*
X89368193Y-77861170D01*
X89367940Y-77860700D01*
X89321495Y-77778597D01*
X89321225Y-77778142D01*
X89316828Y-77771073D01*
X89316540Y-77770630D01*
X89262825Y-77691789D01*
X89262525Y-77691369D01*
X89257682Y-77684847D01*
X89257367Y-77684439D01*
X89196252Y-77608760D01*
X89195932Y-77608379D01*
X89190780Y-77602487D01*
X89190445Y-77602120D01*
X89157591Y-77567388D01*
X89140996Y-77531905D01*
X89148887Y-77493534D01*
X89803250Y-76358548D01*
X89850403Y-76318949D01*
X89909597Y-76318949D01*
X89956750Y-76358548D01*
G04 #@! TA.AperFunction,Conductor*
D27*
G36*
X89956750Y-76358548D02*
G01*
X90611113Y-77493533D01*
X90619004Y-77531905D01*
X90602410Y-77567386D01*
X90569554Y-77602119D01*
X90569219Y-77602487D01*
X90564067Y-77608379D01*
X90563747Y-77608760D01*
X90502632Y-77684439D01*
X90502317Y-77684847D01*
X90497474Y-77691369D01*
X90497174Y-77691789D01*
X90443459Y-77770630D01*
X90443171Y-77771073D01*
X90438774Y-77778142D01*
X90438504Y-77778597D01*
X90392059Y-77860700D01*
X90391806Y-77861170D01*
X90387974Y-77868663D01*
X90387740Y-77869145D01*
X90348461Y-77954652D01*
X90348250Y-77955139D01*
X90345070Y-77962903D01*
X90344878Y-77963402D01*
X90312697Y-78052472D01*
X90312529Y-78052968D01*
X90310049Y-78060834D01*
X90309902Y-78061336D01*
X90284795Y-78154142D01*
X90284672Y-78154637D01*
X90282894Y-78162438D01*
X90282791Y-78162934D01*
X90264777Y-78259635D01*
X90264697Y-78260114D01*
X90263582Y-78267701D01*
X90263520Y-78268186D01*
X90252652Y-78368914D01*
X90252611Y-78369375D01*
X90252095Y-78376630D01*
X90252071Y-78377090D01*
X90250339Y-78426942D01*
X90235766Y-78459683D01*
X90202540Y-78473109D01*
X89557460Y-78473109D01*
X89524234Y-78459684D01*
X89509661Y-78426942D01*
X89507928Y-78377089D01*
X89507904Y-78376629D01*
X89507388Y-78369376D01*
X89507347Y-78368915D01*
X89496479Y-78268186D01*
X89496417Y-78267701D01*
X89495302Y-78260114D01*
X89495222Y-78259635D01*
X89477208Y-78162934D01*
X89477105Y-78162438D01*
X89475327Y-78154637D01*
X89475204Y-78154142D01*
X89450097Y-78061336D01*
X89449950Y-78060834D01*
X89447470Y-78052968D01*
X89447302Y-78052472D01*
X89415121Y-77963402D01*
X89414929Y-77962903D01*
X89411749Y-77955139D01*
X89411538Y-77954652D01*
X89372259Y-77869145D01*
X89372025Y-77868663D01*
X89368193Y-77861170D01*
X89367940Y-77860700D01*
X89321495Y-77778597D01*
X89321225Y-77778142D01*
X89316828Y-77771073D01*
X89316540Y-77770630D01*
X89262825Y-77691789D01*
X89262525Y-77691369D01*
X89257682Y-77684847D01*
X89257367Y-77684439D01*
X89196252Y-77608760D01*
X89195932Y-77608379D01*
X89190780Y-77602487D01*
X89190445Y-77602120D01*
X89157591Y-77567388D01*
X89140996Y-77531905D01*
X89148887Y-77493534D01*
X89803250Y-76358548D01*
X89850403Y-76318949D01*
X89909597Y-76318949D01*
X89956750Y-76358548D01*
G37*
G04 #@! TD.AperFunction*
D28*
X104076750Y-76583548D02*
X104436521Y-77207566D01*
X104435648Y-77217698D01*
X104426321Y-77231004D01*
X104425749Y-77231898D01*
X104420625Y-77240687D01*
X104420238Y-77241404D01*
X104414502Y-77252877D01*
X104414161Y-77253617D01*
X104407480Y-77269443D01*
X104407251Y-77270026D01*
X104403869Y-77279287D01*
X104403668Y-77279880D01*
X104396648Y-77302507D01*
X104396513Y-77302976D01*
X104394522Y-77310389D01*
X104394404Y-77310861D01*
X104387793Y-77339874D01*
X104387713Y-77340252D01*
X104386543Y-77346218D01*
X104386475Y-77346598D01*
X104380707Y-77381617D01*
X104380660Y-77381926D01*
X104379983Y-77386779D01*
X104379944Y-77387086D01*
X104375272Y-77427809D01*
X104375245Y-77428062D01*
X104374867Y-77432060D01*
X104374846Y-77432316D01*
X104371419Y-77478515D01*
X104371405Y-77478724D01*
X104371213Y-77482059D01*
X104371202Y-77482273D01*
X104369107Y-77533778D01*
X104369101Y-77533956D01*
X104369026Y-77536773D01*
X104369023Y-77536953D01*
X104368736Y-77559979D01*
X104346135Y-77582300D01*
X103653865Y-77582300D01*
X103631264Y-77559979D01*
X103630977Y-77536953D01*
X103630974Y-77536773D01*
X103630899Y-77533956D01*
X103630893Y-77533778D01*
X103628798Y-77482273D01*
X103628787Y-77482059D01*
X103628595Y-77478724D01*
X103628581Y-77478515D01*
X103625154Y-77432316D01*
X103625133Y-77432060D01*
X103624755Y-77428062D01*
X103624728Y-77427809D01*
X103620056Y-77387086D01*
X103620017Y-77386779D01*
X103619340Y-77381926D01*
X103619293Y-77381617D01*
X103613525Y-77346598D01*
X103613457Y-77346218D01*
X103612287Y-77340252D01*
X103612207Y-77339874D01*
X103605596Y-77310861D01*
X103605478Y-77310389D01*
X103603487Y-77302976D01*
X103603352Y-77302507D01*
X103596332Y-77279880D01*
X103596131Y-77279287D01*
X103592749Y-77270026D01*
X103592520Y-77269443D01*
X103585839Y-77253617D01*
X103585498Y-77252877D01*
X103579762Y-77241404D01*
X103579375Y-77240687D01*
X103574251Y-77231898D01*
X103573679Y-77231004D01*
X103564352Y-77217698D01*
X103563479Y-77207566D01*
X103923250Y-76583548D01*
X103970403Y-76543949D01*
X104029597Y-76543949D01*
X104076750Y-76583548D01*
G04 #@! TA.AperFunction,Conductor*
D27*
G36*
X104076750Y-76583548D02*
G01*
X104436521Y-77207566D01*
X104435648Y-77217698D01*
X104426321Y-77231004D01*
X104425749Y-77231898D01*
X104420625Y-77240687D01*
X104420238Y-77241404D01*
X104414502Y-77252877D01*
X104414161Y-77253617D01*
X104407480Y-77269443D01*
X104407251Y-77270026D01*
X104403869Y-77279287D01*
X104403668Y-77279880D01*
X104396648Y-77302507D01*
X104396513Y-77302976D01*
X104394522Y-77310389D01*
X104394404Y-77310861D01*
X104387793Y-77339874D01*
X104387713Y-77340252D01*
X104386543Y-77346218D01*
X104386475Y-77346598D01*
X104380707Y-77381617D01*
X104380660Y-77381926D01*
X104379983Y-77386779D01*
X104379944Y-77387086D01*
X104375272Y-77427809D01*
X104375245Y-77428062D01*
X104374867Y-77432060D01*
X104374846Y-77432316D01*
X104371419Y-77478515D01*
X104371405Y-77478724D01*
X104371213Y-77482059D01*
X104371202Y-77482273D01*
X104369107Y-77533778D01*
X104369101Y-77533956D01*
X104369026Y-77536773D01*
X104369023Y-77536953D01*
X104368736Y-77559979D01*
X104346135Y-77582300D01*
X103653865Y-77582300D01*
X103631264Y-77559979D01*
X103630977Y-77536953D01*
X103630974Y-77536773D01*
X103630899Y-77533956D01*
X103630893Y-77533778D01*
X103628798Y-77482273D01*
X103628787Y-77482059D01*
X103628595Y-77478724D01*
X103628581Y-77478515D01*
X103625154Y-77432316D01*
X103625133Y-77432060D01*
X103624755Y-77428062D01*
X103624728Y-77427809D01*
X103620056Y-77387086D01*
X103620017Y-77386779D01*
X103619340Y-77381926D01*
X103619293Y-77381617D01*
X103613525Y-77346598D01*
X103613457Y-77346218D01*
X103612287Y-77340252D01*
X103612207Y-77339874D01*
X103605596Y-77310861D01*
X103605478Y-77310389D01*
X103603487Y-77302976D01*
X103603352Y-77302507D01*
X103596332Y-77279880D01*
X103596131Y-77279287D01*
X103592749Y-77270026D01*
X103592520Y-77269443D01*
X103585839Y-77253617D01*
X103585498Y-77252877D01*
X103579762Y-77241404D01*
X103579375Y-77240687D01*
X103574251Y-77231898D01*
X103573679Y-77231004D01*
X103564352Y-77217698D01*
X103563479Y-77207566D01*
X103923250Y-76583548D01*
X103970403Y-76543949D01*
X104029597Y-76543949D01*
X104076750Y-76583548D01*
G37*
G04 #@! TD.AperFunction*
D28*
X98542733Y-76758783D02*
X98575444Y-76780333D01*
X98588800Y-76817159D01*
X98590128Y-76864951D01*
X98590152Y-76865448D01*
X98590676Y-76873256D01*
X98590718Y-76873750D01*
X98601016Y-76970480D01*
X98601081Y-76970992D01*
X98602268Y-76979028D01*
X98602354Y-76979537D01*
X98620120Y-77073267D01*
X98620230Y-77073785D01*
X98622120Y-77081892D01*
X98622250Y-77082404D01*
X98647464Y-77173302D01*
X98647618Y-77173813D01*
X98650207Y-77181822D01*
X98650382Y-77182328D01*
X98683070Y-77270564D01*
X98683265Y-77271058D01*
X98686506Y-77278796D01*
X98686723Y-77279284D01*
X98726951Y-77365023D01*
X98727183Y-77365493D01*
X98730991Y-77372808D01*
X98731242Y-77373268D01*
X98779113Y-77456645D01*
X98779375Y-77457080D01*
X98783633Y-77463853D01*
X98783912Y-77464278D01*
X98839552Y-77545395D01*
X98839835Y-77545791D01*
X98844412Y-77551944D01*
X98844710Y-77552329D01*
X98908251Y-77631240D01*
X98908548Y-77631595D01*
X98913311Y-77637088D01*
X98913619Y-77637431D01*
X98947647Y-77673910D01*
X98960493Y-77707364D01*
X98946491Y-77740354D01*
X98490354Y-78196491D01*
X98457364Y-78210493D01*
X98423910Y-78197647D01*
X98387431Y-78163619D01*
X98387088Y-78163311D01*
X98381595Y-78158548D01*
X98381240Y-78158251D01*
X98302329Y-78094710D01*
X98301944Y-78094412D01*
X98295791Y-78089835D01*
X98295395Y-78089552D01*
X98214278Y-78033912D01*
X98213853Y-78033633D01*
X98207080Y-78029375D01*
X98206645Y-78029113D01*
X98123268Y-77981242D01*
X98122808Y-77980991D01*
X98115493Y-77977183D01*
X98115023Y-77976951D01*
X98029284Y-77936723D01*
X98028796Y-77936506D01*
X98021058Y-77933265D01*
X98020564Y-77933070D01*
X97932328Y-77900382D01*
X97931822Y-77900207D01*
X97923813Y-77897618D01*
X97923302Y-77897464D01*
X97832404Y-77872250D01*
X97831892Y-77872120D01*
X97823785Y-77870230D01*
X97823267Y-77870120D01*
X97729537Y-77852354D01*
X97729028Y-77852268D01*
X97720992Y-77851081D01*
X97720480Y-77851016D01*
X97623750Y-77840718D01*
X97623256Y-77840676D01*
X97615448Y-77840152D01*
X97614951Y-77840128D01*
X97567159Y-77838800D01*
X97530333Y-77825444D01*
X97508783Y-77792733D01*
X97168932Y-76527473D01*
X97174274Y-76466128D01*
X97216128Y-76424274D01*
X97277473Y-76418932D01*
X98542733Y-76758783D01*
G04 #@! TA.AperFunction,Conductor*
D27*
G36*
X98542733Y-76758783D02*
G01*
X98575444Y-76780333D01*
X98588800Y-76817159D01*
X98590128Y-76864951D01*
X98590152Y-76865448D01*
X98590676Y-76873256D01*
X98590718Y-76873750D01*
X98601016Y-76970480D01*
X98601081Y-76970992D01*
X98602268Y-76979028D01*
X98602354Y-76979537D01*
X98620120Y-77073267D01*
X98620230Y-77073785D01*
X98622120Y-77081892D01*
X98622250Y-77082404D01*
X98647464Y-77173302D01*
X98647618Y-77173813D01*
X98650207Y-77181822D01*
X98650382Y-77182328D01*
X98683070Y-77270564D01*
X98683265Y-77271058D01*
X98686506Y-77278796D01*
X98686723Y-77279284D01*
X98726951Y-77365023D01*
X98727183Y-77365493D01*
X98730991Y-77372808D01*
X98731242Y-77373268D01*
X98779113Y-77456645D01*
X98779375Y-77457080D01*
X98783633Y-77463853D01*
X98783912Y-77464278D01*
X98839552Y-77545395D01*
X98839835Y-77545791D01*
X98844412Y-77551944D01*
X98844710Y-77552329D01*
X98908251Y-77631240D01*
X98908548Y-77631595D01*
X98913311Y-77637088D01*
X98913619Y-77637431D01*
X98947647Y-77673910D01*
X98960493Y-77707364D01*
X98946491Y-77740354D01*
X98490354Y-78196491D01*
X98457364Y-78210493D01*
X98423910Y-78197647D01*
X98387431Y-78163619D01*
X98387088Y-78163311D01*
X98381595Y-78158548D01*
X98381240Y-78158251D01*
X98302329Y-78094710D01*
X98301944Y-78094412D01*
X98295791Y-78089835D01*
X98295395Y-78089552D01*
X98214278Y-78033912D01*
X98213853Y-78033633D01*
X98207080Y-78029375D01*
X98206645Y-78029113D01*
X98123268Y-77981242D01*
X98122808Y-77980991D01*
X98115493Y-77977183D01*
X98115023Y-77976951D01*
X98029284Y-77936723D01*
X98028796Y-77936506D01*
X98021058Y-77933265D01*
X98020564Y-77933070D01*
X97932328Y-77900382D01*
X97931822Y-77900207D01*
X97923813Y-77897618D01*
X97923302Y-77897464D01*
X97832404Y-77872250D01*
X97831892Y-77872120D01*
X97823785Y-77870230D01*
X97823267Y-77870120D01*
X97729537Y-77852354D01*
X97729028Y-77852268D01*
X97720992Y-77851081D01*
X97720480Y-77851016D01*
X97623750Y-77840718D01*
X97623256Y-77840676D01*
X97615448Y-77840152D01*
X97614951Y-77840128D01*
X97567159Y-77838800D01*
X97530333Y-77825444D01*
X97508783Y-77792733D01*
X97168932Y-76527473D01*
X97174274Y-76466128D01*
X97216128Y-76424274D01*
X97277473Y-76418932D01*
X98542733Y-76758783D01*
G37*
G04 #@! TD.AperFunction*
D28*
X95658368Y-96017536D02*
X96431452Y-96463250D01*
X96471051Y-96510403D01*
X96471051Y-96569597D01*
X96431452Y-96616750D01*
X95658368Y-97062464D01*
X95622236Y-97069893D01*
X95588829Y-97054264D01*
X95556053Y-97023251D01*
X95555687Y-97022918D01*
X95549821Y-97017785D01*
X95549442Y-97017466D01*
X95477918Y-96959651D01*
X95477511Y-96959336D01*
X95471011Y-96954504D01*
X95470592Y-96954206D01*
X95396148Y-96903408D01*
X95395706Y-96903119D01*
X95388655Y-96898726D01*
X95388202Y-96898457D01*
X95310740Y-96854547D01*
X95310269Y-96854293D01*
X95302786Y-96850458D01*
X95302306Y-96850224D01*
X95221686Y-96813096D01*
X95221199Y-96812884D01*
X95213437Y-96809696D01*
X95212939Y-96809504D01*
X95129000Y-96779088D01*
X95128503Y-96778919D01*
X95120630Y-96776429D01*
X95120127Y-96776282D01*
X95032699Y-96752550D01*
X95032204Y-96752426D01*
X95024388Y-96750638D01*
X95023890Y-96750534D01*
X94932815Y-96733503D01*
X94932334Y-96733423D01*
X94924725Y-96732301D01*
X94924240Y-96732239D01*
X94829378Y-96721962D01*
X94828915Y-96721920D01*
X94821634Y-96721400D01*
X94821172Y-96721376D01*
X94774374Y-96719742D01*
X94743788Y-96706124D01*
X94731246Y-96675082D01*
X94731246Y-96404918D01*
X94743788Y-96373876D01*
X94774373Y-96360259D01*
X94821172Y-96358624D01*
X94821634Y-96358600D01*
X94828915Y-96358080D01*
X94829378Y-96358038D01*
X94924240Y-96347761D01*
X94924725Y-96347699D01*
X94932334Y-96346577D01*
X94932815Y-96346497D01*
X95023890Y-96329466D01*
X95024388Y-96329362D01*
X95032204Y-96327574D01*
X95032699Y-96327450D01*
X95120127Y-96303718D01*
X95120630Y-96303571D01*
X95128503Y-96301081D01*
X95129000Y-96300912D01*
X95212939Y-96270496D01*
X95213437Y-96270304D01*
X95221199Y-96267116D01*
X95221686Y-96266904D01*
X95302306Y-96229776D01*
X95302786Y-96229542D01*
X95310269Y-96225707D01*
X95310740Y-96225453D01*
X95388202Y-96181543D01*
X95388655Y-96181274D01*
X95395706Y-96176881D01*
X95396148Y-96176592D01*
X95470592Y-96125794D01*
X95471011Y-96125496D01*
X95477511Y-96120664D01*
X95477918Y-96120349D01*
X95549442Y-96062534D01*
X95549821Y-96062215D01*
X95555687Y-96057082D01*
X95556053Y-96056749D01*
X95588829Y-96025737D01*
X95622236Y-96010107D01*
X95658368Y-96017536D01*
G04 #@! TA.AperFunction,Conductor*
D27*
G36*
X95658368Y-96017536D02*
G01*
X96431452Y-96463250D01*
X96471051Y-96510403D01*
X96471051Y-96569597D01*
X96431452Y-96616750D01*
X95658368Y-97062464D01*
X95622236Y-97069893D01*
X95588829Y-97054264D01*
X95556053Y-97023251D01*
X95555687Y-97022918D01*
X95549821Y-97017785D01*
X95549442Y-97017466D01*
X95477918Y-96959651D01*
X95477511Y-96959336D01*
X95471011Y-96954504D01*
X95470592Y-96954206D01*
X95396148Y-96903408D01*
X95395706Y-96903119D01*
X95388655Y-96898726D01*
X95388202Y-96898457D01*
X95310740Y-96854547D01*
X95310269Y-96854293D01*
X95302786Y-96850458D01*
X95302306Y-96850224D01*
X95221686Y-96813096D01*
X95221199Y-96812884D01*
X95213437Y-96809696D01*
X95212939Y-96809504D01*
X95129000Y-96779088D01*
X95128503Y-96778919D01*
X95120630Y-96776429D01*
X95120127Y-96776282D01*
X95032699Y-96752550D01*
X95032204Y-96752426D01*
X95024388Y-96750638D01*
X95023890Y-96750534D01*
X94932815Y-96733503D01*
X94932334Y-96733423D01*
X94924725Y-96732301D01*
X94924240Y-96732239D01*
X94829378Y-96721962D01*
X94828915Y-96721920D01*
X94821634Y-96721400D01*
X94821172Y-96721376D01*
X94774374Y-96719742D01*
X94743788Y-96706124D01*
X94731246Y-96675082D01*
X94731246Y-96404918D01*
X94743788Y-96373876D01*
X94774373Y-96360259D01*
X94821172Y-96358624D01*
X94821634Y-96358600D01*
X94828915Y-96358080D01*
X94829378Y-96358038D01*
X94924240Y-96347761D01*
X94924725Y-96347699D01*
X94932334Y-96346577D01*
X94932815Y-96346497D01*
X95023890Y-96329466D01*
X95024388Y-96329362D01*
X95032204Y-96327574D01*
X95032699Y-96327450D01*
X95120127Y-96303718D01*
X95120630Y-96303571D01*
X95128503Y-96301081D01*
X95129000Y-96300912D01*
X95212939Y-96270496D01*
X95213437Y-96270304D01*
X95221199Y-96267116D01*
X95221686Y-96266904D01*
X95302306Y-96229776D01*
X95302786Y-96229542D01*
X95310269Y-96225707D01*
X95310740Y-96225453D01*
X95388202Y-96181543D01*
X95388655Y-96181274D01*
X95395706Y-96176881D01*
X95396148Y-96176592D01*
X95470592Y-96125794D01*
X95471011Y-96125496D01*
X95477511Y-96120664D01*
X95477918Y-96120349D01*
X95549442Y-96062534D01*
X95549821Y-96062215D01*
X95555687Y-96057082D01*
X95556053Y-96056749D01*
X95588829Y-96025737D01*
X95622236Y-96010107D01*
X95658368Y-96017536D01*
G37*
G04 #@! TD.AperFunction*
D28*
X90576750Y-93758548D02*
X91022464Y-94531633D01*
X91029893Y-94567764D01*
X91014264Y-94601171D01*
X90983251Y-94633946D01*
X90982918Y-94634313D01*
X90977785Y-94640180D01*
X90977466Y-94640558D01*
X90919651Y-94712081D01*
X90919336Y-94712488D01*
X90914504Y-94718988D01*
X90914206Y-94719407D01*
X90863408Y-94793851D01*
X90863119Y-94794293D01*
X90858726Y-94801344D01*
X90858457Y-94801797D01*
X90814547Y-94879259D01*
X90814293Y-94879730D01*
X90810458Y-94887213D01*
X90810225Y-94887692D01*
X90773096Y-94968313D01*
X90772882Y-94968804D01*
X90769696Y-94976566D01*
X90769505Y-94977061D01*
X90739088Y-95060999D01*
X90738919Y-95061496D01*
X90736429Y-95069369D01*
X90736282Y-95069872D01*
X90712550Y-95157300D01*
X90712426Y-95157795D01*
X90710638Y-95165611D01*
X90710534Y-95166109D01*
X90693503Y-95257184D01*
X90693423Y-95257665D01*
X90692301Y-95265274D01*
X90692239Y-95265759D01*
X90681962Y-95360621D01*
X90681920Y-95361084D01*
X90681400Y-95368365D01*
X90681376Y-95368827D01*
X90679742Y-95415626D01*
X90666124Y-95446212D01*
X90635082Y-95458754D01*
X90364918Y-95458754D01*
X90333876Y-95446212D01*
X90320259Y-95415627D01*
X90318624Y-95368827D01*
X90318600Y-95368365D01*
X90318080Y-95361084D01*
X90318038Y-95360621D01*
X90307761Y-95265759D01*
X90307699Y-95265274D01*
X90306577Y-95257665D01*
X90306497Y-95257184D01*
X90289466Y-95166109D01*
X90289362Y-95165611D01*
X90287574Y-95157795D01*
X90287450Y-95157300D01*
X90263718Y-95069872D01*
X90263571Y-95069369D01*
X90261081Y-95061496D01*
X90260912Y-95060999D01*
X90230495Y-94977061D01*
X90230304Y-94976566D01*
X90227118Y-94968804D01*
X90226904Y-94968313D01*
X90189775Y-94887692D01*
X90189542Y-94887213D01*
X90185707Y-94879730D01*
X90185453Y-94879259D01*
X90141543Y-94801797D01*
X90141274Y-94801344D01*
X90136881Y-94794293D01*
X90136592Y-94793851D01*
X90085794Y-94719407D01*
X90085496Y-94718988D01*
X90080664Y-94712488D01*
X90080349Y-94712081D01*
X90022534Y-94640558D01*
X90022215Y-94640180D01*
X90017082Y-94634313D01*
X90016749Y-94633946D01*
X89985737Y-94601171D01*
X89970107Y-94567764D01*
X89977536Y-94531633D01*
X90423250Y-93758548D01*
X90470403Y-93718949D01*
X90529597Y-93718949D01*
X90576750Y-93758548D01*
G04 #@! TA.AperFunction,Conductor*
D27*
G36*
X90576750Y-93758548D02*
G01*
X91022464Y-94531633D01*
X91029893Y-94567764D01*
X91014264Y-94601171D01*
X90983251Y-94633946D01*
X90982918Y-94634313D01*
X90977785Y-94640180D01*
X90977466Y-94640558D01*
X90919651Y-94712081D01*
X90919336Y-94712488D01*
X90914504Y-94718988D01*
X90914206Y-94719407D01*
X90863408Y-94793851D01*
X90863119Y-94794293D01*
X90858726Y-94801344D01*
X90858457Y-94801797D01*
X90814547Y-94879259D01*
X90814293Y-94879730D01*
X90810458Y-94887213D01*
X90810225Y-94887692D01*
X90773096Y-94968313D01*
X90772882Y-94968804D01*
X90769696Y-94976566D01*
X90769505Y-94977061D01*
X90739088Y-95060999D01*
X90738919Y-95061496D01*
X90736429Y-95069369D01*
X90736282Y-95069872D01*
X90712550Y-95157300D01*
X90712426Y-95157795D01*
X90710638Y-95165611D01*
X90710534Y-95166109D01*
X90693503Y-95257184D01*
X90693423Y-95257665D01*
X90692301Y-95265274D01*
X90692239Y-95265759D01*
X90681962Y-95360621D01*
X90681920Y-95361084D01*
X90681400Y-95368365D01*
X90681376Y-95368827D01*
X90679742Y-95415626D01*
X90666124Y-95446212D01*
X90635082Y-95458754D01*
X90364918Y-95458754D01*
X90333876Y-95446212D01*
X90320259Y-95415627D01*
X90318624Y-95368827D01*
X90318600Y-95368365D01*
X90318080Y-95361084D01*
X90318038Y-95360621D01*
X90307761Y-95265759D01*
X90307699Y-95265274D01*
X90306577Y-95257665D01*
X90306497Y-95257184D01*
X90289466Y-95166109D01*
X90289362Y-95165611D01*
X90287574Y-95157795D01*
X90287450Y-95157300D01*
X90263718Y-95069872D01*
X90263571Y-95069369D01*
X90261081Y-95061496D01*
X90260912Y-95060999D01*
X90230495Y-94977061D01*
X90230304Y-94976566D01*
X90227118Y-94968804D01*
X90226904Y-94968313D01*
X90189775Y-94887692D01*
X90189542Y-94887213D01*
X90185707Y-94879730D01*
X90185453Y-94879259D01*
X90141543Y-94801797D01*
X90141274Y-94801344D01*
X90136881Y-94794293D01*
X90136592Y-94793851D01*
X90085794Y-94719407D01*
X90085496Y-94718988D01*
X90080664Y-94712488D01*
X90080349Y-94712081D01*
X90022534Y-94640558D01*
X90022215Y-94640180D01*
X90017082Y-94634313D01*
X90016749Y-94633946D01*
X89985737Y-94601171D01*
X89970107Y-94567764D01*
X89977536Y-94531633D01*
X90423250Y-93758548D01*
X90470403Y-93718949D01*
X90529597Y-93718949D01*
X90576750Y-93758548D01*
G37*
G04 #@! TD.AperFunction*
D28*
X90660522Y-97576749D02*
X90680441Y-97621486D01*
X90682774Y-97688230D01*
X90682798Y-97688693D01*
X90683320Y-97695984D01*
X90683362Y-97696447D01*
X90697838Y-97829889D01*
X90697900Y-97830373D01*
X90699024Y-97837990D01*
X90699105Y-97838473D01*
X90723132Y-97966822D01*
X90723236Y-97967322D01*
X90725028Y-97975142D01*
X90725151Y-97975635D01*
X90758679Y-98099027D01*
X90758827Y-98099530D01*
X90761320Y-98107405D01*
X90761489Y-98107902D01*
X90804503Y-98226497D01*
X90804695Y-98226995D01*
X90807885Y-98234757D01*
X90808098Y-98235245D01*
X90860624Y-98349212D01*
X90860858Y-98349692D01*
X90864694Y-98357171D01*
X90864947Y-98357641D01*
X90927057Y-98467144D01*
X90927327Y-98467597D01*
X90931720Y-98474643D01*
X90932008Y-98475085D01*
X91003807Y-98580257D01*
X91004106Y-98580676D01*
X91008935Y-98587168D01*
X91009249Y-98587573D01*
X91090868Y-98688517D01*
X91091187Y-98688895D01*
X91096315Y-98694755D01*
X91096648Y-98695121D01*
X91140963Y-98741949D01*
X91163520Y-98790161D01*
X91152800Y-98842301D01*
X90576750Y-99841452D01*
X90529597Y-99881051D01*
X90470403Y-99881051D01*
X90423250Y-99841452D01*
X89847200Y-98842301D01*
X89836479Y-98790161D01*
X89859037Y-98741949D01*
X89903351Y-98695121D01*
X89903684Y-98694755D01*
X89908812Y-98688895D01*
X89909131Y-98688517D01*
X89990750Y-98587573D01*
X89991064Y-98587168D01*
X89995893Y-98580676D01*
X89996192Y-98580257D01*
X90067991Y-98475085D01*
X90068279Y-98474643D01*
X90072672Y-98467597D01*
X90072942Y-98467144D01*
X90135052Y-98357641D01*
X90135305Y-98357171D01*
X90139141Y-98349692D01*
X90139375Y-98349212D01*
X90191901Y-98235245D01*
X90192114Y-98234757D01*
X90195304Y-98226995D01*
X90195496Y-98226497D01*
X90238510Y-98107902D01*
X90238679Y-98107405D01*
X90241172Y-98099530D01*
X90241320Y-98099027D01*
X90274848Y-97975635D01*
X90274971Y-97975142D01*
X90276763Y-97967322D01*
X90276867Y-97966822D01*
X90300894Y-97838473D01*
X90300975Y-97837990D01*
X90302099Y-97830373D01*
X90302161Y-97829889D01*
X90316637Y-97696447D01*
X90316679Y-97695984D01*
X90317201Y-97688693D01*
X90317225Y-97688230D01*
X90319559Y-97621486D01*
X90339477Y-97576749D01*
X90384879Y-97558406D01*
X90615121Y-97558406D01*
X90660522Y-97576749D01*
G04 #@! TA.AperFunction,Conductor*
D27*
G36*
X90660522Y-97576749D02*
G01*
X90680441Y-97621486D01*
X90682774Y-97688230D01*
X90682798Y-97688693D01*
X90683320Y-97695984D01*
X90683362Y-97696447D01*
X90697838Y-97829889D01*
X90697900Y-97830373D01*
X90699024Y-97837990D01*
X90699105Y-97838473D01*
X90723132Y-97966822D01*
X90723236Y-97967322D01*
X90725028Y-97975142D01*
X90725151Y-97975635D01*
X90758679Y-98099027D01*
X90758827Y-98099530D01*
X90761320Y-98107405D01*
X90761489Y-98107902D01*
X90804503Y-98226497D01*
X90804695Y-98226995D01*
X90807885Y-98234757D01*
X90808098Y-98235245D01*
X90860624Y-98349212D01*
X90860858Y-98349692D01*
X90864694Y-98357171D01*
X90864947Y-98357641D01*
X90927057Y-98467144D01*
X90927327Y-98467597D01*
X90931720Y-98474643D01*
X90932008Y-98475085D01*
X91003807Y-98580257D01*
X91004106Y-98580676D01*
X91008935Y-98587168D01*
X91009249Y-98587573D01*
X91090868Y-98688517D01*
X91091187Y-98688895D01*
X91096315Y-98694755D01*
X91096648Y-98695121D01*
X91140963Y-98741949D01*
X91163520Y-98790161D01*
X91152800Y-98842301D01*
X90576750Y-99841452D01*
X90529597Y-99881051D01*
X90470403Y-99881051D01*
X90423250Y-99841452D01*
X89847200Y-98842301D01*
X89836479Y-98790161D01*
X89859037Y-98741949D01*
X89903351Y-98695121D01*
X89903684Y-98694755D01*
X89908812Y-98688895D01*
X89909131Y-98688517D01*
X89990750Y-98587573D01*
X89991064Y-98587168D01*
X89995893Y-98580676D01*
X89996192Y-98580257D01*
X90067991Y-98475085D01*
X90068279Y-98474643D01*
X90072672Y-98467597D01*
X90072942Y-98467144D01*
X90135052Y-98357641D01*
X90135305Y-98357171D01*
X90139141Y-98349692D01*
X90139375Y-98349212D01*
X90191901Y-98235245D01*
X90192114Y-98234757D01*
X90195304Y-98226995D01*
X90195496Y-98226497D01*
X90238510Y-98107902D01*
X90238679Y-98107405D01*
X90241172Y-98099530D01*
X90241320Y-98099027D01*
X90274848Y-97975635D01*
X90274971Y-97975142D01*
X90276763Y-97967322D01*
X90276867Y-97966822D01*
X90300894Y-97838473D01*
X90300975Y-97837990D01*
X90302099Y-97830373D01*
X90302161Y-97829889D01*
X90316637Y-97696447D01*
X90316679Y-97695984D01*
X90317201Y-97688693D01*
X90317225Y-97688230D01*
X90319559Y-97621486D01*
X90339477Y-97576749D01*
X90384879Y-97558406D01*
X90615121Y-97558406D01*
X90660522Y-97576749D01*
G37*
G04 #@! TD.AperFunction*
D28*
X102936095Y-97951903D02*
X102970343Y-97983841D01*
X102970689Y-97984151D01*
X102976207Y-97988932D01*
X102976562Y-97989229D01*
X103050906Y-98049038D01*
X103051292Y-98049337D01*
X103057465Y-98053924D01*
X103057863Y-98054208D01*
X103134306Y-98106567D01*
X103134733Y-98106846D01*
X103141525Y-98111108D01*
X103141961Y-98111370D01*
X103220562Y-98156410D01*
X103221023Y-98156662D01*
X103228350Y-98160467D01*
X103228819Y-98160698D01*
X103309681Y-98198545D01*
X103310169Y-98198761D01*
X103317911Y-98201996D01*
X103318407Y-98202191D01*
X103401668Y-98232944D01*
X103402172Y-98233119D01*
X103410174Y-98235698D01*
X103410686Y-98235851D01*
X103496509Y-98259577D01*
X103497021Y-98259707D01*
X103505115Y-98261586D01*
X103505631Y-98261695D01*
X103594190Y-98278415D01*
X103594697Y-98278500D01*
X103602708Y-98279679D01*
X103603218Y-98279743D01*
X103694675Y-98289438D01*
X103695169Y-98289481D01*
X103702949Y-98290000D01*
X103703443Y-98290023D01*
X103748544Y-98291269D01*
X103783222Y-98303842D01*
X103803517Y-98334642D01*
X104035002Y-99196461D01*
X104029660Y-99257806D01*
X103987806Y-99299660D01*
X103926461Y-99305002D01*
X103064642Y-99073517D01*
X103033842Y-99053222D01*
X103021269Y-99018544D01*
X103020023Y-98973443D01*
X103020000Y-98972949D01*
X103019481Y-98965169D01*
X103019438Y-98964675D01*
X103009743Y-98873218D01*
X103009679Y-98872708D01*
X103008500Y-98864697D01*
X103008415Y-98864190D01*
X102991695Y-98775631D01*
X102991586Y-98775115D01*
X102989707Y-98767021D01*
X102989577Y-98766509D01*
X102965851Y-98680686D01*
X102965698Y-98680174D01*
X102963119Y-98672172D01*
X102962944Y-98671668D01*
X102932191Y-98588407D01*
X102931996Y-98587911D01*
X102928761Y-98580169D01*
X102928545Y-98579681D01*
X102890698Y-98498819D01*
X102890467Y-98498350D01*
X102886662Y-98491023D01*
X102886410Y-98490562D01*
X102841370Y-98411961D01*
X102841108Y-98411525D01*
X102836846Y-98404733D01*
X102836567Y-98404306D01*
X102784208Y-98327863D01*
X102783924Y-98327465D01*
X102779337Y-98321292D01*
X102779038Y-98320906D01*
X102719229Y-98246562D01*
X102718932Y-98246207D01*
X102714151Y-98240689D01*
X102713841Y-98240343D01*
X102681903Y-98206095D01*
X102669906Y-98174841D01*
X102682987Y-98144023D01*
X102874023Y-97952987D01*
X102904841Y-97939906D01*
X102936095Y-97951903D01*
G04 #@! TA.AperFunction,Conductor*
D27*
G36*
X102936095Y-97951903D02*
G01*
X102970343Y-97983841D01*
X102970689Y-97984151D01*
X102976207Y-97988932D01*
X102976562Y-97989229D01*
X103050906Y-98049038D01*
X103051292Y-98049337D01*
X103057465Y-98053924D01*
X103057863Y-98054208D01*
X103134306Y-98106567D01*
X103134733Y-98106846D01*
X103141525Y-98111108D01*
X103141961Y-98111370D01*
X103220562Y-98156410D01*
X103221023Y-98156662D01*
X103228350Y-98160467D01*
X103228819Y-98160698D01*
X103309681Y-98198545D01*
X103310169Y-98198761D01*
X103317911Y-98201996D01*
X103318407Y-98202191D01*
X103401668Y-98232944D01*
X103402172Y-98233119D01*
X103410174Y-98235698D01*
X103410686Y-98235851D01*
X103496509Y-98259577D01*
X103497021Y-98259707D01*
X103505115Y-98261586D01*
X103505631Y-98261695D01*
X103594190Y-98278415D01*
X103594697Y-98278500D01*
X103602708Y-98279679D01*
X103603218Y-98279743D01*
X103694675Y-98289438D01*
X103695169Y-98289481D01*
X103702949Y-98290000D01*
X103703443Y-98290023D01*
X103748544Y-98291269D01*
X103783222Y-98303842D01*
X103803517Y-98334642D01*
X104035002Y-99196461D01*
X104029660Y-99257806D01*
X103987806Y-99299660D01*
X103926461Y-99305002D01*
X103064642Y-99073517D01*
X103033842Y-99053222D01*
X103021269Y-99018544D01*
X103020023Y-98973443D01*
X103020000Y-98972949D01*
X103019481Y-98965169D01*
X103019438Y-98964675D01*
X103009743Y-98873218D01*
X103009679Y-98872708D01*
X103008500Y-98864697D01*
X103008415Y-98864190D01*
X102991695Y-98775631D01*
X102991586Y-98775115D01*
X102989707Y-98767021D01*
X102989577Y-98766509D01*
X102965851Y-98680686D01*
X102965698Y-98680174D01*
X102963119Y-98672172D01*
X102962944Y-98671668D01*
X102932191Y-98588407D01*
X102931996Y-98587911D01*
X102928761Y-98580169D01*
X102928545Y-98579681D01*
X102890698Y-98498819D01*
X102890467Y-98498350D01*
X102886662Y-98491023D01*
X102886410Y-98490562D01*
X102841370Y-98411961D01*
X102841108Y-98411525D01*
X102836846Y-98404733D01*
X102836567Y-98404306D01*
X102784208Y-98327863D01*
X102783924Y-98327465D01*
X102779337Y-98321292D01*
X102779038Y-98320906D01*
X102719229Y-98246562D01*
X102718932Y-98246207D01*
X102714151Y-98240689D01*
X102713841Y-98240343D01*
X102681903Y-98206095D01*
X102669906Y-98174841D01*
X102682987Y-98144023D01*
X102874023Y-97952987D01*
X102904841Y-97939906D01*
X102936095Y-97951903D01*
G37*
G04 #@! TD.AperFunction*
D28*
X96791171Y-96025737D02*
X96823946Y-96056749D01*
X96824313Y-96057082D01*
X96830180Y-96062215D01*
X96830558Y-96062534D01*
X96902081Y-96120349D01*
X96902488Y-96120664D01*
X96908988Y-96125496D01*
X96909407Y-96125794D01*
X96983851Y-96176592D01*
X96984293Y-96176881D01*
X96991344Y-96181274D01*
X96991797Y-96181543D01*
X97069259Y-96225453D01*
X97069730Y-96225707D01*
X97077213Y-96229542D01*
X97077692Y-96229775D01*
X97158313Y-96266904D01*
X97158804Y-96267118D01*
X97166566Y-96270304D01*
X97167061Y-96270495D01*
X97250999Y-96300912D01*
X97251496Y-96301081D01*
X97259369Y-96303571D01*
X97259872Y-96303718D01*
X97347300Y-96327450D01*
X97347795Y-96327574D01*
X97355611Y-96329362D01*
X97356109Y-96329466D01*
X97447184Y-96346497D01*
X97447665Y-96346577D01*
X97455274Y-96347699D01*
X97455759Y-96347761D01*
X97550621Y-96358038D01*
X97551084Y-96358080D01*
X97558365Y-96358600D01*
X97558827Y-96358624D01*
X97605627Y-96360259D01*
X97636212Y-96373876D01*
X97648754Y-96404918D01*
X97648754Y-96675082D01*
X97636212Y-96706124D01*
X97605626Y-96719742D01*
X97558827Y-96721376D01*
X97558365Y-96721400D01*
X97551084Y-96721920D01*
X97550621Y-96721962D01*
X97455759Y-96732239D01*
X97455274Y-96732301D01*
X97447665Y-96733423D01*
X97447184Y-96733503D01*
X97356109Y-96750534D01*
X97355611Y-96750638D01*
X97347795Y-96752426D01*
X97347300Y-96752550D01*
X97259872Y-96776282D01*
X97259369Y-96776429D01*
X97251496Y-96778919D01*
X97250999Y-96779088D01*
X97167061Y-96809505D01*
X97166566Y-96809696D01*
X97158804Y-96812882D01*
X97158313Y-96813096D01*
X97077692Y-96850225D01*
X97077213Y-96850458D01*
X97069730Y-96854293D01*
X97069259Y-96854547D01*
X96991797Y-96898457D01*
X96991344Y-96898726D01*
X96984293Y-96903119D01*
X96983851Y-96903408D01*
X96909407Y-96954206D01*
X96908988Y-96954504D01*
X96902488Y-96959336D01*
X96902081Y-96959651D01*
X96830558Y-97017466D01*
X96830180Y-97017785D01*
X96824313Y-97022918D01*
X96823946Y-97023251D01*
X96791171Y-97054264D01*
X96757764Y-97069893D01*
X96721633Y-97062464D01*
X95948548Y-96616750D01*
X95908949Y-96569597D01*
X95908949Y-96510403D01*
X95948548Y-96463250D01*
X96721633Y-96017536D01*
X96757764Y-96010107D01*
X96791171Y-96025737D01*
G04 #@! TA.AperFunction,Conductor*
D27*
G36*
X96791171Y-96025737D02*
G01*
X96823946Y-96056749D01*
X96824313Y-96057082D01*
X96830180Y-96062215D01*
X96830558Y-96062534D01*
X96902081Y-96120349D01*
X96902488Y-96120664D01*
X96908988Y-96125496D01*
X96909407Y-96125794D01*
X96983851Y-96176592D01*
X96984293Y-96176881D01*
X96991344Y-96181274D01*
X96991797Y-96181543D01*
X97069259Y-96225453D01*
X97069730Y-96225707D01*
X97077213Y-96229542D01*
X97077692Y-96229775D01*
X97158313Y-96266904D01*
X97158804Y-96267118D01*
X97166566Y-96270304D01*
X97167061Y-96270495D01*
X97250999Y-96300912D01*
X97251496Y-96301081D01*
X97259369Y-96303571D01*
X97259872Y-96303718D01*
X97347300Y-96327450D01*
X97347795Y-96327574D01*
X97355611Y-96329362D01*
X97356109Y-96329466D01*
X97447184Y-96346497D01*
X97447665Y-96346577D01*
X97455274Y-96347699D01*
X97455759Y-96347761D01*
X97550621Y-96358038D01*
X97551084Y-96358080D01*
X97558365Y-96358600D01*
X97558827Y-96358624D01*
X97605627Y-96360259D01*
X97636212Y-96373876D01*
X97648754Y-96404918D01*
X97648754Y-96675082D01*
X97636212Y-96706124D01*
X97605626Y-96719742D01*
X97558827Y-96721376D01*
X97558365Y-96721400D01*
X97551084Y-96721920D01*
X97550621Y-96721962D01*
X97455759Y-96732239D01*
X97455274Y-96732301D01*
X97447665Y-96733423D01*
X97447184Y-96733503D01*
X97356109Y-96750534D01*
X97355611Y-96750638D01*
X97347795Y-96752426D01*
X97347300Y-96752550D01*
X97259872Y-96776282D01*
X97259369Y-96776429D01*
X97251496Y-96778919D01*
X97250999Y-96779088D01*
X97167061Y-96809505D01*
X97166566Y-96809696D01*
X97158804Y-96812882D01*
X97158313Y-96813096D01*
X97077692Y-96850225D01*
X97077213Y-96850458D01*
X97069730Y-96854293D01*
X97069259Y-96854547D01*
X96991797Y-96898457D01*
X96991344Y-96898726D01*
X96984293Y-96903119D01*
X96983851Y-96903408D01*
X96909407Y-96954206D01*
X96908988Y-96954504D01*
X96902488Y-96959336D01*
X96902081Y-96959651D01*
X96830558Y-97017466D01*
X96830180Y-97017785D01*
X96824313Y-97022918D01*
X96823946Y-97023251D01*
X96791171Y-97054264D01*
X96757764Y-97069893D01*
X96721633Y-97062464D01*
X95948548Y-96616750D01*
X95908949Y-96569597D01*
X95908949Y-96510403D01*
X95948548Y-96463250D01*
X96721633Y-96017536D01*
X96757764Y-96010107D01*
X96791171Y-96025737D01*
G37*
G04 #@! TD.AperFunction*
D28*
X86258051Y-101359037D02*
X86304878Y-101403351D01*
X86305244Y-101403684D01*
X86311104Y-101408812D01*
X86311482Y-101409131D01*
X86412426Y-101490750D01*
X86412831Y-101491064D01*
X86419323Y-101495893D01*
X86419742Y-101496192D01*
X86524914Y-101567991D01*
X86525356Y-101568279D01*
X86532402Y-101572672D01*
X86532855Y-101572942D01*
X86642358Y-101635052D01*
X86642828Y-101635305D01*
X86650307Y-101639141D01*
X86650787Y-101639375D01*
X86764756Y-101691901D01*
X86765243Y-101692113D01*
X86773003Y-101695303D01*
X86773502Y-101695496D01*
X86892097Y-101738510D01*
X86892594Y-101738679D01*
X86900469Y-101741172D01*
X86900972Y-101741320D01*
X87024364Y-101774848D01*
X87024857Y-101774971D01*
X87032677Y-101776763D01*
X87033177Y-101776867D01*
X87161526Y-101800894D01*
X87162009Y-101800975D01*
X87169626Y-101802099D01*
X87170110Y-101802161D01*
X87303552Y-101816637D01*
X87304015Y-101816679D01*
X87311306Y-101817201D01*
X87311769Y-101817225D01*
X87378514Y-101819559D01*
X87423250Y-101839478D01*
X87441594Y-101884881D01*
X87441594Y-102115119D01*
X87423250Y-102160522D01*
X87378514Y-102180441D01*
X87311769Y-102182774D01*
X87311306Y-102182798D01*
X87304015Y-102183320D01*
X87303552Y-102183362D01*
X87170110Y-102197838D01*
X87169626Y-102197900D01*
X87162009Y-102199024D01*
X87161526Y-102199105D01*
X87033177Y-102223132D01*
X87032677Y-102223236D01*
X87024857Y-102225028D01*
X87024364Y-102225151D01*
X86900972Y-102258679D01*
X86900469Y-102258827D01*
X86892594Y-102261320D01*
X86892097Y-102261489D01*
X86773502Y-102304503D01*
X86773003Y-102304696D01*
X86765243Y-102307886D01*
X86764756Y-102308098D01*
X86650787Y-102360624D01*
X86650307Y-102360858D01*
X86642828Y-102364694D01*
X86642358Y-102364947D01*
X86532855Y-102427057D01*
X86532402Y-102427327D01*
X86525356Y-102431720D01*
X86524914Y-102432008D01*
X86419742Y-102503807D01*
X86419323Y-102504106D01*
X86412831Y-102508935D01*
X86412426Y-102509249D01*
X86311482Y-102590868D01*
X86311104Y-102591187D01*
X86305244Y-102596315D01*
X86304878Y-102596648D01*
X86258051Y-102640963D01*
X86209839Y-102663520D01*
X86157699Y-102652800D01*
X85158548Y-102076750D01*
X85118949Y-102029597D01*
X85118949Y-101970403D01*
X85158548Y-101923250D01*
X86157700Y-101347199D01*
X86209839Y-101336479D01*
X86258051Y-101359037D01*
G04 #@! TA.AperFunction,Conductor*
D27*
G36*
X86258051Y-101359037D02*
G01*
X86304878Y-101403351D01*
X86305244Y-101403684D01*
X86311104Y-101408812D01*
X86311482Y-101409131D01*
X86412426Y-101490750D01*
X86412831Y-101491064D01*
X86419323Y-101495893D01*
X86419742Y-101496192D01*
X86524914Y-101567991D01*
X86525356Y-101568279D01*
X86532402Y-101572672D01*
X86532855Y-101572942D01*
X86642358Y-101635052D01*
X86642828Y-101635305D01*
X86650307Y-101639141D01*
X86650787Y-101639375D01*
X86764756Y-101691901D01*
X86765243Y-101692113D01*
X86773003Y-101695303D01*
X86773502Y-101695496D01*
X86892097Y-101738510D01*
X86892594Y-101738679D01*
X86900469Y-101741172D01*
X86900972Y-101741320D01*
X87024364Y-101774848D01*
X87024857Y-101774971D01*
X87032677Y-101776763D01*
X87033177Y-101776867D01*
X87161526Y-101800894D01*
X87162009Y-101800975D01*
X87169626Y-101802099D01*
X87170110Y-101802161D01*
X87303552Y-101816637D01*
X87304015Y-101816679D01*
X87311306Y-101817201D01*
X87311769Y-101817225D01*
X87378514Y-101819559D01*
X87423250Y-101839478D01*
X87441594Y-101884881D01*
X87441594Y-102115119D01*
X87423250Y-102160522D01*
X87378514Y-102180441D01*
X87311769Y-102182774D01*
X87311306Y-102182798D01*
X87304015Y-102183320D01*
X87303552Y-102183362D01*
X87170110Y-102197838D01*
X87169626Y-102197900D01*
X87162009Y-102199024D01*
X87161526Y-102199105D01*
X87033177Y-102223132D01*
X87032677Y-102223236D01*
X87024857Y-102225028D01*
X87024364Y-102225151D01*
X86900972Y-102258679D01*
X86900469Y-102258827D01*
X86892594Y-102261320D01*
X86892097Y-102261489D01*
X86773502Y-102304503D01*
X86773003Y-102304696D01*
X86765243Y-102307886D01*
X86764756Y-102308098D01*
X86650787Y-102360624D01*
X86650307Y-102360858D01*
X86642828Y-102364694D01*
X86642358Y-102364947D01*
X86532855Y-102427057D01*
X86532402Y-102427327D01*
X86525356Y-102431720D01*
X86524914Y-102432008D01*
X86419742Y-102503807D01*
X86419323Y-102504106D01*
X86412831Y-102508935D01*
X86412426Y-102509249D01*
X86311482Y-102590868D01*
X86311104Y-102591187D01*
X86305244Y-102596315D01*
X86304878Y-102596648D01*
X86258051Y-102640963D01*
X86209839Y-102663520D01*
X86157699Y-102652800D01*
X85158548Y-102076750D01*
X85118949Y-102029597D01*
X85118949Y-101970403D01*
X85158548Y-101923250D01*
X86157700Y-101347199D01*
X86209839Y-101336479D01*
X86258051Y-101359037D01*
G37*
G04 #@! TD.AperFunction*
D28*
X95657756Y-98557184D02*
X96431452Y-99003250D01*
X96471051Y-99050403D01*
X96471051Y-99109597D01*
X96431452Y-99156750D01*
X95657756Y-99602816D01*
X95622438Y-99609951D01*
X95589969Y-99594349D01*
X95557222Y-99562497D01*
X95556985Y-99562272D01*
X95553182Y-99558759D01*
X95552936Y-99558538D01*
X95485407Y-99499337D01*
X95485127Y-99499099D01*
X95480670Y-99495414D01*
X95480384Y-99495184D01*
X95414084Y-99443521D01*
X95413757Y-99443275D01*
X95408542Y-99439475D01*
X95408207Y-99439239D01*
X95343243Y-99395041D01*
X95342860Y-99394791D01*
X95336780Y-99390967D01*
X95336391Y-99390731D01*
X95272865Y-99353887D01*
X95272423Y-99353643D01*
X95265386Y-99349927D01*
X95264934Y-99349699D01*
X95202918Y-99320050D01*
X95202412Y-99319822D01*
X95194364Y-99316398D01*
X95193848Y-99316191D01*
X95133369Y-99293531D01*
X95132799Y-99293333D01*
X95123750Y-99290425D01*
X95123171Y-99290254D01*
X95064173Y-99274344D01*
X95063545Y-99274192D01*
X95053600Y-99272046D01*
X95052965Y-99271926D01*
X94995287Y-99262522D01*
X94994614Y-99262430D01*
X94983990Y-99261276D01*
X94983313Y-99261221D01*
X94959976Y-99259944D01*
X94933200Y-99231660D01*
X94933200Y-98928340D01*
X94959976Y-98900057D01*
X94983314Y-98898779D01*
X94983990Y-98898724D01*
X94994614Y-98897570D01*
X94995287Y-98897478D01*
X95052965Y-98888074D01*
X95053600Y-98887954D01*
X95063545Y-98885808D01*
X95064173Y-98885656D01*
X95123171Y-98869746D01*
X95123750Y-98869575D01*
X95132799Y-98866667D01*
X95133369Y-98866469D01*
X95193848Y-98843809D01*
X95194364Y-98843602D01*
X95202412Y-98840178D01*
X95202918Y-98839950D01*
X95264934Y-98810301D01*
X95265386Y-98810073D01*
X95272423Y-98806357D01*
X95272865Y-98806113D01*
X95336391Y-98769269D01*
X95336780Y-98769033D01*
X95342860Y-98765209D01*
X95343243Y-98764959D01*
X95408207Y-98720761D01*
X95408542Y-98720525D01*
X95413757Y-98716725D01*
X95414084Y-98716479D01*
X95480384Y-98664816D01*
X95480670Y-98664586D01*
X95485127Y-98660901D01*
X95485407Y-98660663D01*
X95552936Y-98601462D01*
X95553182Y-98601241D01*
X95556985Y-98597728D01*
X95557222Y-98597503D01*
X95589969Y-98565651D01*
X95622439Y-98550049D01*
X95657756Y-98557184D01*
G04 #@! TA.AperFunction,Conductor*
D27*
G36*
X95657756Y-98557184D02*
G01*
X96431452Y-99003250D01*
X96471051Y-99050403D01*
X96471051Y-99109597D01*
X96431452Y-99156750D01*
X95657756Y-99602816D01*
X95622438Y-99609951D01*
X95589969Y-99594349D01*
X95557222Y-99562497D01*
X95556985Y-99562272D01*
X95553182Y-99558759D01*
X95552936Y-99558538D01*
X95485407Y-99499337D01*
X95485127Y-99499099D01*
X95480670Y-99495414D01*
X95480384Y-99495184D01*
X95414084Y-99443521D01*
X95413757Y-99443275D01*
X95408542Y-99439475D01*
X95408207Y-99439239D01*
X95343243Y-99395041D01*
X95342860Y-99394791D01*
X95336780Y-99390967D01*
X95336391Y-99390731D01*
X95272865Y-99353887D01*
X95272423Y-99353643D01*
X95265386Y-99349927D01*
X95264934Y-99349699D01*
X95202918Y-99320050D01*
X95202412Y-99319822D01*
X95194364Y-99316398D01*
X95193848Y-99316191D01*
X95133369Y-99293531D01*
X95132799Y-99293333D01*
X95123750Y-99290425D01*
X95123171Y-99290254D01*
X95064173Y-99274344D01*
X95063545Y-99274192D01*
X95053600Y-99272046D01*
X95052965Y-99271926D01*
X94995287Y-99262522D01*
X94994614Y-99262430D01*
X94983990Y-99261276D01*
X94983313Y-99261221D01*
X94959976Y-99259944D01*
X94933200Y-99231660D01*
X94933200Y-98928340D01*
X94959976Y-98900057D01*
X94983314Y-98898779D01*
X94983990Y-98898724D01*
X94994614Y-98897570D01*
X94995287Y-98897478D01*
X95052965Y-98888074D01*
X95053600Y-98887954D01*
X95063545Y-98885808D01*
X95064173Y-98885656D01*
X95123171Y-98869746D01*
X95123750Y-98869575D01*
X95132799Y-98866667D01*
X95133369Y-98866469D01*
X95193848Y-98843809D01*
X95194364Y-98843602D01*
X95202412Y-98840178D01*
X95202918Y-98839950D01*
X95264934Y-98810301D01*
X95265386Y-98810073D01*
X95272423Y-98806357D01*
X95272865Y-98806113D01*
X95336391Y-98769269D01*
X95336780Y-98769033D01*
X95342860Y-98765209D01*
X95343243Y-98764959D01*
X95408207Y-98720761D01*
X95408542Y-98720525D01*
X95413757Y-98716725D01*
X95414084Y-98716479D01*
X95480384Y-98664816D01*
X95480670Y-98664586D01*
X95485127Y-98660901D01*
X95485407Y-98660663D01*
X95552936Y-98601462D01*
X95553182Y-98601241D01*
X95556985Y-98597728D01*
X95557222Y-98597503D01*
X95589969Y-98565651D01*
X95622439Y-98550049D01*
X95657756Y-98557184D01*
G37*
G04 #@! TD.AperFunction*
D28*
X92153890Y-110160546D02*
X92181277Y-110222043D01*
X92194149Y-110589345D01*
X92194174Y-110589808D01*
X92194698Y-110597115D01*
X92194739Y-110597580D01*
X92243336Y-111044553D01*
X92243399Y-111045039D01*
X92244528Y-111052668D01*
X92244609Y-111053151D01*
X92325506Y-111484381D01*
X92325610Y-111484880D01*
X92327407Y-111492710D01*
X92327531Y-111493205D01*
X92440679Y-111908828D01*
X92440827Y-111909330D01*
X92443325Y-111917209D01*
X92443494Y-111917708D01*
X92588878Y-112317888D01*
X92589071Y-112318385D01*
X92592265Y-112326145D01*
X92592478Y-112326633D01*
X92770126Y-112711537D01*
X92770360Y-112712017D01*
X92774198Y-112719490D01*
X92774451Y-112719959D01*
X92984436Y-113089750D01*
X92984705Y-113090202D01*
X92989095Y-113097238D01*
X92989384Y-113097680D01*
X93231813Y-113452491D01*
X93232110Y-113452908D01*
X93236932Y-113459388D01*
X93237247Y-113459794D01*
X93512250Y-113799724D01*
X93512568Y-113800101D01*
X93517686Y-113805948D01*
X93518018Y-113806313D01*
X93775635Y-114078492D01*
X93799666Y-114129841D01*
X93788248Y-114185375D01*
X92076750Y-117153952D01*
X92029597Y-117193551D01*
X91970403Y-117193551D01*
X91923250Y-117153952D01*
X90211752Y-114185375D01*
X90200334Y-114129841D01*
X90224364Y-114078492D01*
X90481981Y-113806313D01*
X90482313Y-113805948D01*
X90487431Y-113800101D01*
X90487749Y-113799724D01*
X90762752Y-113459794D01*
X90763067Y-113459388D01*
X90767889Y-113452908D01*
X90768186Y-113452491D01*
X91010615Y-113097680D01*
X91010904Y-113097238D01*
X91015294Y-113090202D01*
X91015563Y-113089750D01*
X91225548Y-112719959D01*
X91225801Y-112719490D01*
X91229639Y-112712017D01*
X91229873Y-112711537D01*
X91407521Y-112326633D01*
X91407734Y-112326145D01*
X91410928Y-112318385D01*
X91411121Y-112317888D01*
X91556505Y-111917708D01*
X91556674Y-111917209D01*
X91559172Y-111909330D01*
X91559320Y-111908828D01*
X91672468Y-111493205D01*
X91672592Y-111492710D01*
X91674389Y-111484880D01*
X91674493Y-111484381D01*
X91755390Y-111053151D01*
X91755471Y-111052668D01*
X91756600Y-111045039D01*
X91756663Y-111044553D01*
X91805260Y-110597579D01*
X91805301Y-110597115D01*
X91805825Y-110589809D01*
X91805850Y-110589345D01*
X91818723Y-110222042D01*
X91846110Y-110160546D01*
X91908524Y-110135331D01*
X92091476Y-110135331D01*
X92153890Y-110160546D01*
G04 #@! TA.AperFunction,Conductor*
D27*
G36*
X92153890Y-110160546D02*
G01*
X92181277Y-110222043D01*
X92194149Y-110589345D01*
X92194174Y-110589808D01*
X92194698Y-110597115D01*
X92194739Y-110597580D01*
X92243336Y-111044553D01*
X92243399Y-111045039D01*
X92244528Y-111052668D01*
X92244609Y-111053151D01*
X92325506Y-111484381D01*
X92325610Y-111484880D01*
X92327407Y-111492710D01*
X92327531Y-111493205D01*
X92440679Y-111908828D01*
X92440827Y-111909330D01*
X92443325Y-111917209D01*
X92443494Y-111917708D01*
X92588878Y-112317888D01*
X92589071Y-112318385D01*
X92592265Y-112326145D01*
X92592478Y-112326633D01*
X92770126Y-112711537D01*
X92770360Y-112712017D01*
X92774198Y-112719490D01*
X92774451Y-112719959D01*
X92984436Y-113089750D01*
X92984705Y-113090202D01*
X92989095Y-113097238D01*
X92989384Y-113097680D01*
X93231813Y-113452491D01*
X93232110Y-113452908D01*
X93236932Y-113459388D01*
X93237247Y-113459794D01*
X93512250Y-113799724D01*
X93512568Y-113800101D01*
X93517686Y-113805948D01*
X93518018Y-113806313D01*
X93775635Y-114078492D01*
X93799666Y-114129841D01*
X93788248Y-114185375D01*
X92076750Y-117153952D01*
X92029597Y-117193551D01*
X91970403Y-117193551D01*
X91923250Y-117153952D01*
X90211752Y-114185375D01*
X90200334Y-114129841D01*
X90224364Y-114078492D01*
X90481981Y-113806313D01*
X90482313Y-113805948D01*
X90487431Y-113800101D01*
X90487749Y-113799724D01*
X90762752Y-113459794D01*
X90763067Y-113459388D01*
X90767889Y-113452908D01*
X90768186Y-113452491D01*
X91010615Y-113097680D01*
X91010904Y-113097238D01*
X91015294Y-113090202D01*
X91015563Y-113089750D01*
X91225548Y-112719959D01*
X91225801Y-112719490D01*
X91229639Y-112712017D01*
X91229873Y-112711537D01*
X91407521Y-112326633D01*
X91407734Y-112326145D01*
X91410928Y-112318385D01*
X91411121Y-112317888D01*
X91556505Y-111917708D01*
X91556674Y-111917209D01*
X91559172Y-111909330D01*
X91559320Y-111908828D01*
X91672468Y-111493205D01*
X91672592Y-111492710D01*
X91674389Y-111484880D01*
X91674493Y-111484381D01*
X91755390Y-111053151D01*
X91755471Y-111052668D01*
X91756600Y-111045039D01*
X91756663Y-111044553D01*
X91805260Y-110597579D01*
X91805301Y-110597115D01*
X91805825Y-110589809D01*
X91805850Y-110589345D01*
X91818723Y-110222042D01*
X91846110Y-110160546D01*
X91908524Y-110135331D01*
X92091476Y-110135331D01*
X92153890Y-110160546D01*
G37*
G04 #@! TD.AperFunction*
M02*
