G04 #@! TF.GenerationSoftware,KiCad,Pcbnew,(5.1.8)-1*
G04 #@! TF.CreationDate,2021-01-06T21:59:08-05:00*
G04 #@! TF.ProjectId,Square Wave Generator,53717561-7265-4205-9761-76652047656e,rev?*
G04 #@! TF.SameCoordinates,Original*
G04 #@! TF.FileFunction,Legend,Bot*
G04 #@! TF.FilePolarity,Positive*
%FSLAX46Y46*%
G04 Gerber Fmt 4.6, Leading zero omitted, Abs format (unit mm)*
G04 Created by KiCad (PCBNEW (5.1.8)-1) date 2021-01-06 21:59:08*
%MOMM*%
%LPD*%
G01*
G04 APERTURE LIST*
%ADD10C,0.150000*%
G04 #@! TA.AperFunction,Profile*
%ADD11C,0.254000*%
G04 #@! TD*
G04 APERTURE END LIST*
D10*
X104619047Y-122952380D02*
X104619047Y-123666666D01*
X104666666Y-123809523D01*
X104761904Y-123904761D01*
X104904761Y-123952380D01*
X105000000Y-123952380D01*
X103666666Y-123952380D02*
X104142857Y-123952380D01*
X104142857Y-122952380D01*
X102761904Y-123857142D02*
X102809523Y-123904761D01*
X102952380Y-123952380D01*
X103047619Y-123952380D01*
X103190476Y-123904761D01*
X103285714Y-123809523D01*
X103333333Y-123714285D01*
X103380952Y-123523809D01*
X103380952Y-123380952D01*
X103333333Y-123190476D01*
X103285714Y-123095238D01*
X103190476Y-123000000D01*
X103047619Y-122952380D01*
X102952380Y-122952380D01*
X102809523Y-123000000D01*
X102761904Y-123047619D01*
X102047619Y-122952380D02*
X102047619Y-123666666D01*
X102095238Y-123809523D01*
X102190476Y-123904761D01*
X102333333Y-123952380D01*
X102428571Y-123952380D01*
X101095238Y-123952380D02*
X101571428Y-123952380D01*
X101571428Y-122952380D01*
X100190476Y-123857142D02*
X100238095Y-123904761D01*
X100380952Y-123952380D01*
X100476190Y-123952380D01*
X100619047Y-123904761D01*
X100714285Y-123809523D01*
X100761904Y-123714285D01*
X100809523Y-123523809D01*
X100809523Y-123380952D01*
X100761904Y-123190476D01*
X100714285Y-123095238D01*
X100619047Y-123000000D01*
X100476190Y-122952380D01*
X100380952Y-122952380D01*
X100238095Y-123000000D01*
X100190476Y-123047619D01*
X99476190Y-122952380D02*
X99476190Y-123666666D01*
X99523809Y-123809523D01*
X99619047Y-123904761D01*
X99761904Y-123952380D01*
X99857142Y-123952380D01*
X98523809Y-123952380D02*
X99000000Y-123952380D01*
X99000000Y-122952380D01*
X97619047Y-123857142D02*
X97666666Y-123904761D01*
X97809523Y-123952380D01*
X97904761Y-123952380D01*
X98047619Y-123904761D01*
X98142857Y-123809523D01*
X98190476Y-123714285D01*
X98238095Y-123523809D01*
X98238095Y-123380952D01*
X98190476Y-123190476D01*
X98142857Y-123095238D01*
X98047619Y-123000000D01*
X97904761Y-122952380D01*
X97809523Y-122952380D01*
X97666666Y-123000000D01*
X97619047Y-123047619D01*
X96904761Y-122952380D02*
X96904761Y-123666666D01*
X96952380Y-123809523D01*
X97047619Y-123904761D01*
X97190476Y-123952380D01*
X97285714Y-123952380D01*
X95952380Y-123952380D02*
X96428571Y-123952380D01*
X96428571Y-122952380D01*
X95047619Y-123857142D02*
X95095238Y-123904761D01*
X95238095Y-123952380D01*
X95333333Y-123952380D01*
X95476190Y-123904761D01*
X95571428Y-123809523D01*
X95619047Y-123714285D01*
X95666666Y-123523809D01*
X95666666Y-123380952D01*
X95619047Y-123190476D01*
X95571428Y-123095238D01*
X95476190Y-123000000D01*
X95333333Y-122952380D01*
X95238095Y-122952380D01*
X95095238Y-123000000D01*
X95047619Y-123047619D01*
D11*
X120000000Y-123500000D02*
G75*
G02*
X116500000Y-127000000I-3500000J0D01*
G01*
X83500000Y-127000000D02*
G75*
G02*
X80000000Y-123500000I0J3500000D01*
G01*
X116500000Y-73000000D02*
G75*
G02*
X120000000Y-76500000I0J-3500000D01*
G01*
X80000000Y-76500000D02*
G75*
G02*
X83500000Y-73000000I3500000J0D01*
G01*
X83500000Y-127000000D02*
X116500000Y-127000000D01*
X120000000Y-76500000D02*
X120000000Y-123500000D01*
X83500000Y-73000000D02*
X116500000Y-73000000D01*
X80000000Y-76500000D02*
X80000000Y-123500000D01*
M02*
