M48
; DRILL file {KiCad (5.1.8)-1} date 01/06/21 21:59:10
; FORMAT={-:-/ absolute / inch / decimal}
; #@! TF.CreationDate,2021-01-06T21:59:10-05:00
; #@! TF.GenerationSoftware,Kicad,Pcbnew,(5.1.8)-1
FMAT,2
INCH
T1C0.0118
T2C0.0315
T3C0.0394
T4C0.0433
T5C0.0591
T6C0.0787
T7C0.0689
T8C0.1260
%
G90
G05
T1
X3.2195Y-3.1033
X3.2195Y-3.4498
X3.2195Y-3.7963
X3.2195Y-4.1427
X3.2195Y-4.4892
X3.314Y-4.7411
X3.377Y-2.9144
X3.4085Y-3.2608
X3.4085Y-3.6073
X3.4085Y-4.3002
X3.44Y-3.9222
X3.4715Y-4.9301
X3.5974Y-3.1033
X3.5974Y-3.4498
X3.6289Y-3.7648
X3.6289Y-4.7096
X3.6604Y-4.0797
X3.6919Y-4.3947
X3.7549Y-2.9144
X3.7864Y-3.2608
X3.7864Y-4.8986
X3.8179Y-3.5758
X3.8494Y-4.5837
X3.8809Y-3.8593
X3.8809Y-4.2057
X4.0069Y-3.3868
X4.0069Y-4.7726
X4.0384Y-4.3947
X4.0699Y-2.9459
X4.1014Y-4.0797
X4.1329Y-3.6073
X4.1959Y-4.9301
X4.2274Y-3.1348
X4.2274Y-3.8593
X4.2589Y-4.2687
X4.3219Y-3.4498
X4.3219Y-4.7096
X4.3848Y-2.9144
X4.4163Y-3.7018
X4.4163Y-4.0482
X4.4163Y-4.4577
X4.4793Y-3.2293
X4.5738Y-4.2372
X4.6053Y-3.5128
X4.6053Y-3.8593
X4.6053Y-4.6152
T2
X4.311Y-4.0008
X4.5079Y-4.0008
X3.3661Y-3.7008
X3.563Y-3.7008
X4.311Y-3.8508
X4.5079Y-3.8508
X4.311Y-3.7008
X4.5079Y-3.7008
X4.0945Y-3.0217
X4.1732Y-3.0217
X4.252Y-3.0217
X3.787Y-3.7008
X3.787Y-3.8008
X3.787Y-3.9008
X3.787Y-4.0008
X4.087Y-3.7008
X4.087Y-3.8008
X4.087Y-3.9008
X4.087Y-4.0008
T3
X3.3661Y-3.8189
X3.3661Y-4.0157
X3.563Y-3.9173
T4
X3.5386Y-3.0217
X3.8386Y-3.0217
T5
X4.0118Y-3.0217
X4.3346Y-3.0217
X3.563Y-3.3366
X4.311Y-3.3366
T6
X3.622Y-4.5669
X4.252Y-4.5669
T7
X3.2874Y-3.3366
X4.5866Y-3.3366
T8
X4.5866Y-4.8622
X4.5866Y-3.0118
X3.2874Y-4.8622
X3.2874Y-3.0118
T0
M30
